# Blender 4.5.3 LTS
# www.blender.org
mtllib Banderines.mtl
o Banderines
v -3.335547 1.499109 3.658611
v -2.124210 1.499109 3.683115
v -3.335547 3.041908 3.662810
v -2.124210 3.041908 3.709759
v -2.931768 1.499109 3.629410
v -2.527989 1.499109 3.640631
v -2.527989 3.041908 3.729687
v -2.931768 3.041908 3.708188
v -3.335547 2.656208 3.638397
v -3.335547 2.270508 3.628219
v -3.335547 1.884809 3.635850
v -2.124210 1.884809 3.711015
v -2.124210 2.270508 3.727648
v -2.124210 2.656208 3.727174
v -2.931768 1.884809 3.631793
v -2.931768 2.270508 3.650730
v -2.931768 2.656208 3.679571
v -2.527989 1.884809 3.666212
v -2.527989 2.270508 3.696260
v -2.527989 2.656208 3.720224
v -2.063643 1.499109 3.690164
v -0.852307 1.499109 3.684319
v -2.063643 3.041908 3.703802
v -0.852307 3.041908 3.641086
v -1.659865 1.499109 3.725483
v -1.256086 1.499109 3.722806
v -1.256086 3.041908 3.629263
v -1.659865 3.041908 3.657983
v -2.063643 2.656208 3.724483
v -2.063643 2.270508 3.729167
v -2.063643 1.884809 3.716212
v -0.852307 1.884809 3.654804
v -0.852307 2.270508 3.633762
v -0.852307 2.656208 3.628583
v -1.659865 1.884809 3.728770
v -1.659865 2.270508 3.714556
v -1.659865 2.656208 3.687832
v -1.256086 1.884809 3.700650
v -1.256086 2.270508 3.670867
v -1.256086 2.656208 3.643917
v -0.791740 1.499109 3.677191
v 0.419596 1.499109 3.664171
v -0.791740 3.041908 3.646200
v 0.419596 3.041908 3.722456
v -0.387961 1.499109 3.637009
v 0.015818 1.499109 3.631047
v 0.015818 3.041908 3.725753
v -0.387961 3.041908 3.690834
v -0.791740 2.656208 3.629987
v -0.791740 2.270508 3.630962
v -0.791740 1.884809 3.648782
v 0.419596 1.884809 3.694252
v 0.419596 2.270508 3.718954
v 0.419596 2.656208 3.729602
v -0.387961 1.884809 3.628170
v -0.387961 2.270508 3.637156
v -0.387961 2.656208 3.660813
v 0.015818 1.884809 3.648991
v 0.015818 2.270508 3.677450
v 0.015818 2.656208 3.706429
v 0.480163 1.499109 3.671123
v 1.691500 1.499109 3.702547
v 0.480163 3.041908 3.718365
v 1.691500 3.041908 3.631279
v 0.883942 1.499109 3.714740
v 1.287721 1.499109 3.729130
v 1.287721 3.041908 3.636626
v 0.883942 3.041908 3.676504
v 0.480163 2.656208 3.729535
v 0.480163 2.270508 3.722936
v 0.480163 1.884809 3.700884
v 1.691500 1.884809 3.672967
v 1.691500 2.270508 3.645483
v 1.691500 2.656208 3.629744
v 0.883942 1.884809 3.728819
v 0.883942 2.270508 3.725379
v 0.883942 2.656208 3.705629
v 1.287721 1.884809 3.716035
v 1.287721 2.270508 3.689911
v 1.287721 2.656208 3.659932
v 1.752066 1.499109 3.696017
v 2.963403 1.499109 3.647305
v 1.752066 3.041908 3.634202
v 2.963403 3.041908 3.729023
v 2.155845 1.499109 3.650515
v 2.559624 1.499109 3.628208
v 2.559624 3.041908 3.715224
v 2.155845 3.041908 3.671803
v 1.752066 2.656208 3.628471
v 1.752066 2.270508 3.640461
v 1.752066 1.884809 3.665961
v 2.963403 1.884809 3.675332
v 2.963403 2.270508 3.704623
v 2.963403 2.656208 3.724893
v 2.155845 1.884809 3.631697
v 2.155845 2.270508 3.629467
v 2.155845 2.656208 3.644608
v 2.559624 1.884809 3.635988
v 2.559624 2.270508 3.658849
v 2.559624 2.656208 3.688762
v -3.384228 2.980157 3.670233
v 3.069268 2.980157 3.664331
v -3.384228 2.948623 3.683295
v 3.069268 2.944450 3.679121
v -3.384228 2.935562 3.714828
v 3.069268 2.929660 3.714828
v -3.384228 2.948623 3.746361
v 3.069268 2.944450 3.750535
v -3.384228 2.980157 3.759423
v 3.069268 2.980157 3.765325
vn -0.0001 0.0063 1.0000
vn -0.0190 -0.0076 0.9998
vn -0.0603 -0.0415 0.9973
vn -0.1034 -0.0711 0.9921
vn -0.1062 -0.0680 0.9920
vn -0.0895 -0.0562 0.9944
vn -0.0943 -0.0617 0.9936
vn -0.0808 -0.0514 0.9954
vn -0.0385 -0.0265 0.9989
vn 0.0062 0.0096 0.9999
vn -0.1002 -0.0688 0.9926
vn -0.0861 -0.0592 0.9945
vn -0.0973 -0.0668 0.9930
vn 0.0260 0.0236 0.9994
vn 0.0720 0.0588 0.9957
vn -0.0388 -0.0200 0.9990
vn -0.1073 -0.0689 0.9918
vn -0.1016 -0.0656 0.9927
vn -0.0619 -0.0362 0.9974
vn 0.0207 0.0076 0.9998
vn 0.0381 0.0208 0.9991
vn 0.0750 0.0516 0.9958
vn 0.1018 0.0700 0.9923
vn 0.1010 0.0647 0.9928
vn 0.0763 0.0465 0.9960
vn 0.1012 0.0673 0.9926
vn 0.0668 0.0412 0.9969
vn 0.0198 0.0136 0.9997
vn -0.0259 -0.0228 0.9994
vn 0.0936 0.0643 0.9935
vn 0.0738 0.0508 0.9960
vn 0.1021 0.0702 0.9923
vn -0.0455 -0.0362 0.9983
vn -0.0869 -0.0671 0.9939
vn 0.0189 0.0064 0.9998
vn 0.1039 0.0668 0.9923
vn 0.1070 0.0704 0.9918
vn 0.0776 0.0474 0.9959
vn -0.0405 -0.0212 0.9990
vn -0.0558 -0.0333 0.9979
vn -0.0871 -0.0598 0.9944
vn -0.0967 -0.0664 0.9931
vn -0.0923 -0.0590 0.9940
vn -0.0604 -0.0351 0.9976
vn -0.1045 -0.0705 0.9920
vn -0.0505 -0.0296 0.9983
vn -0.0003 -0.0002 1.0000
vn 0.0445 0.0351 0.9984
vn -0.0836 -0.0575 0.9948
vn -0.0589 -0.0405 0.9974
vn -0.1034 -0.0710 0.9921
vn 0.0633 0.0475 0.9969
vn 0.0988 0.0731 0.9924
vn 0.0017 0.0075 1.0000
vn -0.0969 -0.0623 0.9933
vn -0.1087 -0.0727 0.9914
vn -0.0905 -0.0570 0.9943
vn 0.0587 0.0339 0.9977
vn 0.0714 0.0446 0.9964
vn 0.0960 0.0659 0.9932
vn 0.0881 0.0605 0.9943
vn 0.0804 0.0513 0.9954
vn 0.0423 0.0225 0.9989
vn 0.1041 0.0713 0.9920
vn 0.0323 0.0168 0.9993
vn -0.0192 -0.0132 0.9997
vn -0.0616 -0.0462 0.9970
vn 0.0708 0.0486 0.9963
vn 0.0419 0.0288 0.9987
vn 0.1010 0.0694 0.9925
vn -0.0788 -0.0570 0.9953
vn -0.1071 -0.0765 0.9913
vn -0.0223 -0.0211 0.9995
vn 0.0864 0.0557 0.9947
vn 0.1066 0.0725 0.9917
vn 0.1002 0.0645 0.9929
vn -0.0749 -0.0455 0.9962
vn -0.0845 -0.0542 0.9949
vn -0.1015 -0.0697 0.9924
vn -0.0764 -0.0525 0.9957
vn -0.0655 -0.0417 0.9970
vn -0.0227 -0.0090 0.9997
vn -0.1001 -0.0695 0.9925
vn -0.0130 -0.0034 0.9999
vn 0.0380 0.0262 0.9989
vn 0.0765 0.0556 0.9955
vn -0.0553 -0.0380 0.9977
vn -0.0233 -0.0160 0.9996
vn -0.0951 -0.0653 0.9933
vn 0.0915 0.0645 0.9937
vn 0.1116 0.0772 0.9907
vn 0.0420 0.0339 0.9985
vn -0.0728 -0.0470 0.9962
vn -0.1008 -0.0697 0.9925
vn -0.1063 -0.0697 0.9919
vn -0.0008 -0.3827 -0.9239
vn -0.0009 -0.7071 -0.7071
vn -0.0009 -1.0000 -0.0000
vn -0.0009 -0.7071 0.7071
vn -0.0008 -0.3827 0.9239
vn 0.0492 0.0451 0.9978
vn -0.0293 -0.0324 0.9990
vn 0.0082 0.0185 0.9998
vn 0.0132 -0.0040 0.9999
vn -0.0342 -0.0107 0.9994
vt 0.844848 0.922403
vt 0.823801 0.900342
vt 0.844868 0.900352
vt 0.844959 0.878192
vt 0.823949 0.856077
vt 0.845051 0.856030
vt 0.823840 0.878263
vt 0.908202 0.900176
vt 0.887165 0.878100
vt 0.908226 0.878120
vt 0.887095 0.900229
vt 0.866079 0.878120
vt 0.865970 0.900308
vt 0.887184 0.856052
vt 0.908281 0.856014
vt 0.866119 0.856038
vt 0.908104 0.922345
vt 0.886989 0.922412
vt 0.865909 0.922423
vt 0.508357 0.835924
vt 0.529401 0.857988
vt 0.508325 0.857988
vt 0.508218 0.880166
vt 0.529228 0.902280
vt 0.508137 0.902305
vt 0.529342 0.880091
vt 0.444992 0.858150
vt 0.466031 0.880221
vt 0.444970 0.880199
vt 0.466088 0.858119
vt 0.487106 0.880222
vt 0.487212 0.858045
vt 0.466002 0.902279
vt 0.444894 0.902331
vt 0.487075 0.902284
vt 0.445080 0.836003
vt 0.466202 0.835930
vt 0.487294 0.835904
vt 0.278872 0.879353
vt 0.256799 0.900388
vt 0.256788 0.879301
vt 0.234599 0.879181
vt 0.212487 0.900190
vt 0.212487 0.879111
vt 0.234669 0.900305
vt 0.256659 0.815978
vt 0.234588 0.837014
vt 0.234609 0.815948
vt 0.256665 0.837062
vt 0.234567 0.858080
vt 0.256724 0.858180
vt 0.212511 0.836967
vt 0.212452 0.815849
vt 0.212516 0.858050
vt 0.278781 0.816056
vt 0.278850 0.837180
vt 0.278889 0.858284
vt 0.597745 0.855969
vt 0.618762 0.878063
vt 0.597663 0.878079
vt 0.597528 0.900268
vt 0.618530 0.922383
vt 0.597461 0.922355
vt 0.618649 0.900217
vt 0.534355 0.878144
vt 0.555379 0.900227
vt 0.534304 0.900206
vt 0.555428 0.878168
vt 0.576440 0.900268
vt 0.576538 0.878136
vt 0.555302 0.922327
vt 0.534178 0.922381
vt 0.576397 0.922317
vt 0.534430 0.856048
vt 0.555553 0.855995
vt 0.576667 0.855954
vt 0.246237 0.505732
vt 0.225229 0.483626
vt 0.246340 0.483595
vt 0.246472 0.461416
vt 0.225465 0.439308
vt 0.246529 0.439350
vt 0.225359 0.461452
vt 0.309628 0.483571
vt 0.288609 0.461482
vt 0.309695 0.461489
vt 0.288563 0.483531
vt 0.267549 0.461437
vt 0.267465 0.483543
vt 0.288707 0.439356
vt 0.309832 0.439302
vt 0.267600 0.439381
vt 0.309565 0.505644
vt 0.288448 0.505683
vt 0.267327 0.505732
vt 0.967650 0.002637
vt 0.971146 0.202911
vt 0.967650 0.202938
vt 0.971146 0.002609
vt 0.974642 0.202884
vt 0.974642 0.002582
vt 0.978138 0.202856
vt 0.981634 0.002527
vt 0.981634 0.202829
vt 0.823766 0.922417
vt 0.529428 0.835930
vt 0.278848 0.900417
vt 0.618806 0.856012
vt 0.225175 0.505687
vt 0.978138 0.002554
s 1
usemtl Material.041
f 14/1/1 7/2/2 20/3/3
f 17/4/4 3/5/5 9/6/6
f 20/3/3 8/7/7 17/4/4
f 6/8/8 15/9/9 5/10/10
f 18/11/11 16/12/12 15/9/9
f 19/13/13 17/4/4 16/12/12
f 5/10/10 11/14/14 1/15/15
f 15/9/9 10/16/16 11/14/14
f 16/12/12 9/6/6 10/16/16
f 2/17/17 18/11/11 6/8/8
f 12/18/18 19/13/13 18/11/11
f 13/19/19 20/3/3 19/13/13
f 34/20/20 27/21/21 40/22/22
f 37/23/23 23/24/24 29/25/25
f 40/22/22 28/26/26 37/23/23
f 26/27/27 35/28/28 25/29/29
f 38/30/30 36/31/31 35/28/28
f 39/32/32 37/23/23 36/31/31
f 25/29/29 31/33/33 21/34/34
f 35/28/28 30/35/35 31/33/33
f 36/31/31 29/25/25 30/35/35
f 22/36/36 38/30/30 26/27/27
f 32/37/37 39/32/32 38/30/30
f 33/38/38 40/22/22 39/32/32
f 54/39/39 47/40/40 60/41/41
f 57/42/42 43/43/43 49/44/44
f 60/41/41 48/45/45 57/42/42
f 46/46/46 55/47/47 45/48/48
f 58/49/49 56/50/50 55/47/47
f 59/51/51 57/42/42 56/50/50
f 45/48/48 51/52/52 41/53/53
f 55/47/47 50/54/54 51/52/52
f 56/50/50 49/44/44 50/54/54
f 42/55/55 58/49/49 46/46/46
f 52/56/56 59/51/51 58/49/49
f 53/57/57 60/41/41 59/51/51
f 74/58/58 67/59/59 80/60/60
f 77/61/61 63/62/62 69/63/63
f 80/60/60 68/64/64 77/61/61
f 66/65/65 75/66/66 65/67/67
f 78/68/68 76/69/69 75/66/66
f 79/70/70 77/61/61 76/69/69
f 65/67/67 71/71/71 61/72/72
f 75/66/66 70/73/73 71/71/71
f 76/69/69 69/63/63 70/73/73
f 62/74/74 78/68/68 66/65/65
f 72/75/75 79/70/70 78/68/68
f 73/76/76 80/60/60 79/70/70
f 94/77/77 87/78/78 100/79/79
f 97/80/80 83/81/81 89/82/82
f 100/79/79 88/83/83 97/80/80
f 86/84/84 95/85/85 85/86/86
f 98/87/87 96/88/88 95/85/85
f 99/89/89 97/80/80 96/88/88
f 85/86/86 91/90/90 81/91/91
f 95/85/85 90/92/92 91/90/90
f 96/88/88 89/82/82 90/92/92
f 82/93/93 98/87/87 86/84/84
f 92/94/94 99/89/89 98/87/87
f 93/95/95 100/79/79 99/89/89
f 102/96/96 103/97/97 101/98/96
f 104/99/97 105/100/98 103/97/97
f 106/101/98 107/102/99 105/100/98
f 107/102/99 110/103/100 109/104/100
f 14/1/1 4/105/101 7/2/2
f 17/4/4 8/7/7 3/5/5
f 20/3/3 7/2/2 8/7/7
f 6/8/8 18/11/11 15/9/9
f 18/11/11 19/13/13 16/12/12
f 19/13/13 20/3/3 17/4/4
f 5/10/10 15/9/9 11/14/14
f 15/9/9 16/12/12 10/16/16
f 16/12/12 17/4/4 9/6/6
f 2/17/17 12/18/18 18/11/11
f 12/18/18 13/19/19 19/13/13
f 13/19/19 14/1/1 20/3/3
f 34/20/20 24/106/102 27/21/21
f 37/23/23 28/26/26 23/24/24
f 40/22/22 27/21/21 28/26/26
f 26/27/27 38/30/30 35/28/28
f 38/30/30 39/32/32 36/31/31
f 39/32/32 40/22/22 37/23/23
f 25/29/29 35/28/28 31/33/33
f 35/28/28 36/31/31 30/35/35
f 36/31/31 37/23/23 29/25/25
f 22/36/36 32/37/37 38/30/30
f 32/37/37 33/38/38 39/32/32
f 33/38/38 34/20/20 40/22/22
f 54/39/39 44/107/103 47/40/40
f 57/42/42 48/45/45 43/43/43
f 60/41/41 47/40/40 48/45/45
f 46/46/46 58/49/49 55/47/47
f 58/49/49 59/51/51 56/50/50
f 59/51/51 60/41/41 57/42/42
f 45/48/48 55/47/47 51/52/52
f 55/47/47 56/50/50 50/54/54
f 56/50/50 57/42/42 49/44/44
f 42/55/55 52/56/56 58/49/49
f 52/56/56 53/57/57 59/51/51
f 53/57/57 54/39/39 60/41/41
f 74/58/58 64/108/104 67/59/59
f 77/61/61 68/64/64 63/62/62
f 80/60/60 67/59/59 68/64/64
f 66/65/65 78/68/68 75/66/66
f 78/68/68 79/70/70 76/69/69
f 79/70/70 80/60/60 77/61/61
f 65/67/67 75/66/66 71/71/71
f 75/66/66 76/69/69 70/73/73
f 76/69/69 77/61/61 69/63/63
f 62/74/74 72/75/75 78/68/68
f 72/75/75 73/76/76 79/70/70
f 73/76/76 74/58/58 80/60/60
f 94/77/77 84/109/105 87/78/78
f 97/80/80 88/83/83 83/81/81
f 100/79/79 87/78/78 88/83/83
f 86/84/84 98/87/87 95/85/85
f 98/87/87 99/89/89 96/88/88
f 99/89/89 100/79/79 97/80/80
f 85/86/86 95/85/85 91/90/90
f 95/85/85 96/88/88 90/92/92
f 96/88/88 97/80/80 89/82/82
f 82/93/93 92/94/94 98/87/87
f 92/94/94 93/95/95 99/89/89
f 93/95/95 94/77/77 100/79/79
f 102/96/96 104/99/97 103/97/97
f 104/99/97 106/101/98 105/100/98
f 106/101/98 108/110/99 107/102/99
f 107/102/99 108/110/99 110/103/100
