# Blender 4.5.3 LTS
# www.blender.org
mtllib Botes.mtl
o Cilindro.002
v -2.480000 0.630000 -3.460000
v -2.480000 0.830000 -3.460000
v -2.460491 0.630000 -3.458078
v -2.460491 0.830000 -3.458078
v -2.441732 0.630000 -3.452388
v -2.441732 0.830000 -3.452388
v -2.424443 0.630000 -3.443147
v -2.424443 0.830000 -3.443147
v -2.409289 0.630000 -3.430711
v -2.409289 0.830000 -3.430711
v -2.396853 0.630000 -3.415557
v -2.396853 0.830000 -3.415557
v -2.387612 0.630000 -3.398268
v -2.387612 0.830000 -3.398268
v -2.381922 0.630000 -3.379509
v -2.381922 0.830000 -3.379509
v -2.380000 0.630000 -3.360000
v -2.380000 0.830000 -3.360000
v -2.381922 0.630000 -3.340491
v -2.381922 0.830000 -3.340491
v -2.387612 0.630000 -3.321732
v -2.387612 0.830000 -3.321732
v -2.396853 0.630000 -3.304443
v -2.396853 0.830000 -3.304443
v -2.409289 0.630000 -3.289289
v -2.409289 0.830000 -3.289289
v -2.424443 0.630000 -3.276853
v -2.424443 0.830000 -3.276853
v -2.441732 0.630000 -3.267612
v -2.441732 0.830000 -3.267612
v -2.460491 0.630000 -3.261921
v -2.460491 0.830000 -3.261921
v -2.480000 0.630000 -3.260000
v -2.480000 0.830000 -3.260000
v -2.499509 0.630000 -3.261921
v -2.499509 0.830000 -3.261921
v -2.518268 0.630000 -3.267612
v -2.518268 0.830000 -3.267612
v -2.535557 0.630000 -3.276853
v -2.535557 0.830000 -3.276853
v -2.550711 0.630000 -3.289289
v -2.550711 0.830000 -3.289289
v -2.563147 0.630000 -3.304443
v -2.563147 0.830000 -3.304443
v -2.572388 0.630000 -3.321732
v -2.572388 0.830000 -3.321732
v -2.578079 0.630000 -3.340491
v -2.578079 0.830000 -3.340491
v -2.580000 0.630000 -3.360000
v -2.580000 0.830000 -3.360000
v -2.578079 0.630000 -3.379509
v -2.578079 0.830000 -3.379509
v -2.572388 0.630000 -3.398268
v -2.572388 0.830000 -3.398268
v -2.563147 0.630000 -3.415557
v -2.563147 0.830000 -3.415557
v -2.550711 0.630000 -3.430711
v -2.550711 0.830000 -3.430711
v -2.535557 0.630000 -3.443147
v -2.535557 0.830000 -3.443147
v -2.518268 0.630000 -3.452388
v -2.518268 0.830000 -3.452388
v -2.499509 0.630000 -3.458078
v -2.499509 0.830000 -3.458078
v -2.480000 0.840000 -3.230000
v -2.480000 0.920000 -3.230000
v -2.460491 0.840000 -3.228078
v -2.460491 0.920000 -3.228078
v -2.441732 0.840000 -3.222388
v -2.441732 0.920000 -3.222388
v -2.424443 0.840000 -3.213147
v -2.424443 0.920000 -3.213147
v -2.409290 0.840000 -3.200711
v -2.409290 0.920000 -3.200711
v -2.396853 0.840000 -3.185557
v -2.396853 0.920000 -3.185557
v -2.387612 0.840000 -3.168268
v -2.387612 0.920000 -3.168268
v -2.381922 0.840000 -3.149509
v -2.381922 0.920000 -3.149509
v -2.380000 0.840000 -3.130000
v -2.380000 0.920000 -3.130000
v -2.381922 0.840000 -3.110491
v -2.381922 0.920000 -3.110491
v -2.387612 0.840000 -3.091732
v -2.387612 0.920000 -3.091732
v -2.396853 0.840000 -3.074443
v -2.396853 0.920000 -3.074443
v -2.409290 0.840000 -3.059289
v -2.409290 0.920000 -3.059289
v -2.424443 0.840000 -3.046853
v -2.424443 0.920000 -3.046853
v -2.441732 0.840000 -3.037612
v -2.441732 0.920000 -3.037612
v -2.460491 0.840000 -3.031921
v -2.460491 0.920000 -3.031921
v -2.480000 0.840000 -3.030000
v -2.480000 0.920000 -3.030000
v -2.499509 0.840000 -3.031921
v -2.499509 0.920000 -3.031921
v -2.518269 0.840000 -3.037612
v -2.518269 0.920000 -3.037612
v -2.535557 0.840000 -3.046853
v -2.535557 0.920000 -3.046853
v -2.550711 0.840000 -3.059289
v -2.550711 0.920000 -3.059289
v -2.563147 0.840000 -3.074443
v -2.563147 0.920000 -3.074443
v -2.572388 0.840000 -3.091732
v -2.572388 0.920000 -3.091732
v -2.578079 0.840000 -3.110491
v -2.578079 0.920000 -3.110491
v -2.580000 0.840000 -3.130000
v -2.580000 0.920000 -3.130000
v -2.578079 0.840000 -3.149509
v -2.578079 0.920000 -3.149509
v -2.572388 0.840000 -3.168268
v -2.572388 0.920000 -3.168268
v -2.563147 0.840000 -3.185557
v -2.563147 0.920000 -3.185557
v -2.550711 0.840000 -3.200711
v -2.550711 0.920000 -3.200711
v -2.535557 0.840000 -3.213147
v -2.535557 0.920000 -3.213147
v -2.518269 0.840000 -3.222388
v -2.518269 0.920000 -3.222388
v -2.499509 0.840000 -3.228078
v -2.499509 0.920000 -3.228078
v -2.480000 0.640000 -3.230000
v -2.480000 0.840000 -3.230000
v -2.460491 0.640000 -3.228078
v -2.460491 0.840000 -3.228078
v -2.441732 0.640000 -3.222388
v -2.441732 0.840000 -3.222388
v -2.424443 0.640000 -3.213147
v -2.424443 0.840000 -3.213147
v -2.409290 0.640000 -3.200711
v -2.409290 0.840000 -3.200711
v -2.396853 0.640000 -3.185557
v -2.396853 0.840000 -3.185557
v -2.387612 0.640000 -3.168268
v -2.387612 0.840000 -3.168268
v -2.381922 0.640000 -3.149509
v -2.381922 0.840000 -3.149509
v -2.380000 0.640000 -3.130000
v -2.380000 0.840000 -3.130000
v -2.381922 0.640000 -3.110491
v -2.381922 0.840000 -3.110491
v -2.387612 0.640000 -3.091732
v -2.387612 0.840000 -3.091732
v -2.396853 0.640000 -3.074443
v -2.396853 0.840000 -3.074443
v -2.409290 0.640000 -3.059289
v -2.409290 0.840000 -3.059289
v -2.424443 0.640000 -3.046853
v -2.424443 0.840000 -3.046853
v -2.441732 0.640000 -3.037612
v -2.441732 0.840000 -3.037612
v -2.460491 0.640000 -3.031921
v -2.460491 0.840000 -3.031921
v -2.480000 0.640000 -3.030000
v -2.480000 0.840000 -3.030000
v -2.499509 0.640000 -3.031921
v -2.499509 0.840000 -3.031921
v -2.518269 0.640000 -3.037612
v -2.518269 0.840000 -3.037612
v -2.535557 0.640000 -3.046853
v -2.535557 0.840000 -3.046853
v -2.550711 0.640000 -3.059289
v -2.550711 0.840000 -3.059289
v -2.563147 0.640000 -3.074443
v -2.563147 0.840000 -3.074443
v -2.572388 0.640000 -3.091732
v -2.572388 0.840000 -3.091732
v -2.578079 0.640000 -3.110491
v -2.578079 0.840000 -3.110491
v -2.580000 0.640000 -3.130000
v -2.580000 0.840000 -3.130000
v -2.578079 0.640000 -3.149509
v -2.578079 0.840000 -3.149509
v -2.572388 0.640000 -3.168268
v -2.572388 0.840000 -3.168268
v -2.563147 0.640000 -3.185557
v -2.563147 0.840000 -3.185557
v -2.550711 0.640000 -3.200711
v -2.550711 0.840000 -3.200711
v -2.535557 0.640000 -3.213147
v -2.535557 0.840000 -3.213147
v -2.518269 0.640000 -3.222388
v -2.518269 0.840000 -3.222388
v -2.499509 0.640000 -3.228078
v -2.499509 0.840000 -3.228078
v -2.480000 0.830000 -3.460000
v -2.480000 0.910000 -3.460000
v -2.460491 0.830000 -3.458078
v -2.460491 0.910000 -3.458078
v -2.441732 0.830000 -3.452388
v -2.441732 0.910000 -3.452388
v -2.424443 0.830000 -3.443147
v -2.424443 0.910000 -3.443147
v -2.409290 0.830000 -3.430711
v -2.409290 0.910000 -3.430711
v -2.396853 0.830000 -3.415557
v -2.396853 0.910000 -3.415557
v -2.387612 0.830000 -3.398268
v -2.387612 0.910000 -3.398268
v -2.381922 0.830000 -3.379509
v -2.381922 0.910000 -3.379509
v -2.380000 0.830000 -3.360000
v -2.380000 0.910000 -3.360000
v -2.381922 0.830000 -3.340491
v -2.381922 0.910000 -3.340491
v -2.387612 0.830000 -3.321732
v -2.387612 0.910000 -3.321732
v -2.396853 0.830000 -3.304443
v -2.396853 0.910000 -3.304443
v -2.409290 0.830000 -3.289289
v -2.409290 0.910000 -3.289289
v -2.424443 0.830000 -3.276853
v -2.424443 0.910000 -3.276853
v -2.441732 0.830000 -3.267612
v -2.441732 0.910000 -3.267612
v -2.460491 0.830000 -3.261921
v -2.460491 0.910000 -3.261921
v -2.480000 0.830000 -3.260000
v -2.480000 0.910000 -3.260000
v -2.499509 0.830000 -3.261921
v -2.499509 0.910000 -3.261921
v -2.518269 0.830000 -3.267612
v -2.518269 0.910000 -3.267612
v -2.535557 0.830000 -3.276853
v -2.535557 0.910000 -3.276853
v -2.550711 0.830000 -3.289289
v -2.550711 0.910000 -3.289289
v -2.563147 0.830000 -3.304443
v -2.563147 0.910000 -3.304443
v -2.572388 0.830000 -3.321732
v -2.572388 0.910000 -3.321732
v -2.578079 0.830000 -3.340491
v -2.578079 0.910000 -3.340491
v -2.580000 0.830000 -3.360000
v -2.580000 0.910000 -3.360000
v -2.578079 0.830000 -3.379509
v -2.578079 0.910000 -3.379509
v -2.572388 0.830000 -3.398268
v -2.572388 0.910000 -3.398268
v -2.563147 0.830000 -3.415557
v -2.563147 0.910000 -3.415557
v -2.550711 0.830000 -3.430711
v -2.550711 0.910000 -3.430711
v -2.535557 0.830000 -3.443147
v -2.535557 0.910000 -3.443147
v -2.518269 0.830000 -3.452388
v -2.518269 0.910000 -3.452388
v -2.499509 0.830000 -3.458078
v -2.499509 0.910000 -3.458078
vn 0.0980 -0.0000 -0.9952
vn 0.2903 -0.0000 -0.9569
vn 0.4714 -0.0000 -0.8819
vn 0.6344 -0.0000 -0.7730
vn 0.7730 -0.0000 -0.6344
vn 0.8819 -0.0000 -0.4714
vn 0.9569 -0.0000 -0.2903
vn 0.9952 -0.0000 -0.0980
vn 0.9952 -0.0000 0.0980
vn 0.9569 -0.0000 0.2903
vn 0.8819 -0.0000 0.4714
vn 0.7730 -0.0000 0.6344
vn 0.6344 -0.0000 0.7730
vn 0.4714 -0.0000 0.8819
vn 0.2903 -0.0000 0.9569
vn 0.0980 -0.0000 0.9952
vn -0.0980 -0.0000 0.9952
vn -0.2903 -0.0000 0.9569
vn -0.4714 -0.0000 0.8819
vn -0.6344 -0.0000 0.7730
vn -0.7730 -0.0000 0.6344
vn -0.8819 -0.0000 0.4714
vn -0.9569 -0.0000 0.2903
vn -0.9952 -0.0000 0.0980
vn -0.9952 -0.0000 -0.0980
vn -0.9569 -0.0000 -0.2903
vn -0.8819 -0.0000 -0.4714
vn -0.7730 -0.0000 -0.6344
vn -0.6344 -0.0000 -0.7730
vn -0.4714 -0.0000 -0.8819
vn -0.0000 1.0000 -0.0000
vn -0.2903 -0.0000 -0.9569
vn -0.0980 -0.0000 -0.9952
vn -0.0000 -1.0000 -0.0000
vt 1.000000 0.500000
vt 1.000000 1.000000
vt 0.968750 1.000000
vt 0.968750 0.500000
vt 0.937500 1.000000
vt 0.937500 0.500000
vt 0.906250 1.000000
vt 0.906250 0.500000
vt 0.875000 1.000000
vt 0.875000 0.500000
vt 0.843750 1.000000
vt 0.843750 0.500000
vt 0.812500 1.000000
vt 0.812500 0.500000
vt 0.781250 1.000000
vt 0.781250 0.500000
vt 0.750000 1.000000
vt 0.750000 0.500000
vt 0.718750 1.000000
vt 0.718750 0.500000
vt 0.687500 1.000000
vt 0.687500 0.500000
vt 0.656250 1.000000
vt 0.656250 0.500000
vt 0.625000 1.000000
vt 0.625000 0.500000
vt 0.593750 1.000000
vt 0.593750 0.500000
vt 0.562500 1.000000
vt 0.562500 0.500000
vt 0.531250 1.000000
vt 0.531250 0.500000
vt 0.500000 1.000000
vt 0.500000 0.500000
vt 0.468750 1.000000
vt 0.468750 0.500000
vt 0.437500 1.000000
vt 0.437500 0.500000
vt 0.406250 1.000000
vt 0.406250 0.500000
vt 0.375000 1.000000
vt 0.375000 0.500000
vt 0.343750 1.000000
vt 0.343750 0.500000
vt 0.312500 1.000000
vt 0.312500 0.500000
vt 0.281250 1.000000
vt 0.281250 0.500000
vt 0.250000 1.000000
vt 0.250000 0.500000
vt 0.218750 1.000000
vt 0.218750 0.500000
vt 0.187500 1.000000
vt 0.187500 0.500000
vt 0.156250 1.000000
vt 0.156250 0.500000
vt 0.125000 1.000000
vt 0.125000 0.500000
vt 0.093750 1.000000
vt 0.093750 0.500000
vt 0.062500 1.000000
vt 0.062500 0.500000
vt 0.296822 0.485388
vt 0.250000 0.490000
vt 0.203178 0.485388
vt 0.158156 0.471731
vt 0.116663 0.449553
vt 0.080294 0.419706
vt 0.050447 0.383337
vt 0.028269 0.341844
vt 0.014612 0.296822
vt 0.010000 0.250000
vt 0.014612 0.203178
vt 0.028269 0.158156
vt 0.050447 0.116663
vt 0.080294 0.080294
vt 0.116663 0.050447
vt 0.158156 0.028269
vt 0.203178 0.014612
vt 0.250000 0.010000
vt 0.296822 0.014612
vt 0.341844 0.028269
vt 0.383337 0.050447
vt 0.419706 0.080294
vt 0.449553 0.116663
vt 0.471731 0.158156
vt 0.485388 0.203178
vt 0.490000 0.250000
vt 0.485388 0.296822
vt 0.471731 0.341844
vt 0.449553 0.383337
vt 0.419706 0.419706
vt 0.383337 0.449553
vt 0.341844 0.471731
vt 0.031250 1.000000
vt 0.031250 0.500000
vt 0.000000 1.000000
vt 0.000000 0.500000
vt 0.750000 0.490000
vt 0.796822 0.485388
vt 0.841844 0.471731
vt 0.883337 0.449553
vt 0.919706 0.419706
vt 0.949553 0.383337
vt 0.971731 0.341844
vt 0.985388 0.296822
vt 0.990000 0.250000
vt 0.985388 0.203178
vt 0.971731 0.158156
vt 0.949553 0.116663
vt 0.919706 0.080294
vt 0.883337 0.050447
vt 0.841844 0.028269
vt 0.796822 0.014612
vt 0.750000 0.010000
vt 0.703178 0.014612
vt 0.658156 0.028269
vt 0.616663 0.050447
vt 0.580294 0.080294
vt 0.550447 0.116663
vt 0.528269 0.158156
vt 0.514612 0.203178
vt 0.510000 0.250000
vt 0.514612 0.296822
vt 0.528269 0.341844
vt 0.550447 0.383337
vt 0.580294 0.419706
vt 0.616663 0.449553
vt 0.658156 0.471731
vt 0.703178 0.485388
s 0
usemtl Material.007
f 1/1/1 2/2/1 4/3/1 3/4/1
f 3/4/2 4/3/2 6/5/2 5/6/2
f 5/6/3 6/5/3 8/7/3 7/8/3
f 7/8/4 8/7/4 10/9/4 9/10/4
f 9/10/5 10/9/5 12/11/5 11/12/5
f 11/12/6 12/11/6 14/13/6 13/14/6
f 13/14/7 14/13/7 16/15/7 15/16/7
f 15/16/8 16/15/8 18/17/8 17/18/8
f 17/18/9 18/17/9 20/19/9 19/20/9
f 19/20/10 20/19/10 22/21/10 21/22/10
f 21/22/11 22/21/11 24/23/11 23/24/11
f 23/24/12 24/23/12 26/25/12 25/26/12
f 25/26/13 26/25/13 28/27/13 27/28/13
f 27/28/14 28/27/14 30/29/14 29/30/14
f 29/30/15 30/29/15 32/31/15 31/32/15
f 31/32/16 32/31/16 34/33/16 33/34/16
f 33/34/17 34/33/17 36/35/17 35/36/17
f 35/36/18 36/35/18 38/37/18 37/38/18
f 37/38/19 38/37/19 40/39/19 39/40/19
f 39/40/20 40/39/20 42/41/20 41/42/20
f 41/42/21 42/41/21 44/43/21 43/44/21
f 43/44/22 44/43/22 46/45/22 45/46/22
f 45/46/23 46/45/23 48/47/23 47/48/23
f 47/48/24 48/47/24 50/49/24 49/50/24
f 49/50/25 50/49/25 52/51/25 51/52/25
f 51/52/26 52/51/26 54/53/26 53/54/26
f 53/54/27 54/53/27 56/55/27 55/56/27
f 55/56/28 56/55/28 58/57/28 57/58/28
f 57/58/29 58/57/29 60/59/29 59/60/29
f 59/60/30 60/59/30 62/61/30 61/62/30
f 4/63/31 2/64/31 64/65/31 62/66/31 60/67/31 58/68/31 56/69/31 54/70/31 52/71/31 50/72/31 48/73/31 46/74/31 44/75/31 42/76/31 40/77/31 38/78/31 36/79/31 34/80/31 32/81/31 30/82/31 28/83/31 26/84/31 24/85/31 22/86/31 20/87/31 18/88/31 16/89/31 14/90/31 12/91/31 10/92/31 8/93/31 6/94/31
f 61/62/32 62/61/32 64/95/32 63/96/32
f 63/96/33 64/95/33 2/97/33 1/98/33
f 1/99/34 3/100/34 5/101/34 7/102/34 9/103/34 11/104/34 13/105/34 15/106/34 17/107/34 19/108/34 21/109/34 23/110/34 25/111/34 27/112/34 29/113/34 31/114/34 33/115/34 35/116/34 37/117/34 39/118/34 41/119/34 43/120/34 45/121/34 47/122/34 49/123/34 51/124/34 53/125/34 55/126/34 57/127/34 59/128/34 61/129/34 63/130/34
f 65/1/1 66/2/1 68/3/1 67/4/1
f 67/4/2 68/3/2 70/5/2 69/6/2
f 69/6/3 70/5/3 72/7/3 71/8/3
f 71/8/4 72/7/4 74/9/4 73/10/4
f 73/10/5 74/9/5 76/11/5 75/12/5
f 75/12/6 76/11/6 78/13/6 77/14/6
f 77/14/7 78/13/7 80/15/7 79/16/7
f 79/16/8 80/15/8 82/17/8 81/18/8
f 81/18/9 82/17/9 84/19/9 83/20/9
f 83/20/10 84/19/10 86/21/10 85/22/10
f 85/22/11 86/21/11 88/23/11 87/24/11
f 87/24/12 88/23/12 90/25/12 89/26/12
f 89/26/13 90/25/13 92/27/13 91/28/13
f 91/28/14 92/27/14 94/29/14 93/30/14
f 93/30/15 94/29/15 96/31/15 95/32/15
f 95/32/16 96/31/16 98/33/16 97/34/16
f 97/34/17 98/33/17 100/35/17 99/36/17
f 99/36/18 100/35/18 102/37/18 101/38/18
f 101/38/19 102/37/19 104/39/19 103/40/19
f 103/40/20 104/39/20 106/41/20 105/42/20
f 105/42/21 106/41/21 108/43/21 107/44/21
f 107/44/22 108/43/22 110/45/22 109/46/22
f 109/46/23 110/45/23 112/47/23 111/48/23
f 111/48/24 112/47/24 114/49/24 113/50/24
f 113/50/25 114/49/25 116/51/25 115/52/25
f 115/52/26 116/51/26 118/53/26 117/54/26
f 117/54/27 118/53/27 120/55/27 119/56/27
f 119/56/28 120/55/28 122/57/28 121/58/28
f 121/58/29 122/57/29 124/59/29 123/60/29
f 123/60/30 124/59/30 126/61/30 125/62/30
f 68/63/31 66/64/31 128/65/31 126/66/31 124/67/31 122/68/31 120/69/31 118/70/31 116/71/31 114/72/31 112/73/31 110/74/31 108/75/31 106/76/31 104/77/31 102/78/31 100/79/31 98/80/31 96/81/31 94/82/31 92/83/31 90/84/31 88/85/31 86/86/31 84/87/31 82/88/31 80/89/31 78/90/31 76/91/31 74/92/31 72/93/31 70/94/31
f 125/62/32 126/61/32 128/95/32 127/96/32
f 127/96/33 128/95/33 66/97/33 65/98/33
f 65/99/34 67/100/34 69/101/34 71/102/34 73/103/34 75/104/34 77/105/34 79/106/34 81/107/34 83/108/34 85/109/34 87/110/34 89/111/34 91/112/34 93/113/34 95/114/34 97/115/34 99/116/34 101/117/34 103/118/34 105/119/34 107/120/34 109/121/34 111/122/34 113/123/34 115/124/34 117/125/34 119/126/34 121/127/34 123/128/34 125/129/34 127/130/34
f 129/1/1 130/2/1 132/3/1 131/4/1
f 131/4/2 132/3/2 134/5/2 133/6/2
f 133/6/3 134/5/3 136/7/3 135/8/3
f 135/8/4 136/7/4 138/9/4 137/10/4
f 137/10/5 138/9/5 140/11/5 139/12/5
f 139/12/6 140/11/6 142/13/6 141/14/6
f 141/14/7 142/13/7 144/15/7 143/16/7
f 143/16/8 144/15/8 146/17/8 145/18/8
f 145/18/9 146/17/9 148/19/9 147/20/9
f 147/20/10 148/19/10 150/21/10 149/22/10
f 149/22/11 150/21/11 152/23/11 151/24/11
f 151/24/12 152/23/12 154/25/12 153/26/12
f 153/26/13 154/25/13 156/27/13 155/28/13
f 155/28/14 156/27/14 158/29/14 157/30/14
f 157/30/15 158/29/15 160/31/15 159/32/15
f 159/32/16 160/31/16 162/33/16 161/34/16
f 161/34/17 162/33/17 164/35/17 163/36/17
f 163/36/18 164/35/18 166/37/18 165/38/18
f 165/38/19 166/37/19 168/39/19 167/40/19
f 167/40/20 168/39/20 170/41/20 169/42/20
f 169/42/21 170/41/21 172/43/21 171/44/21
f 171/44/22 172/43/22 174/45/22 173/46/22
f 173/46/23 174/45/23 176/47/23 175/48/23
f 175/48/24 176/47/24 178/49/24 177/50/24
f 177/50/25 178/49/25 180/51/25 179/52/25
f 179/52/26 180/51/26 182/53/26 181/54/26
f 181/54/27 182/53/27 184/55/27 183/56/27
f 183/56/28 184/55/28 186/57/28 185/58/28
f 185/58/29 186/57/29 188/59/29 187/60/29
f 187/60/30 188/59/30 190/61/30 189/62/30
f 132/63/31 130/64/31 192/65/31 190/66/31 188/67/31 186/68/31 184/69/31 182/70/31 180/71/31 178/72/31 176/73/31 174/74/31 172/75/31 170/76/31 168/77/31 166/78/31 164/79/31 162/80/31 160/81/31 158/82/31 156/83/31 154/84/31 152/85/31 150/86/31 148/87/31 146/88/31 144/89/31 142/90/31 140/91/31 138/92/31 136/93/31 134/94/31
f 189/62/32 190/61/32 192/95/32 191/96/32
f 191/96/33 192/95/33 130/97/33 129/98/33
f 129/99/34 131/100/34 133/101/34 135/102/34 137/103/34 139/104/34 141/105/34 143/106/34 145/107/34 147/108/34 149/109/34 151/110/34 153/111/34 155/112/34 157/113/34 159/114/34 161/115/34 163/116/34 165/117/34 167/118/34 169/119/34 171/120/34 173/121/34 175/122/34 177/123/34 179/124/34 181/125/34 183/126/34 185/127/34 187/128/34 189/129/34 191/130/34
f 193/1/1 194/2/1 196/3/1 195/4/1
f 195/4/2 196/3/2 198/5/2 197/6/2
f 197/6/3 198/5/3 200/7/3 199/8/3
f 199/8/4 200/7/4 202/9/4 201/10/4
f 201/10/5 202/9/5 204/11/5 203/12/5
f 203/12/6 204/11/6 206/13/6 205/14/6
f 205/14/7 206/13/7 208/15/7 207/16/7
f 207/16/8 208/15/8 210/17/8 209/18/8
f 209/18/9 210/17/9 212/19/9 211/20/9
f 211/20/10 212/19/10 214/21/10 213/22/10
f 213/22/11 214/21/11 216/23/11 215/24/11
f 215/24/12 216/23/12 218/25/12 217/26/12
f 217/26/13 218/25/13 220/27/13 219/28/13
f 219/28/14 220/27/14 222/29/14 221/30/14
f 221/30/15 222/29/15 224/31/15 223/32/15
f 223/32/16 224/31/16 226/33/16 225/34/16
f 225/34/17 226/33/17 228/35/17 227/36/17
f 227/36/18 228/35/18 230/37/18 229/38/18
f 229/38/19 230/37/19 232/39/19 231/40/19
f 231/40/20 232/39/20 234/41/20 233/42/20
f 233/42/21 234/41/21 236/43/21 235/44/21
f 235/44/22 236/43/22 238/45/22 237/46/22
f 237/46/23 238/45/23 240/47/23 239/48/23
f 239/48/24 240/47/24 242/49/24 241/50/24
f 241/50/25 242/49/25 244/51/25 243/52/25
f 243/52/26 244/51/26 246/53/26 245/54/26
f 245/54/27 246/53/27 248/55/27 247/56/27
f 247/56/28 248/55/28 250/57/28 249/58/28
f 249/58/29 250/57/29 252/59/29 251/60/29
f 251/60/30 252/59/30 254/61/30 253/62/30
f 196/63/31 194/64/31 256/65/31 254/66/31 252/67/31 250/68/31 248/69/31 246/70/31 244/71/31 242/72/31 240/73/31 238/74/31 236/75/31 234/76/31 232/77/31 230/78/31 228/79/31 226/80/31 224/81/31 222/82/31 220/83/31 218/84/31 216/85/31 214/86/31 212/87/31 210/88/31 208/89/31 206/90/31 204/91/31 202/92/31 200/93/31 198/94/31
f 253/62/32 254/61/32 256/95/32 255/96/32
f 255/96/33 256/95/33 194/97/33 193/98/33
f 193/99/34 195/100/34 197/101/34 199/102/34 201/103/34 203/104/34 205/105/34 207/106/34 209/107/34 211/108/34 213/109/34 215/110/34 217/111/34 219/112/34 221/113/34 223/114/34 225/115/34 227/116/34 229/117/34 231/118/34 233/119/34 235/120/34 237/121/34 239/122/34 241/123/34 243/124/34 245/125/34 247/126/34 249/127/34 251/128/34 253/129/34 255/130/34
