# Blender 4.5.3 LTS
# www.blender.org
mtllib CadenaLinterna.mtl
o Linterna_Cadena
v -2.900097 3.490207 4.898973
v -2.900097 3.516395 4.875698
v -2.900097 3.516395 4.922247
v -2.975697 3.533854 4.898973
v -2.953017 3.546948 4.875698
v -2.953017 3.546948 4.922247
v -2.975697 3.621149 4.898973
v -2.953017 3.608055 4.875698
v -2.953017 3.608055 4.922247
v -2.900097 3.664796 4.898973
v -2.900097 3.638608 4.875698
v -2.900097 3.638608 4.922247
v -2.824498 3.621149 4.898973
v -2.847178 3.608055 4.875698
v -2.847178 3.608055 4.922247
v -2.824498 3.533854 4.898973
v -2.847178 3.546948 4.875698
v -2.847178 3.546948 4.922247
v -2.900097 3.395470 4.898973
v -2.923372 3.421658 4.898973
v -2.876823 3.421658 4.898973
v -2.900097 3.439117 4.974572
v -2.923372 3.452211 4.951892
v -2.876823 3.452211 4.951892
v -2.900097 3.526412 4.974572
v -2.923372 3.513318 4.951892
v -2.876823 3.513318 4.951892
v -2.900097 3.570059 4.898973
v -2.923372 3.543871 4.898973
v -2.876823 3.543871 4.898973
v -2.900097 3.526412 4.823373
v -2.923372 3.513318 4.846053
v -2.876823 3.513318 4.846053
v -2.900097 3.439117 4.823373
v -2.923372 3.452211 4.846053
v -2.876823 3.452211 4.846053
v -2.900097 3.301678 4.898973
v -2.900097 3.327867 4.875698
v -2.900097 3.327867 4.922247
v -2.975697 3.345326 4.898973
v -2.953017 3.358420 4.875698
v -2.953017 3.358420 4.922247
v -2.975697 3.432620 4.898973
v -2.953017 3.419526 4.875698
v -2.953017 3.419526 4.922247
v -2.900097 3.476268 4.898973
v -2.900097 3.450079 4.875698
v -2.900097 3.450079 4.922247
v -2.824498 3.432620 4.898973
v -2.847178 3.419526 4.875698
v -2.847178 3.419526 4.922247
v -2.824498 3.345326 4.898973
v -2.847178 3.358420 4.875698
v -2.847178 3.358420 4.922247
v -2.900097 3.206941 4.898973
v -2.923372 3.233130 4.898973
v -2.876823 3.233130 4.898973
v -2.900097 3.250589 4.974572
v -2.923372 3.263683 4.951892
v -2.876823 3.263683 4.951892
v -2.900097 3.337883 4.974572
v -2.923372 3.324789 4.951892
v -2.876823 3.324789 4.951892
v -2.900097 3.381531 4.898973
v -2.923372 3.355342 4.898973
v -2.876823 3.355342 4.898973
v -2.900097 3.337883 4.823373
v -2.923372 3.324789 4.846053
v -2.876823 3.324789 4.846053
v -2.900097 3.250589 4.823373
v -2.923372 3.263683 4.846053
v -2.876823 3.263683 4.846053
v -2.900097 3.113150 4.898973
v -2.900097 3.139338 4.875698
v -2.900097 3.139338 4.922247
v -2.975697 3.156797 4.898973
v -2.953017 3.169891 4.875698
v -2.953017 3.169891 4.922247
v -2.975697 3.244092 4.898973
v -2.953017 3.230998 4.875698
v -2.953017 3.230998 4.922247
v -2.900097 3.287739 4.898973
v -2.900097 3.261551 4.875698
v -2.900097 3.261551 4.922247
v -2.824498 3.244092 4.898973
v -2.847178 3.230998 4.875698
v -2.847178 3.230998 4.922247
v -2.824498 3.156797 4.898973
v -2.847178 3.169891 4.875698
v -2.847178 3.169891 4.922247
v -2.900097 3.018413 4.898973
v -2.923372 3.044601 4.898973
v -2.876823 3.044601 4.898973
v -2.900097 3.062060 4.974572
v -2.923372 3.075154 4.951892
v -2.876823 3.075154 4.951892
v -2.900097 3.149355 4.974572
v -2.923372 3.136261 4.951892
v -2.876823 3.136261 4.951892
v -2.900097 3.193002 4.898973
v -2.923372 3.166814 4.898973
v -2.876823 3.166814 4.898973
v -2.900097 3.149355 4.823373
v -2.923372 3.136261 4.846053
v -2.876823 3.136261 4.846053
v -2.900097 3.062060 4.823373
v -2.923372 3.075154 4.846053
v -2.876823 3.075154 4.846053
v -2.900097 2.924622 4.898973
v -2.900097 2.950810 4.875698
v -2.900097 2.950810 4.922247
v -2.975697 2.968269 4.898973
v -2.953017 2.981363 4.875698
v -2.953017 2.981363 4.922247
v -2.975697 3.055563 4.898973
v -2.953017 3.042469 4.875698
v -2.953017 3.042469 4.922247
v -2.900097 3.099211 4.898973
v -2.900097 3.073022 4.875698
v -2.900097 3.073022 4.922247
v -2.824498 3.055563 4.898973
v -2.847178 3.042469 4.875698
v -2.847178 3.042469 4.922247
v -2.824498 2.968269 4.898973
v -2.847178 2.981363 4.875698
v -2.847178 2.981363 4.922247
v -2.900097 2.829885 4.898973
v -2.923372 2.856073 4.898973
v -2.876823 2.856073 4.898973
v -2.900097 2.873532 4.974572
v -2.923372 2.886626 4.951892
v -2.876823 2.886626 4.951892
v -2.900097 2.960826 4.974572
v -2.923372 2.947732 4.951892
v -2.876823 2.947732 4.951892
v -2.900097 3.004474 4.898973
v -2.923372 2.978285 4.898973
v -2.876823 2.978285 4.898973
v -2.900097 2.960826 4.823373
v -2.923372 2.947732 4.846053
v -2.876823 2.947732 4.846053
v -2.900097 2.873532 4.823373
v -2.923372 2.886626 4.846053
v -2.876823 2.886626 4.846053
vn -0.8660 -0.5000 -0.0000
vn -0.0000 0.1083 -0.9941
vn -0.0000 -1.0000 -0.0000
vn 0.0938 0.0541 -0.9941
vn -0.0000 0.1083 0.9941
vn 0.0938 0.0541 0.9941
vn -0.8660 0.5000 -0.0000
vn 0.0938 -0.0541 -0.9941
vn -0.0000 -0.1083 -0.9941
vn 0.0937 -0.0541 0.9941
vn -0.0000 -0.1083 0.9941
vn -0.0000 1.0000 -0.0000
vn -0.0938 -0.0541 -0.9941
vn -0.0938 -0.0541 0.9941
vn 0.8660 -0.5000 -0.0000
vn 0.8660 0.5000 -0.0000
vn -0.0938 0.0541 -0.9941
vn -0.0938 0.0541 0.9941
vn -0.0000 -0.5000 0.8660
vn -0.9941 0.1083 -0.0000
vn -0.9941 0.0541 -0.0938
vn 0.9941 0.1083 -0.0000
vn 0.9941 0.0541 -0.0938
vn -0.0000 0.5000 0.8660
vn -0.9941 -0.0541 -0.0938
vn 0.9941 -0.0541 -0.0938
vn -0.9941 -0.1083 -0.0000
vn 0.9941 -0.1083 -0.0000
vn -0.9941 -0.0541 0.0938
vn 0.9941 -0.0541 0.0938
vn -0.0000 0.5000 -0.8660
vn -0.9941 0.0541 0.0938
vn -0.0000 -0.5000 -0.8660
vn 0.9941 0.0541 0.0938
vn 0.0937 0.0541 -0.9941
vn 0.0938 -0.0541 0.9941
vn -0.0937 -0.0541 -0.9941
vn 0.9941 0.1082 -0.0000
vn -0.9941 -0.0541 0.0937
vt 0.310176 0.621107
vt 0.311474 0.623473
vt 0.310246 0.623503
vt 0.874340 0.026846
vt 0.872573 0.024526
vt 0.874340 0.024526
vt 0.308918 0.621132
vt 0.309017 0.623533
vt 0.310198 0.618668
vt 0.311387 0.621090
vt 0.874340 0.029166
vt 0.872573 0.026846
vt 0.311753 0.616040
vt 0.311349 0.618729
vt 0.874340 0.031485
vt 0.872573 0.029166
vt 0.308637 0.615829
vt 0.308813 0.618660
vt 0.310082 0.631756
vt 0.311678 0.628346
vt 0.311854 0.631177
vt 0.874340 0.017567
vt 0.872573 0.019887
vt 0.872573 0.017567
vt 0.309142 0.628277
vt 0.308738 0.630966
vt 0.310315 0.625899
vt 0.310293 0.628337
vt 0.874340 0.022207
vt 0.874340 0.019887
vt 0.311573 0.625874
vt 0.872573 0.022207
vt 0.309104 0.625916
vt 0.981128 0.491301
vt 0.983493 0.490002
vt 0.983524 0.491231
vt 0.914723 0.112964
vt 0.912403 0.114731
vt 0.912403 0.112964
vt 0.981153 0.492558
vt 0.983554 0.492460
vt 0.978689 0.491279
vt 0.981111 0.490089
vt 0.917043 0.112964
vt 0.914723 0.114731
vt 0.978681 0.492663
vt 0.975270 0.491067
vt 0.978749 0.490127
vt 0.919362 0.112964
vt 0.917043 0.114731
vt 0.975850 0.492840
vt 0.991777 0.491395
vt 0.988366 0.489799
vt 0.991197 0.489622
vt 0.907764 0.112964
vt 0.905444 0.114731
vt 0.905444 0.112964
vt 0.988298 0.492334
vt 0.990986 0.492738
vt 0.988358 0.491183
vt 0.985894 0.489904
vt 0.910084 0.112964
vt 0.907764 0.114731
vt 0.985919 0.491161
vt 0.910084 0.114731
vt 0.985936 0.492373
vt 0.992264 0.465470
vt 0.993564 0.467835
vt 0.992335 0.467866
vt 0.907314 0.373651
vt 0.909081 0.375970
vt 0.907314 0.375970
vt 0.991007 0.465496
vt 0.991107 0.467897
vt 0.993436 0.463091
vt 0.993476 0.465452
vt 0.907314 0.371331
vt 0.909081 0.373651
vt 0.990900 0.463024
vt 0.992285 0.463032
vt 0.993838 0.460402
vt 0.907314 0.369011
vt 0.909081 0.371331
vt 0.990722 0.460193
vt 0.992386 0.472700
vt 0.993949 0.475539
vt 0.992177 0.476120
vt 0.907314 0.380610
vt 0.909081 0.382929
vt 0.907314 0.382929
vt 0.991235 0.472641
vt 0.990833 0.475330
vt 0.992407 0.470262
vt 0.993771 0.472708
vt 0.907314 0.378290
vt 0.909081 0.380610
vt 0.991195 0.470280
vt 0.993664 0.470236
vt 0.909081 0.378290
vt 0.684945 0.422682
vt 0.683805 0.425096
vt 0.683717 0.422713
vt 0.907312 0.398757
vt 0.909079 0.401077
vt 0.907312 0.401077
vt 0.686274 0.425052
vt 0.686174 0.422651
vt 0.685017 0.425078
vt 0.683845 0.427457
vt 0.907312 0.396438
vt 0.909079 0.398757
vt 0.686381 0.427524
vt 0.684996 0.427516
vt 0.683443 0.430146
vt 0.907312 0.394118
vt 0.909079 0.396438
vt 0.686559 0.430355
vt 0.684895 0.417848
vt 0.683332 0.415009
vt 0.685104 0.414428
vt 0.907312 0.408036
vt 0.909079 0.405716
vt 0.909079 0.408036
vt 0.686448 0.415218
vt 0.684874 0.420286
vt 0.683510 0.417840
vt 0.907312 0.403397
vt 0.907312 0.405716
vt 0.686046 0.417907
vt 0.683617 0.420312
vt 0.909079 0.403397
vt 0.686086 0.420268
vt 0.875625 0.415035
vt 0.874326 0.412669
vt 0.875555 0.412639
vt 0.967224 0.549370
vt 0.968991 0.551690
vt 0.967224 0.551690
vt 0.876784 0.412609
vt 0.875602 0.417474
vt 0.874413 0.415052
vt 0.967224 0.547050
vt 0.968991 0.549370
vt 0.876882 0.415011
vt 0.875389 0.420893
vt 0.874450 0.417413
vt 0.967224 0.544731
vt 0.968991 0.547050
vt 0.877162 0.420314
vt 0.876986 0.417482
vt 0.875509 0.407805
vt 0.873949 0.404965
vt 0.875722 0.404386
vt 0.967224 0.556329
vt 0.968991 0.558649
vt 0.967224 0.558649
vt 0.877065 0.405177
vt 0.874229 0.410268
vt 0.874124 0.407796
vt 0.967224 0.554009
vt 0.968991 0.556329
vt 0.876698 0.410227
vt 0.876660 0.407865
vt 0.875486 0.410243
vt 0.968991 0.554009
vt 0.911312 0.019301
vt 0.913725 0.020443
vt 0.911342 0.020530
vt 0.967219 0.571777
vt 0.968986 0.569458
vt 0.968986 0.571777
vt 0.913683 0.017974
vt 0.911282 0.018072
vt 0.916147 0.019255
vt 0.913708 0.019232
vt 0.967219 0.567138
vt 0.967219 0.569458
vt 0.916155 0.017870
vt 0.918774 0.020810
vt 0.916086 0.020406
vt 0.967219 0.564818
vt 0.968986 0.567138
vt 0.918986 0.017694
vt 0.903059 0.019134
vt 0.906469 0.020731
vt 0.903638 0.020907
vt 0.967219 0.576417
vt 0.968986 0.578736
vt 0.967219 0.578736
vt 0.903850 0.017791
vt 0.906478 0.019347
vt 0.908941 0.020627
vt 0.967219 0.574097
vt 0.968986 0.576417
vt 0.906538 0.018196
vt 0.908916 0.019370
vt 0.968986 0.574097
vt 0.908899 0.018158
vt 0.967182 0.636838
vt 0.969594 0.637980
vt 0.967211 0.638067
vt 0.718324 0.579112
vt 0.716557 0.576792
vt 0.718324 0.576792
vt 0.969553 0.635511
vt 0.967152 0.635609
vt 0.969577 0.636769
vt 0.971956 0.637943
vt 0.718324 0.581432
vt 0.716557 0.579112
vt 0.972025 0.635407
vt 0.972016 0.636791
vt 0.974644 0.638347
vt 0.718324 0.583751
vt 0.716557 0.581432
vt 0.974856 0.635231
vt 0.962347 0.636884
vt 0.959507 0.638444
vt 0.958928 0.636672
vt 0.718324 0.572153
vt 0.716557 0.569833
vt 0.718324 0.569833
vt 0.959719 0.635329
vt 0.964786 0.636907
vt 0.962338 0.638269
vt 0.718324 0.574473
vt 0.716557 0.572153
vt 0.962407 0.635733
vt 0.964810 0.638164
vt 0.716557 0.574473
vt 0.964769 0.635695
vt 0.924314 0.641782
vt 0.921949 0.643082
vt 0.921919 0.641853
vt 0.883650 0.564811
vt 0.881331 0.566578
vt 0.881331 0.564811
vt 0.924289 0.640525
vt 0.921888 0.640624
vt 0.926753 0.641804
vt 0.924332 0.642994
vt 0.885970 0.564811
vt 0.883650 0.566578
vt 0.926761 0.640420
vt 0.930172 0.642015
vt 0.926693 0.642955
vt 0.888290 0.566578
vt 0.885970 0.566578
vt 0.913665 0.641690
vt 0.917076 0.643286
vt 0.914245 0.643463
vt 0.874372 0.564811
vt 0.876691 0.566578
vt 0.874372 0.566578
vt 0.917144 0.640750
vt 0.914455 0.640347
vt 0.917084 0.641901
vt 0.919548 0.643180
vt 0.879011 0.564811
vt 0.876691 0.564811
vt 0.919506 0.640711
vt 0.919523 0.641923
vt 0.879011 0.566578
vt 0.310409 0.615249
vt 0.872573 0.031485
vt 0.976061 0.489724
vt 0.919362 0.114731
vt 0.992494 0.459612
vt 0.909081 0.369011
vt 0.684787 0.430936
vt 0.909079 0.394118
vt 0.874046 0.420102
vt 0.968991 0.544731
vt 0.919566 0.019467
vt 0.968986 0.564818
vt 0.975435 0.637004
vt 0.716557 0.583751
vt 0.929382 0.643359
vt 0.888290 0.564811
vt 0.929592 0.640243
s 1
usemtl Material.053
f 4/1/1 2/2/2 1/3/3
f 5/4/4 3/5/5 2/6/2
f 6/7/6 1/3/3 3/8/5
f 7/9/7 5/10/4 4/1/1
f 8/11/8 6/12/6 5/4/4
f 6/7/6 7/9/7 4/1/1
f 7/9/7 11/13/9 8/14/8
f 11/15/9 9/16/10 8/11/8
f 12/17/11 7/9/7 9/18/10
f 10/19/12 14/20/13 11/21/9
f 11/22/9 15/23/14 12/24/11
f 15/25/14 10/19/12 12/26/11
f 16/27/15 14/20/13 13/28/16
f 17/29/17 15/23/14 14/30/13
f 15/25/14 16/27/15 13/28/16
f 1/3/3 17/31/17 16/27/15
f 2/6/2 18/32/18 17/29/17
f 18/33/18 1/3/3 16/27/15
f 22/34/19 20/35/20 19/36/3
f 23/37/21 21/38/22 20/39/20
f 24/40/23 19/36/3 21/41/22
f 25/42/24 23/43/21 22/34/19
f 26/44/25 24/45/23 23/37/21
f 27/46/26 22/34/19 24/40/23
f 28/47/12 26/48/25 25/42/24
f 29/49/27 27/50/26 26/44/25
f 30/51/28 25/42/24 27/46/26
f 28/52/12 32/53/29 29/54/27
f 32/55/29 30/56/28 29/57/27
f 33/58/30 28/52/12 30/59/28
f 31/60/31 35/61/32 32/53/29
f 35/62/32 33/63/30 32/55/29
f 33/58/30 34/64/33 31/60/31
f 19/36/3 35/61/32 34/64/33
f 20/39/20 36/65/34 35/62/32
f 36/66/34 19/36/3 34/64/33
f 40/67/1 38/68/2 37/69/3
f 41/70/35 39/71/5 38/72/2
f 42/73/6 37/69/3 39/74/5
f 40/67/1 44/75/8 41/76/35
f 44/77/8 42/78/6 41/70/35
f 45/79/36 40/67/1 42/73/6
f 43/80/7 47/81/9 44/75/8
f 47/82/9 45/83/36 44/77/8
f 48/84/11 43/80/7 45/79/36
f 49/85/16 47/86/9 46/87/12
f 50/88/13 48/89/11 47/90/9
f 51/91/14 46/87/12 48/92/11
f 52/93/15 50/94/13 49/85/16
f 53/95/17 51/96/14 50/88/13
f 54/97/18 49/85/16 51/91/14
f 52/93/15 38/68/2 53/98/17
f 38/72/2 54/99/18 53/95/17
f 39/74/5 52/93/15 54/97/18
f 55/100/3 59/101/21 56/102/20
f 59/103/21 57/104/22 56/105/20
f 60/106/23 55/100/3 57/107/22
f 58/108/19 62/109/25 59/101/21
f 62/110/25 60/111/23 59/103/21
f 63/112/26 58/108/19 60/106/23
f 61/113/24 65/114/27 62/109/25
f 65/115/27 63/116/26 62/110/25
f 66/117/28 61/113/24 63/112/26
f 67/118/31 65/119/27 64/120/12
f 65/121/27 69/122/30 66/123/28
f 66/124/28 67/118/31 64/120/12
f 70/125/33 68/126/29 67/118/31
f 71/127/32 69/122/30 68/128/29
f 69/129/30 70/125/33 67/118/31
f 55/100/3 71/130/32 70/125/33
f 56/105/20 72/131/34 71/127/32
f 72/132/34 55/100/3 70/125/33
f 76/133/1 74/134/2 73/135/3
f 77/136/4 75/137/5 74/138/2
f 75/139/5 76/133/1 73/135/3
f 79/140/7 77/141/4 76/133/1
f 80/142/8 78/143/6 77/136/4
f 78/144/6 79/140/7 76/133/1
f 82/145/12 80/146/8 79/140/7
f 83/147/9 81/148/10 80/142/8
f 84/149/11 79/140/7 81/150/10
f 85/151/16 83/152/9 82/153/12
f 86/154/37 84/155/11 83/156/9
f 84/157/11 85/151/16 82/153/12
f 85/151/16 89/158/17 86/159/37
f 89/160/17 87/161/14 86/154/37
f 90/162/18 85/151/16 87/163/14
f 88/164/15 74/134/2 89/158/17
f 74/138/2 90/165/18 89/160/17
f 75/139/5 88/164/15 90/162/18
f 91/166/3 95/167/21 92/168/20
f 92/169/20 96/170/23 93/171/38
f 96/172/23 91/166/3 93/173/38
f 97/174/24 95/167/21 94/175/19
f 98/176/25 96/170/23 95/177/21
f 99/178/26 94/175/19 96/172/23
f 97/174/24 101/179/27 98/180/25
f 101/181/27 99/182/26 98/176/25
f 102/183/28 97/174/24 99/178/26
f 100/184/12 104/185/29 101/186/27
f 104/187/29 102/188/28 101/189/27
f 102/190/28 103/191/31 100/184/12
f 103/191/31 107/192/32 104/185/29
f 107/193/32 105/194/30 104/187/29
f 105/195/30 106/196/33 103/191/31
f 91/166/3 107/192/32 106/196/33
f 92/169/20 108/197/34 107/193/32
f 108/198/34 91/166/3 106/196/33
f 109/199/3 113/200/4 110/201/2
f 113/202/4 111/203/5 110/204/2
f 114/205/6 109/199/3 111/206/5
f 112/207/1 116/208/8 113/200/4
f 116/209/8 114/210/6 113/202/4
f 117/211/36 112/207/1 114/205/6
f 115/212/7 119/213/9 116/208/8
f 119/214/9 117/215/36 116/209/8
f 120/216/11 115/212/7 117/211/36
f 121/217/16 119/218/9 118/219/12
f 122/220/13 120/221/11 119/222/9
f 120/223/11 121/217/16 118/219/12
f 124/224/15 122/225/13 121/217/16
f 125/226/17 123/227/14 122/220/13
f 123/228/14 124/224/15 121/217/16
f 109/199/3 125/229/17 124/224/15
f 110/204/2 126/230/18 125/226/17
f 126/231/18 109/199/3 124/224/15
f 130/232/19 128/233/20 127/234/3
f 131/235/21 129/236/22 128/237/20
f 132/238/23 127/234/3 129/239/22
f 133/240/24 131/241/21 130/232/19
f 134/242/25 132/243/23 131/235/21
f 135/244/26 130/232/19 132/238/23
f 136/245/12 134/246/25 133/240/24
f 134/242/25 138/247/28 135/248/26
f 135/244/26 136/245/12 133/240/24
f 136/249/12 140/250/39 137/251/27
f 137/252/27 141/253/30 138/254/28
f 141/255/30 136/249/12 138/256/28
f 139/257/31 143/258/32 140/250/39
f 143/259/32 141/253/30 140/260/39
f 144/261/34 139/257/31 141/255/30
f 127/234/3 143/258/32 142/262/33
f 128/237/20 144/263/34 143/259/32
f 144/261/34 127/234/3 142/262/33
f 4/1/1 5/10/4 2/2/2
f 5/4/4 6/12/6 3/5/5
f 6/7/6 4/1/1 1/3/3
f 7/9/7 8/14/8 5/10/4
f 8/11/8 9/16/10 6/12/6
f 6/7/6 9/18/10 7/9/7
f 7/9/7 10/264/12 11/13/9
f 11/15/9 12/265/11 9/16/10
f 12/17/11 10/264/12 7/9/7
f 10/19/12 13/28/16 14/20/13
f 11/22/9 14/30/13 15/23/14
f 15/25/14 13/28/16 10/19/12
f 16/27/15 17/31/17 14/20/13
f 17/29/17 18/32/18 15/23/14
f 15/25/14 18/33/18 16/27/15
f 1/3/3 2/2/2 17/31/17
f 2/6/2 3/5/5 18/32/18
f 18/33/18 3/8/5 1/3/3
f 22/34/19 23/43/21 20/35/20
f 23/37/21 24/45/23 21/38/22
f 24/40/23 22/34/19 19/36/3
f 25/42/24 26/48/25 23/43/21
f 26/44/25 27/50/26 24/45/23
f 27/46/26 25/42/24 22/34/19
f 28/47/12 29/266/27 26/48/25
f 29/49/27 30/267/28 27/50/26
f 30/51/28 28/47/12 25/42/24
f 28/52/12 31/60/31 32/53/29
f 32/55/29 33/63/30 30/56/28
f 33/58/30 31/60/31 28/52/12
f 31/60/31 34/64/33 35/61/32
f 35/62/32 36/65/34 33/63/30
f 33/58/30 36/66/34 34/64/33
f 19/36/3 20/35/20 35/61/32
f 20/39/20 21/38/22 36/65/34
f 36/66/34 21/41/22 19/36/3
f 40/67/1 41/76/35 38/68/2
f 41/70/35 42/78/6 39/71/5
f 42/73/6 40/67/1 37/69/3
f 40/67/1 43/80/7 44/75/8
f 44/77/8 45/83/36 42/78/6
f 45/79/36 43/80/7 40/67/1
f 43/80/7 46/268/12 47/81/9
f 47/82/9 48/269/11 45/83/36
f 48/84/11 46/268/12 43/80/7
f 49/85/16 50/94/13 47/86/9
f 50/88/13 51/96/14 48/89/11
f 51/91/14 49/85/16 46/87/12
f 52/93/15 53/98/17 50/94/13
f 53/95/17 54/99/18 51/96/14
f 54/97/18 52/93/15 49/85/16
f 52/93/15 37/69/3 38/68/2
f 38/72/2 39/71/5 54/99/18
f 39/74/5 37/69/3 52/93/15
f 55/100/3 58/108/19 59/101/21
f 59/103/21 60/111/23 57/104/22
f 60/106/23 58/108/19 55/100/3
f 58/108/19 61/113/24 62/109/25
f 62/110/25 63/116/26 60/111/23
f 63/112/26 61/113/24 58/108/19
f 61/113/24 64/270/12 65/114/27
f 65/115/27 66/271/28 63/116/26
f 66/117/28 64/270/12 61/113/24
f 67/118/31 68/126/29 65/119/27
f 65/121/27 68/128/29 69/122/30
f 66/124/28 69/129/30 67/118/31
f 70/125/33 71/130/32 68/126/29
f 71/127/32 72/131/34 69/122/30
f 69/129/30 72/132/34 70/125/33
f 55/100/3 56/102/20 71/130/32
f 56/105/20 57/104/22 72/131/34
f 72/132/34 57/107/22 55/100/3
f 76/133/1 77/141/4 74/134/2
f 77/136/4 78/143/6 75/137/5
f 75/139/5 78/144/6 76/133/1
f 79/140/7 80/146/8 77/141/4
f 80/142/8 81/148/10 78/143/6
f 78/144/6 81/150/10 79/140/7
f 82/145/12 83/272/9 80/146/8
f 83/147/9 84/273/11 81/148/10
f 84/149/11 82/145/12 79/140/7
f 85/151/16 86/159/37 83/152/9
f 86/154/37 87/161/14 84/155/11
f 84/157/11 87/163/14 85/151/16
f 85/151/16 88/164/15 89/158/17
f 89/160/17 90/165/18 87/161/14
f 90/162/18 88/164/15 85/151/16
f 88/164/15 73/135/3 74/134/2
f 74/138/2 75/137/5 90/165/18
f 75/139/5 73/135/3 88/164/15
f 91/166/3 94/175/19 95/167/21
f 92/169/20 95/177/21 96/170/23
f 96/172/23 94/175/19 91/166/3
f 97/174/24 98/180/25 95/167/21
f 98/176/25 99/182/26 96/170/23
f 99/178/26 97/174/24 94/175/19
f 97/174/24 100/274/12 101/179/27
f 101/181/27 102/275/28 99/182/26
f 102/183/28 100/274/12 97/174/24
f 100/184/12 103/191/31 104/185/29
f 104/187/29 105/194/30 102/188/28
f 102/190/28 105/195/30 103/191/31
f 103/191/31 106/196/33 107/192/32
f 107/193/32 108/197/34 105/194/30
f 105/195/30 108/198/34 106/196/33
f 91/166/3 92/168/20 107/192/32
f 92/169/20 93/171/38 108/197/34
f 108/198/34 93/173/38 91/166/3
f 109/199/3 112/207/1 113/200/4
f 113/202/4 114/210/6 111/203/5
f 114/205/6 112/207/1 109/199/3
f 112/207/1 115/212/7 116/208/8
f 116/209/8 117/215/36 114/210/6
f 117/211/36 115/212/7 112/207/1
f 115/212/7 118/276/12 119/213/9
f 119/214/9 120/277/11 117/215/36
f 120/216/11 118/276/12 115/212/7
f 121/217/16 122/225/13 119/218/9
f 122/220/13 123/227/14 120/221/11
f 120/223/11 123/228/14 121/217/16
f 124/224/15 125/229/17 122/225/13
f 125/226/17 126/230/18 123/227/14
f 123/228/14 126/231/18 124/224/15
f 109/199/3 110/201/2 125/229/17
f 110/204/2 111/203/5 126/230/18
f 126/231/18 111/206/5 109/199/3
f 130/232/19 131/241/21 128/233/20
f 131/235/21 132/243/23 129/236/22
f 132/238/23 130/232/19 127/234/3
f 133/240/24 134/246/25 131/241/21
f 134/242/25 135/248/26 132/243/23
f 135/244/26 133/240/24 130/232/19
f 136/245/12 137/278/27 134/246/25
f 134/242/25 137/279/27 138/247/28
f 135/244/26 138/280/28 136/245/12
f 136/249/12 139/257/31 140/250/39
f 137/252/27 140/260/39 141/253/30
f 141/255/30 139/257/31 136/249/12
f 139/257/31 142/262/33 143/258/32
f 143/259/32 144/263/34 141/253/30
f 144/261/34 142/262/33 139/257/31
f 127/234/3 128/233/20 143/258/32
f 128/237/20 129/236/22 144/263/34
f 144/261/34 129/239/22 127/234/3
