# Blender 4.5.3 LTS
# www.blender.org
mtllib Campana.mtl
o Humeador
v 0.144073 2.211651 1.793255
v 0.144073 2.211651 1.533952
v 0.518881 2.211651 1.793255
v 0.518881 2.211651 1.533952
v -0.250862 1.972182 1.260725
v -0.250862 1.972182 2.066482
v 0.913817 1.972182 1.260725
v 0.913817 1.972182 2.066482
v 0.176882 2.211651 1.770557
v 0.176882 2.211651 1.556650
v 0.486073 2.211651 1.770557
v 0.486073 2.211651 1.556650
v -0.192870 1.863216 1.300845
v -0.192870 1.863216 2.026362
v 0.855825 1.863216 1.300845
v 0.855825 1.863216 2.026362
v 0.176882 2.321578 1.770557
v 0.176882 2.321578 1.556650
v 0.486073 2.321578 1.556650
v 0.486073 2.321578 1.770557
v 0.209231 3.384140 1.748177
v 0.209231 3.384140 1.579030
v 0.453724 3.384140 1.748177
v 0.453724 3.384140 1.579030
v 0.209231 2.347268 1.748177
v 0.209231 2.347268 1.579030
v 0.453724 2.347268 1.579030
v 0.453724 2.347268 1.748177
v -0.250862 1.863216 1.260725
v -0.250862 1.863216 2.066482
v 0.913817 1.863216 1.260725
v 0.913817 1.863216 2.066482
v 0.168257 2.117016 1.550683
v 0.168257 2.117016 1.776524
v 0.494698 2.117016 1.550683
v 0.494698 2.117016 1.776524
vn -0.0000 1.0000 -0.0000
vn -0.0000 0.7520 0.6591
vn -1.0000 -0.0000 -0.0000
vn -0.0000 0.7520 -0.6591
vn -0.5185 0.8551 -0.0000
vn 0.5185 0.8551 -0.0000
vn -0.0000 0.6569 0.7540
vn -0.0000 0.6569 -0.7540
vn -0.0000 -0.7015 -0.7126
vn -0.0000 -0.0000 1.0000
vn -0.0000 -0.0000 -1.0000
vn 1.0000 -0.0000 -0.0000
vn -0.6219 0.7831 -0.0000
vn 0.6219 0.7831 -0.0000
vn -0.0000 -1.0000 -0.0000
vn -0.0000 -0.7015 0.7126
vn -0.5750 -0.8182 -0.0000
vn 0.5750 -0.8182 -0.0000
vt 0.838879 0.326170
vt 0.807351 0.328263
vt 0.804327 0.326170
vt 0.685202 0.712521
vt 0.637682 0.650078
vt 0.678015 0.678724
vt 0.920213 0.637732
vt 0.910167 0.563452
vt 0.920213 0.563452
vt 0.716293 0.678724
vt 0.734295 0.755099
vt 0.709107 0.712521
vt 0.660014 0.755099
vt 0.705536 0.619855
vt 0.699852 0.668997
vt 0.959244 0.956431
vt 0.976812 0.975209
vt 0.976029 0.979469
vt 0.994779 0.973363
vt 0.991638 0.947841
vt 0.994779 0.944859
vt 0.838879 0.350075
vt 0.835854 0.328263
vt 0.804326 0.326170
vt 0.807351 0.347982
vt 0.804326 0.350075
vt 0.835854 0.347982
vt 0.360876 0.845768
vt 0.293415 0.814575
vt 0.321095 0.816712
vt 0.910167 0.456083
vt 0.920213 0.456083
vt 0.920213 0.745102
vt 0.910167 0.637732
vt 0.910167 0.381803
vt 0.920213 0.381803
vt 0.984369 0.079252
vt 0.994503 0.050749
vt 0.994503 0.079252
vt 0.984369 0.098972
vt 0.994503 0.098972
vt 0.984369 0.031030
vt 0.994503 0.002526
vt 0.994503 0.031030
vt 0.984369 0.050749
vt 0.644080 0.937563
vt 0.628487 0.841976
vt 0.644080 0.841976
vt 0.628487 0.937563
vt 0.605948 0.841976
vt 0.682212 0.937563
vt 0.666619 0.841976
vt 0.682212 0.841976
vt 0.666619 0.937563
vt 0.991638 0.970381
vt 0.970804 0.940455
vt 0.963539 0.956992
vt 0.467946 0.795112
vt 0.473292 0.865696
vt 0.467946 0.861997
vt 0.365922 0.865696
vt 0.371269 0.861997
vt 0.371273 0.861994
vt 0.365927 0.791414
vt 0.371273 0.795112
vt 0.473292 0.791413
vt 0.882451 0.644763
vt 0.903271 0.674857
vt 0.882451 0.674857
vt 0.360626 0.766128
vt 0.295469 0.795185
vt 0.255689 0.766128
vt 0.323150 0.797321
vt 0.255938 0.845768
vt 0.756627 0.650078
vt 0.807351 0.328263
vt 0.910168 0.745102
vt 0.984369 0.002526
vt 0.605948 0.937563
vt 0.972680 0.944359
vt 0.365927 0.865692
vt 0.903271 0.644763
s 1
usemtl Material.053
f 2/1/1 12/2/1 4/3/1
f 1/4/2 8/5/2 3/6/2
f 5/7/3 30/8/3 6/9/3
f 4/10/4 5/11/4 2/12/4
f 2/12/5 6/13/5 1/4/5
f 3/6/6 7/14/6 4/15/6
f 20/16/7 25/17/7 17/18/7
f 18/19/8 27/20/8 19/21/8
f 1/22/1 10/23/1 2/1/1
f 4/24/1 11/25/1 3/26/1
f 3/26/1 9/27/1 1/22/1
f 16/28/9 34/29/9 36/30/9
f 6/9/10 32/31/10 8/32/10
f 7/33/11 29/34/11 5/7/11
f 8/32/12 31/35/12 7/36/12
f 20/37/10 9/38/10 11/39/10
f 19/40/12 11/39/12 12/41/12
f 18/42/11 12/43/11 10/44/11
f 17/45/3 10/44/3 9/38/3
f 21/46/3 26/47/3 25/48/3
f 22/49/11 27/50/11 26/47/11
f 24/51/12 28/52/12 27/53/12
f 23/54/10 25/48/10 28/52/10
f 17/18/13 26/55/13 18/19/13
f 19/56/14 28/57/14 20/16/14
f 14/58/15 29/59/15 13/60/15
f 13/60/15 31/61/15 15/62/15
f 15/63/15 32/64/15 16/65/15
f 16/65/15 30/66/15 14/58/15
f 35/67/15 34/68/15 33/69/15
f 15/70/16 33/71/16 13/72/16
f 15/70/17 36/30/17 35/73/17
f 14/74/18 33/71/18 34/29/18
f 2/1/1 10/23/1 12/2/1
f 1/4/2 6/13/2 8/5/2
f 5/7/3 29/34/3 30/8/3
f 4/10/4 7/75/4 5/11/4
f 2/12/5 5/11/5 6/13/5
f 3/6/6 8/5/6 7/14/6
f 20/16/7 28/57/7 25/17/7
f 18/19/8 26/55/8 27/20/8
f 1/22/1 9/27/1 10/23/1
f 4/24/1 12/76/1 11/25/1
f 3/26/1 11/25/1 9/27/1
f 16/28/9 14/74/9 34/29/9
f 6/9/10 30/8/10 32/31/10
f 7/33/11 31/77/11 29/34/11
f 8/32/12 32/31/12 31/35/12
f 20/37/10 17/45/10 9/38/10
f 19/40/12 20/37/12 11/39/12
f 18/42/11 19/78/11 12/43/11
f 17/45/3 18/42/3 10/44/3
f 21/46/3 22/49/3 26/47/3
f 22/49/11 24/79/11 27/50/11
f 24/51/12 23/54/12 28/52/12
f 23/54/10 21/46/10 25/48/10
f 17/18/13 25/17/13 26/55/13
f 19/56/14 27/80/14 28/57/14
f 14/58/15 30/66/15 29/59/15
f 13/60/15 29/59/15 31/61/15
f 15/63/15 31/81/15 32/64/15
f 16/65/15 32/64/15 30/66/15
f 35/67/15 36/82/15 34/68/15
f 15/70/16 35/73/16 33/71/16
f 15/70/17 16/28/17 36/30/17
f 14/74/18 13/72/18 33/71/18
