# Blender 4.5.3 LTS
# www.blender.org
mtllib Cortinas.mtl
o Cortina_Puerta
v 1.361337 1.420168 -0.957106
v 1.348408 1.420168 -1.272533
v 1.361022 2.500332 -0.957169
v 1.343526 2.500332 -1.331776
v 1.351746 2.284299 -0.959033
v 1.378955 2.068266 -0.953564
v 1.384273 1.852234 -0.952495
v 1.359028 1.636201 -0.957570
v 1.359258 1.636201 -1.321257
v 1.382948 1.852234 -1.339700
v 1.373119 2.068266 -1.337725
v 1.363718 2.284299 -1.335835
v 1.390471 1.420168 -1.082125
v 1.376042 1.420168 -1.208901
v 1.391055 2.500332 -1.210395
v 1.407084 2.500332 -1.080472
v 1.381867 1.636201 -1.209481
v 1.400642 1.636201 -1.081113
v 1.387553 1.852234 -1.210046
v 1.412107 1.852234 -1.079973
v 1.400779 2.068266 -1.211362
v 1.401030 2.068266 -1.081075
v 1.372663 2.284299 -1.208565
v 1.381914 2.284299 -1.082977
v 1.354449 1.420168 -1.376695
v 1.380409 1.420168 -1.757395
v 1.358379 2.500332 -1.375905
v 1.368955 2.500332 -1.755093
v 1.364828 2.284299 -1.374609
v 1.375660 2.068266 -1.372432
v 1.387336 1.852234 -1.370085
v 1.361584 1.636201 -1.375261
v 1.375087 1.636201 -1.756325
v 1.385313 1.852234 -1.758381
v 1.381137 2.068266 -1.757541
v 1.361545 2.284299 -1.753603
v 1.393748 1.420168 -1.500005
v 1.394564 1.420168 -1.628949
v 1.392871 2.500332 -1.628781
v 1.393776 2.500332 -1.500002
v 1.398888 1.636201 -1.629379
v 1.398597 1.636201 -1.499522
v 1.380317 1.852234 -1.627532
v 1.381483 1.852234 -1.501225
v 1.378339 2.068266 -1.627335
v 1.377240 2.068266 -1.501647
v 1.399359 2.284299 -1.629426
v 1.388195 2.284299 -1.500557
v 1.382439 1.420168 -1.835884
v 1.361468 1.420168 -2.171793
v 1.370368 2.500332 -1.791701
v 1.363716 2.500332 -2.172245
v 1.354028 2.284299 -1.794985
v 1.373601 2.068266 -1.791051
v 1.383209 1.852234 -1.789119
v 1.386263 1.636201 -1.805794
v 1.370849 1.636201 -2.173679
v 1.371911 1.852234 -2.173892
v 1.361053 2.068266 -2.171710
v 1.371966 2.284299 -2.173903
v 1.394782 1.420168 -1.918107
v 1.385272 1.420168 -2.046230
v 1.385445 2.500332 -2.046247
v 1.391704 2.500332 -1.918413
v 1.390946 1.636201 -2.046794
v 1.392775 1.636201 -1.918307
v 1.392032 1.852234 -2.046902
v 1.389895 1.852234 -1.918593
v 1.391465 2.068266 -2.046846
v 1.398986 2.068266 -1.917689
v 1.393071 2.284299 -2.047006
v 1.373834 2.284299 -1.920191
v 1.329989 2.476387 -0.908658
v 1.329989 2.476387 -2.202530
v 1.342651 2.443982 -0.908658
v 1.342651 2.443982 -2.202530
v 1.373222 2.430559 -0.908658
v 1.373222 2.430559 -2.202530
v 1.403793 2.443982 -0.908658
v 1.403793 2.443982 -2.202530
v 1.416456 2.476387 -0.908658
v 1.416456 2.476387 -2.202530
vn 0.9930 0.0377 -0.1118
vn 0.9646 -0.0199 -0.2630
vn 0.9674 -0.0938 -0.2351
vn 0.9397 -0.0467 -0.3388
vn 0.9829 -0.0430 -0.1793
vn 0.9655 -0.0267 -0.2589
vn 0.9833 -0.0736 -0.1664
vn 0.9924 -0.0276 -0.1198
vn 0.9869 0.0383 -0.1566
vn 0.9930 0.0274 -0.1145
vn 0.9813 0.0637 0.1819
vn 0.9959 0.0161 0.0892
vn 0.9708 0.0418 0.2363
vn 0.9963 0.0477 0.0716
vn 0.9742 -0.0174 0.2249
vn 0.9999 -0.0009 0.0148
vn 0.9955 -0.0570 0.0756
vn 0.9506 -0.0714 0.3020
vn 0.9974 -0.0222 0.0692
vn 0.9738 0.0109 0.2269
vn 0.9470 -0.0884 0.3090
vn 0.9864 -0.1163 0.1160
vn 0.9760 -0.0114 -0.2176
vn 0.9950 -0.0089 -0.0997
vn 0.9940 -0.0334 -0.1043
vn 0.9979 -0.0056 -0.0652
vn 0.9912 0.0172 -0.1309
vn 0.9953 0.0325 -0.0910
vn 0.9996 0.0285 -0.0044
vn 0.9984 0.0511 0.0245
vn 1.0000 -0.0064 -0.0061
vn 0.9997 -0.0010 0.0241
vn 0.9883 0.0079 0.1521
vn 0.9992 0.0410 0.0018
vn 0.9914 -0.0277 0.1278
vn 0.9997 0.0231 0.0079
vn 0.9985 -0.0315 -0.0446
vn 0.9729 -0.0095 0.2308
vn 0.9891 0.0293 0.1441
vn 0.9879 -0.0254 0.1527
vn 0.9522 -0.0335 0.3035
vn 0.9703 -0.0056 0.2417
vn 0.9905 -0.0259 0.1349
vn 0.9840 0.0067 -0.1782
vn 0.9973 -0.0016 -0.0732
vn 0.9999 0.0139 -0.0073
vn 0.9932 -0.0207 -0.1143
vn 0.9867 -0.0189 -0.1617
vn 0.9965 -0.0127 -0.0828
vn 0.9853 0.0075 -0.1709
vn 0.9975 -0.0012 -0.0702
vn 0.9940 0.0111 -0.1091
vn 0.9854 0.0483 0.1633
vn 0.9925 0.0129 0.1216
vn 0.9877 0.0076 0.1562
vn 0.9969 0.0368 0.0699
vn 0.9993 0.0033 0.0382
vn 0.9983 0.0279 0.0515
vn 0.9984 -0.0053 0.0566
vn 0.9998 -0.0010 0.0220
vn 0.9927 -0.0015 0.1205
vn 0.9993 0.0093 0.0375
vn 0.9835 -0.0806 0.1621
vn 0.9948 -0.0828 0.0589
vn -0.9314 -0.3640 -0.0000
vn -0.7274 -0.6862 -0.0000
vn -0.0000 -1.0000 -0.0000
vn 0.7274 -0.6862 -0.0000
vn 0.9314 -0.3640 -0.0000
vn 0.9952 0.0689 -0.0699
vn 0.9989 -0.0312 -0.0355
vn 0.9819 -0.0350 -0.1859
vn 0.9937 0.0250 -0.1095
vn 0.9992 -0.0138 0.0381
vn 0.9847 0.0389 -0.1698
vn 0.9815 -0.0442 -0.1861
vn 0.9716 -0.0001 -0.2366
vt 0.516791 0.900719
vt 0.537198 0.887523
vt 0.537544 0.900603
vt 0.434511 0.893873
vt 0.455089 0.900670
vt 0.434625 0.900822
vt 0.455020 0.889229
vt 0.475583 0.900571
vt 0.496104 0.887772
vt 0.496025 0.900707
vt 0.496015 0.926714
vt 0.516813 0.913638
vt 0.516757 0.926654
vt 0.495950 0.913724
vt 0.475563 0.926832
vt 0.475573 0.913799
vt 0.455178 0.913698
vt 0.454956 0.926780
vt 0.434712 0.913603
vt 0.434523 0.926473
vt 0.537337 0.926967
vt 0.537749 0.913753
vt 0.347241 0.911473
vt 0.326789 0.898554
vt 0.347136 0.898506
vt 0.429465 0.898570
vt 0.408965 0.911534
vt 0.409038 0.898566
vt 0.388414 0.898436
vt 0.367829 0.911615
vt 0.367729 0.898446
vt 0.367719 0.885698
vt 0.347239 0.872759
vt 0.367731 0.872673
vt 0.347167 0.885600
vt 0.388426 0.885616
vt 0.388290 0.872321
vt 0.408956 0.872611
vt 0.409020 0.885602
vt 0.429459 0.885573
vt 0.429474 0.872553
vt 0.326772 0.872684
vt 0.326726 0.885633
vt 0.910052 0.124292
vt 0.923045 0.103826
vt 0.922989 0.124337
vt 0.922900 0.206398
vt 0.910017 0.185905
vt 0.922932 0.185907
vt 0.910018 0.165408
vt 0.922952 0.165408
vt 0.922958 0.144868
vt 0.948882 0.144930
vt 0.935922 0.124313
vt 0.948720 0.124301
vt 0.935937 0.144958
vt 0.935873 0.165421
vt 0.948931 0.165467
vt 0.947184 0.185967
vt 0.935851 0.185948
vt 0.944167 0.206456
vt 0.935811 0.206443
vt 0.948824 0.103713
vt 0.935907 0.103668
vt 0.938594 0.739540
vt 0.935266 0.609366
vt 0.938595 0.609366
vt 0.935265 0.739540
vt 0.931936 0.609366
vt 0.931936 0.739540
vt 0.928607 0.609366
vt 0.928607 0.739540
vt 0.925277 0.609366
vt 0.516595 0.887780
vt 0.475629 0.887545
vt 0.326773 0.911456
vt 0.429474 0.911569
vt 0.388392 0.911681
vt 0.910176 0.103762
vt 0.910054 0.206415
vt 0.910005 0.144856
vt 0.925278 0.739540
s 1
usemtl Material.041
f 23/1/1 4/2/2 15/3/3
f 2/4/4 17/5/5 14/6/6
f 9/7/7 19/8/8 17/5/5
f 19/8/8 11/9/9 21/10/10
f 11/9/9 23/1/1 21/10/10
f 6/11/11 24/12/12 5/13/13
f 21/10/10 24/12/12 22/14/14
f 7/15/15 22/14/14 6/11/11
f 19/8/8 22/14/14 20/16/16
f 18/17/17 7/15/15 8/18/18
f 18/17/17 19/8/8 20/16/16
f 13/19/19 8/18/18 1/20/20
f 13/19/19 17/5/5 18/17/17
f 24/12/12 3/21/21 5/13/13
f 24/12/12 15/3/3 16/22/22
f 36/23/23 39/24/24 47/25/25
f 38/26/26 33/27/27 41/28/28
f 33/27/27 43/29/29 41/28/28
f 43/29/29 35/30/30 45/31/31
f 45/31/31 36/23/23 47/25/25
f 46/32/32 29/33/33 30/34/34
f 45/31/31 48/35/35 46/32/32
f 44/36/36 30/34/34 31/37/37
f 43/29/29 46/32/32 44/36/36
f 32/38/38 44/36/36 31/37/37
f 42/39/39 43/29/29 44/36/36
f 37/40/40 32/38/38 25/41/41
f 37/40/40 41/28/28 42/39/39
f 48/35/35 27/42/42 29/33/33
f 48/35/35 39/24/24 40/43/43
f 60/44/44 63/45/45 71/46/46
f 62/47/47 57/48/48 65/49/49
f 65/49/49 58/50/50 67/51/51
f 58/50/50 69/52/52 67/51/51
f 69/52/52 60/44/44 71/46/46
f 54/53/53 72/54/54 53/55/55
f 69/52/52 72/54/54 70/56/56
f 68/57/57 54/53/53 55/58/58
f 68/57/57 69/52/52 70/56/56
f 56/59/59 68/57/57 55/58/58
f 65/49/49 68/57/57 66/60/60
f 49/61/61 66/60/60 56/59/59
f 62/47/47 66/60/60 61/62/62
f 72/54/54 51/63/63 53/55/55
f 72/54/54 63/45/45 64/64/64
f 74/65/65 75/66/66 73/67/65
f 76/68/66 77/69/67 75/66/66
f 78/70/67 79/71/68 77/69/67
f 80/72/68 81/73/69 79/71/68
f 23/1/1 12/74/70 4/2/2
f 2/4/4 9/7/7 17/5/5
f 9/7/7 10/75/71 19/8/8
f 19/8/8 10/75/71 11/9/9
f 11/9/9 12/74/70 23/1/1
f 6/11/11 22/14/14 24/12/12
f 21/10/10 23/1/1 24/12/12
f 7/15/15 20/16/16 22/14/14
f 19/8/8 21/10/10 22/14/14
f 18/17/17 20/16/16 7/15/15
f 18/17/17 17/5/5 19/8/8
f 13/19/19 18/17/17 8/18/18
f 13/19/19 14/6/6 17/5/5
f 24/12/12 16/22/22 3/21/21
f 24/12/12 23/1/1 15/3/3
f 36/23/23 28/76/72 39/24/24
f 38/26/26 26/77/73 33/27/27
f 33/27/27 34/78/74 43/29/29
f 43/29/29 34/78/74 35/30/30
f 45/31/31 35/30/30 36/23/23
f 46/32/32 48/35/35 29/33/33
f 45/31/31 47/25/25 48/35/35
f 44/36/36 46/32/32 30/34/34
f 43/29/29 45/31/31 46/32/32
f 32/38/38 42/39/39 44/36/36
f 42/39/39 41/28/28 43/29/29
f 37/40/40 42/39/39 32/38/38
f 37/40/40 38/26/26 41/28/28
f 48/35/35 40/43/43 27/42/42
f 48/35/35 47/25/25 39/24/24
f 60/44/44 52/79/75 63/45/45
f 62/47/47 50/80/76 57/48/48
f 65/49/49 57/48/48 58/50/50
f 58/50/50 59/81/77 69/52/52
f 69/52/52 59/81/77 60/44/44
f 54/53/53 70/56/56 72/54/54
f 69/52/52 71/46/46 72/54/54
f 68/57/57 70/56/56 54/53/53
f 68/57/57 67/51/51 69/52/52
f 56/59/59 66/60/60 68/57/57
f 65/49/49 67/51/51 68/57/57
f 49/61/61 61/62/62 66/60/60
f 62/47/47 65/49/49 66/60/60
f 72/54/54 64/64/64 51/63/63
f 72/54/54 71/46/46 63/45/45
f 74/65/65 76/68/66 75/66/66
f 76/68/66 78/70/67 77/69/67
f 78/70/67 80/72/68 79/71/68
f 80/72/68 82/82/69 81/73/69
o Cortina_Puerta.001
v 1.845521 1.180738 0.060459
v 2.160949 1.180738 0.047531
v 1.845584 2.199761 0.060144
v 2.220192 2.199761 0.042649
v 1.847449 1.995956 0.050869
v 1.841980 1.792152 0.078077
v 1.840911 1.588347 0.083395
v 1.845985 1.384543 0.058151
v 2.209672 1.384543 0.058380
v 2.228116 1.588347 0.082071
v 2.226140 1.792152 0.072242
v 2.224250 1.995956 0.062841
v 1.970541 1.180738 0.089594
v 2.097316 1.180738 0.075165
v 2.098810 2.199761 0.090178
v 1.968888 2.199761 0.106207
v 2.097896 1.384543 0.080990
v 1.969529 1.384543 0.099765
v 2.098462 1.588347 0.086675
v 1.968388 1.588347 0.111230
v 2.099777 1.792152 0.099902
v 1.969490 1.792152 0.100153
v 2.096980 1.995956 0.071785
v 1.971392 1.995956 0.081037
v 2.265110 1.180738 0.053572
v 2.645811 1.180738 0.079532
v 2.264320 2.199761 0.057502
v 2.643508 2.199761 0.068077
v 2.263024 1.995956 0.063951
v 2.260847 1.792152 0.074783
v 2.258500 1.588347 0.086459
v 2.263676 1.384543 0.060707
v 2.644741 1.384543 0.074210
v 2.646796 1.588347 0.084436
v 2.645957 1.792152 0.080259
v 2.642019 1.995956 0.060668
v 2.388420 1.180738 0.092870
v 2.517364 1.180738 0.093687
v 2.517196 2.199761 0.091994
v 2.388417 2.199761 0.092898
v 2.517795 1.384543 0.098011
v 2.387938 1.384543 0.097720
v 2.515947 1.588347 0.079440
v 2.389640 1.588347 0.080605
v 2.515750 1.792152 0.077462
v 2.390062 1.792152 0.076363
v 2.517841 1.995956 0.098482
v 2.388972 1.995956 0.087318
v 2.724299 1.180738 0.081562
v 3.060208 1.180738 0.060591
v 2.680116 2.199761 0.069491
v 3.060660 2.199761 0.062839
v 2.683400 1.995956 0.053151
v 2.679466 1.792152 0.072724
v 2.677535 1.588347 0.082332
v 2.694210 1.384543 0.085386
v 3.062094 1.384543 0.069972
v 3.062308 1.588347 0.071034
v 3.060125 1.792152 0.060176
v 3.062319 1.995956 0.071089
v 2.806522 1.180738 0.093905
v 2.934645 1.180738 0.084394
v 2.934662 2.199761 0.084568
v 2.806828 2.199761 0.090827
v 2.935210 1.384543 0.090068
v 2.806722 1.384543 0.091898
v 2.935318 1.588347 0.091155
v 2.807009 1.588347 0.089018
v 2.935261 1.792152 0.090587
v 2.806104 1.792152 0.098109
v 2.935421 1.995956 0.092194
v 2.808606 1.995956 0.072956
v 1.797073 2.177171 0.029111
v 3.090945 2.177171 0.029111
v 1.797073 2.146600 0.041774
v 3.090945 2.146600 0.041774
v 1.797073 2.133937 0.072345
v 3.090945 2.133937 0.072345
v 1.797073 2.146600 0.102916
v 3.090945 2.146600 0.102916
v 1.797073 2.177171 0.115579
v 3.090945 2.177171 0.115579
vn 0.1118 0.0400 0.9929
vn 0.2630 -0.0211 0.9646
vn 0.2349 -0.0994 0.9669
vn 0.3387 -0.0495 0.9396
vn 0.1792 -0.0455 0.9827
vn 0.2589 -0.0283 0.9655
vn 0.1664 -0.0779 0.9830
vn 0.1198 -0.0292 0.9924
vn 0.1566 0.0406 0.9868
vn 0.1145 0.0290 0.9930
vn -0.1818 0.0675 0.9810
vn -0.0892 0.0171 0.9959
vn -0.2363 0.0443 0.9707
vn -0.0716 0.0505 0.9962
vn -0.2249 -0.0184 0.9742
vn -0.0148 -0.0009 0.9999
vn -0.0756 -0.0604 0.9953
vn -0.3019 -0.0757 0.9503
vn -0.0692 -0.0236 0.9973
vn -0.2269 0.0115 0.9738
vn -0.3088 -0.0936 0.9465
vn -0.1159 -0.1231 0.9856
vn 0.2176 -0.0121 0.9760
vn 0.0997 -0.0094 0.9950
vn 0.1043 -0.0354 0.9939
vn 0.0652 -0.0059 0.9979
vn 0.1309 0.0182 0.9912
vn 0.0910 0.0345 0.9953
vn 0.0044 0.0302 0.9995
vn -0.0245 0.0541 0.9982
vn 0.0061 -0.0067 1.0000
vn -0.0241 -0.0011 0.9997
vn -0.1521 0.0084 0.9883
vn -0.0018 0.0435 0.9991
vn -0.1278 -0.0293 0.9914
vn -0.0079 0.0245 0.9997
vn 0.0446 -0.0334 0.9984
vn -0.2308 -0.0100 0.9729
vn -0.1441 0.0311 0.9891
vn -0.1527 -0.0269 0.9879
vn -0.3035 -0.0355 0.9522
vn -0.2417 -0.0059 0.9703
vn -0.1349 -0.0275 0.9905
vn 0.1782 0.0071 0.9840
vn 0.0732 -0.0017 0.9973
vn 0.0073 0.0147 0.9999
vn 0.1143 -0.0220 0.9932
vn 0.1617 -0.0200 0.9866
vn 0.0828 -0.0135 0.9965
vn 0.1709 0.0079 0.9853
vn 0.0702 -0.0013 0.9975
vn 0.1091 0.0118 0.9940
vn -0.1633 0.0512 0.9853
vn -0.1216 0.0136 0.9925
vn -0.1562 0.0080 0.9877
vn -0.0699 0.0390 0.9968
vn -0.0382 0.0035 0.9993
vn -0.0515 0.0296 0.9982
vn -0.0566 -0.0057 0.9984
vn -0.0220 -0.0011 0.9998
vn -0.1205 -0.0016 0.9927
vn -0.0375 0.0099 0.9992
vn -0.1620 -0.0854 0.9831
vn -0.0589 -0.0877 0.9944
vn -0.0000 -0.3827 -0.9239
vn -0.0000 -0.7071 -0.7071
vn -0.0000 -1.0000 -0.0000
vn -0.0000 -0.7071 0.7071
vn -0.0000 -0.3827 0.9239
vn 0.0699 0.0730 0.9949
vn 0.0355 -0.0330 0.9988
vn 0.1859 -0.0371 0.9819
vn 0.1095 0.0265 0.9936
vn -0.0381 -0.0146 0.9992
vn 0.1698 0.0412 0.9846
vn 0.1861 -0.0469 0.9814
vn 0.2366 -0.0001 0.9716
vt 0.516791 0.900719
vt 0.537198 0.887523
vt 0.537544 0.900603
vt 0.434511 0.893873
vt 0.455089 0.900670
vt 0.434625 0.900822
vt 0.455020 0.889229
vt 0.475583 0.900571
vt 0.496104 0.887772
vt 0.496025 0.900707
vt 0.496015 0.926714
vt 0.516813 0.913638
vt 0.516757 0.926654
vt 0.495950 0.913724
vt 0.475563 0.926832
vt 0.475573 0.913799
vt 0.455178 0.913698
vt 0.454956 0.926780
vt 0.434712 0.913603
vt 0.434523 0.926473
vt 0.537337 0.926967
vt 0.537749 0.913753
vt 0.347241 0.911473
vt 0.326789 0.898554
vt 0.347136 0.898506
vt 0.429465 0.898570
vt 0.408965 0.911534
vt 0.409038 0.898566
vt 0.388414 0.898436
vt 0.367829 0.911615
vt 0.367729 0.898446
vt 0.367719 0.885698
vt 0.347239 0.872759
vt 0.367731 0.872673
vt 0.347167 0.885600
vt 0.388426 0.885616
vt 0.388290 0.872321
vt 0.408956 0.872611
vt 0.409020 0.885602
vt 0.429459 0.885573
vt 0.429474 0.872553
vt 0.326772 0.872684
vt 0.326726 0.885633
vt 0.910052 0.124292
vt 0.923045 0.103826
vt 0.922989 0.124337
vt 0.922900 0.206398
vt 0.910017 0.185905
vt 0.922932 0.185907
vt 0.910018 0.165408
vt 0.922952 0.165408
vt 0.922958 0.144868
vt 0.948882 0.144930
vt 0.935922 0.124313
vt 0.948720 0.124301
vt 0.935937 0.144958
vt 0.935873 0.165421
vt 0.948931 0.165467
vt 0.947184 0.185967
vt 0.935851 0.185948
vt 0.944167 0.206456
vt 0.935811 0.206443
vt 0.948824 0.103713
vt 0.935907 0.103668
vt 0.938594 0.739540
vt 0.935266 0.609366
vt 0.938595 0.609366
vt 0.935265 0.739540
vt 0.931936 0.609366
vt 0.931936 0.739540
vt 0.928607 0.609366
vt 0.928607 0.739540
vt 0.925277 0.609366
vt 0.516595 0.887780
vt 0.475629 0.887545
vt 0.326773 0.911456
vt 0.429474 0.911569
vt 0.388392 0.911681
vt 0.910176 0.103762
vt 0.910054 0.206415
vt 0.910005 0.144856
vt 0.925278 0.739540
s 1
usemtl Material.041
f 105/83/78 86/84/79 97/85/80
f 84/86/81 99/87/82 96/88/83
f 91/89/84 101/90/85 99/87/82
f 101/90/85 93/91/86 103/92/87
f 93/91/86 105/83/78 103/92/87
f 88/93/88 106/94/89 87/95/90
f 103/92/87 106/94/89 104/96/91
f 89/97/92 104/96/91 88/93/88
f 101/90/85 104/96/91 102/98/93
f 100/99/94 89/97/92 90/100/95
f 100/99/94 101/90/85 102/98/93
f 95/101/96 90/100/95 83/102/97
f 95/101/96 99/87/82 100/99/94
f 106/94/89 85/103/98 87/95/90
f 106/94/89 97/85/80 98/104/99
f 118/105/100 121/106/101 129/107/102
f 120/108/103 115/109/104 123/110/105
f 115/109/104 125/111/106 123/110/105
f 125/111/106 117/112/107 127/113/108
f 127/113/108 118/105/100 129/107/102
f 128/114/109 111/115/110 112/116/111
f 127/113/108 130/117/112 128/114/109
f 126/118/113 112/116/111 113/119/114
f 125/111/106 128/114/109 126/118/113
f 114/120/115 126/118/113 113/119/114
f 124/121/116 125/111/106 126/118/113
f 119/122/117 114/120/115 107/123/118
f 119/122/117 123/110/105 124/121/116
f 130/117/112 109/124/119 111/115/110
f 130/117/112 121/106/101 122/125/120
f 142/126/121 145/127/122 153/128/123
f 144/129/124 139/130/125 147/131/126
f 147/131/126 140/132/127 149/133/128
f 140/132/127 151/134/129 149/133/128
f 151/134/129 142/126/121 153/128/123
f 136/135/130 154/136/131 135/137/132
f 151/134/129 154/136/131 152/138/133
f 150/139/134 136/135/130 137/140/135
f 150/139/134 151/134/129 152/138/133
f 138/141/136 150/139/134 137/140/135
f 147/131/126 150/139/134 148/142/137
f 131/143/138 148/142/137 138/141/136
f 144/129/124 148/142/137 143/144/139
f 154/136/131 133/145/140 135/137/132
f 154/136/131 145/127/122 146/146/141
f 156/147/142 157/148/143 155/149/142
f 158/150/143 159/151/144 157/148/143
f 160/152/144 161/153/145 159/151/144
f 162/154/145 163/155/146 161/153/145
f 105/83/78 94/156/147 86/84/79
f 84/86/81 91/89/84 99/87/82
f 91/89/84 92/157/148 101/90/85
f 101/90/85 92/157/148 93/91/86
f 93/91/86 94/156/147 105/83/78
f 88/93/88 104/96/91 106/94/89
f 103/92/87 105/83/78 106/94/89
f 89/97/92 102/98/93 104/96/91
f 101/90/85 103/92/87 104/96/91
f 100/99/94 102/98/93 89/97/92
f 100/99/94 99/87/82 101/90/85
f 95/101/96 100/99/94 90/100/95
f 95/101/96 96/88/83 99/87/82
f 106/94/89 98/104/99 85/103/98
f 106/94/89 105/83/78 97/85/80
f 118/105/100 110/158/149 121/106/101
f 120/108/103 108/159/150 115/109/104
f 115/109/104 116/160/151 125/111/106
f 125/111/106 116/160/151 117/112/107
f 127/113/108 117/112/107 118/105/100
f 128/114/109 130/117/112 111/115/110
f 127/113/108 129/107/102 130/117/112
f 126/118/113 128/114/109 112/116/111
f 125/111/106 127/113/108 128/114/109
f 114/120/115 124/121/116 126/118/113
f 124/121/116 123/110/105 125/111/106
f 119/122/117 124/121/116 114/120/115
f 119/122/117 120/108/103 123/110/105
f 130/117/112 122/125/120 109/124/119
f 130/117/112 129/107/102 121/106/101
f 142/126/121 134/161/152 145/127/122
f 144/129/124 132/162/153 139/130/125
f 147/131/126 139/130/125 140/132/127
f 140/132/127 141/163/154 151/134/129
f 151/134/129 141/163/154 142/126/121
f 136/135/130 152/138/133 154/136/131
f 151/134/129 153/128/123 154/136/131
f 150/139/134 152/138/133 136/135/130
f 150/139/134 149/133/128 151/134/129
f 138/141/136 148/142/137 150/139/134
f 147/131/126 149/133/128 150/139/134
f 131/143/138 143/144/139 148/142/137
f 144/129/124 147/131/126 148/142/137
f 154/136/131 146/146/141 133/145/140
f 154/136/131 153/128/123 145/127/122
f 156/147/142 158/150/143 157/148/143
f 158/150/143 160/152/144 159/151/144
f 160/152/144 162/154/145 161/153/145
f 162/154/145 164/164/146 163/155/146
