# Blender 4.5.3 LTS
# www.blender.org
mtllib Cuchillo.mtl
o Cuchillo
v 0.590000 1.840000 -0.050000
v 0.590000 1.840000 -0.150000
v 0.590000 1.980000 -0.050000
v 0.590000 1.980000 -0.150000
v 0.270000 1.840000 -0.050000
v 0.270000 1.840000 -0.150000
v 0.270000 1.980000 -0.050000
v 0.270000 1.980000 -0.150000
v 0.955715 1.501667 0.108333
v 0.955715 2.178333 0.108333
v -0.872857 1.501667 0.108333
v -0.872857 2.178333 0.108333
v 0.955715 1.501667 -0.058334
v 0.955715 2.178333 -0.058334
v -0.872857 1.501667 -0.058334
v -0.872857 2.178333 -0.058334
v 0.249299 1.798185 -0.091667
v 0.249452 1.799972 -0.096545
v 0.249905 1.805263 -0.101234
v 0.250642 1.813855 -0.105557
v 0.251633 1.825418 -0.109345
v 0.252840 1.839508 -0.112454
v 0.254218 1.855582 -0.114764
v 0.255713 1.873024 -0.116187
v 0.257267 1.891164 -0.116667
v 0.258822 1.909303 -0.116187
v 0.260317 1.926745 -0.114764
v 0.261694 1.942819 -0.112454
v 0.262902 1.956909 -0.109345
v 0.263893 1.968472 -0.105557
v 0.264629 1.977064 -0.101234
v 0.265082 1.982355 -0.096545
v 0.265236 1.984142 -0.091667
v 0.265082 1.982355 -0.086790
v 0.264629 1.977064 -0.082100
v 0.263893 1.968472 -0.077778
v 0.262902 1.956909 -0.073990
v 0.261694 1.942819 -0.070880
v 0.260317 1.926745 -0.068570
v 0.258822 1.909303 -0.067148
v 0.257267 1.891164 -0.066667
v 0.255713 1.873024 -0.067148
v 0.254218 1.855582 -0.068570
v 0.252840 1.839508 -0.070880
v 0.251633 1.825418 -0.073990
v 0.250642 1.813855 -0.077778
v 0.249905 1.805263 -0.082100
v 0.249452 1.799972 -0.086790
v -0.425838 1.952171 -0.091667
vn 1.0000 -0.0000 -0.0000
vn -0.0000 1.0000 -0.0000
vn -1.0000 -0.0000 -0.0000
vn -0.0000 -1.0000 -0.0000
vn -0.0000 -0.0000 1.0000
vn -0.0000 -0.0000 -1.0000
vn -0.2224 -0.9750 -0.0000
vn -0.9173 0.3983 -0.0000
vn -0.1869 -0.8117 -0.5534
vn -0.1336 -0.5615 -0.8166
vn -0.0974 -0.3844 -0.9180
vn -0.0748 -0.2659 -0.9611
vn -0.0600 -0.1802 -0.9818
vn -0.0497 -0.1123 -0.9924
vn -0.0421 -0.0539 -0.9977
vn -0.0365 0.0004 -0.9993
vn -0.0323 0.0547 -0.9980
vn -0.0292 0.1129 -0.9932
vn -0.0273 0.1806 -0.9832
vn -0.0266 0.2658 -0.9637
vn -0.0277 0.3838 -0.9230
vn -0.0317 0.5617 -0.8267
vn -0.0399 0.8210 -0.5695
vn -0.0462 0.9989 -0.0000
vn -0.0399 0.8210 0.5695
vn -0.0317 0.5617 0.8267
vn -0.0277 0.3838 0.9230
vn -0.0266 0.2658 0.9637
vn -0.0273 0.1806 0.9832
vn -0.0292 0.1129 0.9932
vn -0.0323 0.0547 0.9980
vn -0.0365 0.0004 0.9993
vn -0.0421 -0.0539 0.9977
vn -0.0497 -0.1123 0.9924
vn -0.0600 -0.1802 0.9818
vn -0.0748 -0.2659 0.9611
vn -0.0974 -0.3844 0.9180
vn -0.1336 -0.5615 0.8166
vn 0.9963 -0.0854 -0.0000
vn -0.1869 -0.8117 0.5534
vt 0.375000 0.000000
vt 0.625000 0.000000
vt 0.625000 0.250000
vt 0.375000 0.250000
vt 0.625000 0.500000
vt 0.375000 0.500000
vt 0.625000 0.750000
vt 0.375000 0.750000
vt 0.625000 1.000000
vt 0.375000 1.000000
vt 0.125000 0.500000
vt 0.125000 0.750000
vt 0.875000 0.500000
vt 0.875000 0.750000
vt 0.250000 0.490000
vt 0.250000 0.250000
vt 0.296822 0.485388
vt 0.341844 0.471731
vt 0.383337 0.449553
vt 0.419706 0.419706
vt 0.449553 0.383337
vt 0.471731 0.341844
vt 0.485388 0.296822
vt 0.490000 0.250000
vt 0.485388 0.203178
vt 0.471731 0.158156
vt 0.449553 0.116663
vt 0.419706 0.080294
vt 0.383337 0.050447
vt 0.341844 0.028269
vt 0.296822 0.014612
vt 0.250000 0.010000
vt 0.203178 0.014612
vt 0.158156 0.028269
vt 0.116663 0.050447
vt 0.080294 0.080294
vt 0.050447 0.116663
vt 0.028269 0.158156
vt 0.014612 0.203178
vt 0.010000 0.250000
vt 0.014612 0.296822
vt 0.028269 0.341844
vt 0.050447 0.383337
vt 0.080294 0.419706
vt 0.116663 0.449553
vt 0.158156 0.471731
vt 0.750000 0.490000
vt 0.796822 0.485388
vt 0.841844 0.471731
vt 0.883337 0.449553
vt 0.919706 0.419706
vt 0.949553 0.383337
vt 0.971731 0.341844
vt 0.985388 0.296822
vt 0.990000 0.250000
vt 0.985388 0.203178
vt 0.971731 0.158156
vt 0.949553 0.116663
vt 0.919706 0.080294
vt 0.883337 0.050447
vt 0.841844 0.028269
vt 0.796822 0.014612
vt 0.750000 0.010000
vt 0.703178 0.014612
vt 0.658156 0.028269
vt 0.616663 0.050447
vt 0.580294 0.080294
vt 0.550447 0.116663
vt 0.528269 0.158156
vt 0.514612 0.203178
vt 0.510000 0.250000
vt 0.514612 0.296822
vt 0.528269 0.341844
vt 0.550447 0.383337
vt 0.580294 0.419706
vt 0.616663 0.449553
vt 0.658156 0.471731
vt 0.703178 0.485388
vt 0.203178 0.485388
s 1
usemtl Material.053
f 1/1/1 2/2/1 4/3/1 3/4/1
f 3/4/2 4/3/2 8/5/2 7/6/2
f 7/6/3 8/5/3 6/7/3 5/8/3
f 5/8/4 6/7/4 2/9/4 1/10/4
f 3/11/5 7/6/5 5/8/5 1/12/5
f 17/15/7 49/16/8 18/17/9
f 18/17/9 49/16/8 19/18/10
f 19/18/10 49/16/8 20/19/11
f 20/19/11 49/16/8 21/20/12
f 21/20/12 49/16/8 22/21/13
f 22/21/13 49/16/8 23/22/14
f 23/22/14 49/16/8 24/23/15
f 24/23/15 49/16/8 25/24/16
f 25/24/16 49/16/8 26/25/17
f 26/25/17 49/16/8 27/26/18
f 27/26/18 49/16/8 28/27/19
f 28/27/19 49/16/8 29/28/20
f 29/28/20 49/16/8 30/29/21
f 30/29/21 49/16/8 31/30/22
f 31/30/22 49/16/8 32/31/23
f 32/31/23 49/16/8 33/32/24
f 33/32/24 49/16/8 34/33/25
f 34/33/25 49/16/8 35/34/26
f 35/34/26 49/16/8 36/35/27
f 36/35/27 49/16/8 37/36/28
f 37/36/28 49/16/8 38/37/29
f 38/37/29 49/16/8 39/38/30
f 39/38/30 49/16/8 40/39/31
f 40/39/31 49/16/8 41/40/32
f 41/40/32 49/16/8 42/41/33
f 42/41/33 49/16/8 43/42/34
f 43/42/34 49/16/8 44/43/35
f 44/43/35 49/16/8 45/44/36
f 45/44/36 49/16/8 46/45/37
f 46/45/37 49/16/8 47/46/38
f 17/47/39 18/48/39 19/49/39 20/50/39 21/51/39 22/52/39 23/53/39 24/54/39 25/55/39 26/56/39 27/57/39 28/58/39 29/59/39 30/60/39 31/61/39 32/62/39 33/63/39 34/64/39 35/65/39 36/66/39 37/67/39 38/68/39 39/69/39 40/70/39 41/71/39 42/72/39 43/73/39 44/74/39 45/75/39 46/76/39 47/77/39 48/78/39
f 47/46/38 49/16/8 48/79/40
f 48/79/40 49/16/8 17/15/7
usemtl Cajas.002
f 9/1/5 10/2/5 12/3/5 11/4/5
f 11/4/3 12/3/3 16/5/3 15/6/3
f 15/6/6 16/5/6 14/7/6 13/8/6
f 13/8/1 14/7/1 10/9/1 9/10/1
f 11/11/4 15/6/4 13/8/4 9/12/4
f 16/5/2 12/13/2 10/14/2 14/7/2
usemtl Material.057
f 8/5/6 4/13/6 2/14/6 6/7/6
