# Blender 4.5.3 LTS
# www.blender.org
mtllib Fregadero.mtl
o Lavadero
v 3.068586 0.013041 1.216954
v 3.068586 1.213149 1.216954
v 3.068586 0.013041 1.976207
v 1.637597 0.013041 1.216955
v 1.691528 1.212657 1.254183
v 1.691528 1.212657 1.845652
v 2.431468 1.212657 1.845651
v 2.485399 0.013041 1.216955
v 2.431468 1.212657 1.254183
v 3.068586 1.213149 1.976206
v 1.637597 1.213149 1.216955
v 2.485399 1.213149 1.216955
v 2.365323 0.978460 1.784436
v 1.757673 0.978460 1.784436
v 1.757673 0.978460 1.315398
v 2.365323 0.978460 1.315398
v 1.637597 1.213149 1.976207
v 2.061498 0.013041 1.216955
v 1.637597 0.013041 1.976207
v 2.061498 1.213149 1.216955
v 2.034616 1.212657 1.845651
v 2.088380 1.212657 1.845651
v 2.034616 1.212657 1.254183
v 2.088380 1.212657 1.254183
v 2.088380 0.978460 1.784436
v 2.034616 0.978460 1.784436
v 2.088380 0.978460 1.315398
v 2.034616 0.978460 1.315398
v 1.973398 1.288988 1.797303
v 1.972654 1.363034 1.800033
v 1.961190 1.335548 1.787864
v 1.973468 1.331439 1.793551
v 1.983570 1.354376 1.804275
v 1.985891 1.329753 1.789004
v 1.995379 1.350732 1.799075
v 1.991171 1.331439 1.776874
v 2.001273 1.354376 1.787597
v 1.986225 1.335548 1.764279
v 1.997689 1.363034 1.776448
v 1.973962 1.339723 1.758607
v 1.986756 1.371579 1.772188
v 1.961554 1.341463 1.763171
v 1.974916 1.375100 1.777354
v 1.956259 1.339723 1.775284
v 1.969053 1.371579 1.788865
v 2.073424 1.222850 1.856840
v 2.078097 1.222850 1.869145
v 2.072699 1.222850 1.881150
v 2.060394 1.222850 1.885822
v 2.035319 1.366144 1.866551
v 2.048080 1.335548 1.880097
v 2.043135 1.331439 1.867502
v 2.031890 1.356972 1.855565
v 2.048415 1.329753 1.855372
v 2.037853 1.353105 1.844161
v 2.060838 1.331439 1.850824
v 2.049592 1.356972 1.838888
v 2.073115 1.335548 1.856512
v 2.060354 1.366144 1.842966
v 2.078047 1.339723 1.869092
v 2.063805 1.375184 1.853974
v 2.072752 1.341463 1.881205
v 2.057878 1.378906 1.865417
v 2.060344 1.339723 1.885769
v 2.046102 1.375184 1.870651
v 1.973494 1.303658 1.793579
v 1.961362 1.303658 1.788046
v 1.956568 1.303658 1.775612
v 1.985855 1.303658 1.788965
v 1.991197 1.303658 1.776902
v 1.986397 1.303658 1.764461
v 1.974270 1.303658 1.758935
v 1.961917 1.303658 1.763556
v 1.958827 1.288976 1.790753
v 1.988360 1.288982 1.791625
v 1.994919 1.288988 1.777028
v 1.989249 1.288976 1.762093
v 1.974679 1.288930 1.755527
v 1.959701 1.288900 1.761204
v 1.953141 1.288930 1.775816
v 1.958659 1.302340 1.790574
v 1.952870 1.302293 1.775495
v 1.973373 1.302352 1.797278
v 1.988392 1.302346 1.791659
v 1.994896 1.302352 1.777001
v 1.989081 1.302340 1.761915
v 1.974374 1.302293 1.755237
v 1.959381 1.302264 1.760864
v 2.013061 1.378765 1.842401
v 1.992347 1.376554 1.820413
v 1.997443 1.365043 1.818476
v 2.016705 1.366669 1.838923
v 2.006909 1.360168 1.810791
v 2.025500 1.361541 1.830525
v 2.015145 1.365043 1.801799
v 2.034407 1.366669 1.822246
v 2.017382 1.376554 1.796828
v 2.038096 1.378765 1.818816
v 2.012295 1.387799 1.798774
v 2.034436 1.390562 1.822276
v 2.002856 1.392402 1.806489
v 2.025592 1.395387 1.830622
v 1.994592 1.387799 1.815451
v 2.016733 1.390562 1.838953
v 2.049114 1.222850 1.856115
v 2.043717 1.222850 1.868119
v 2.061419 1.222850 1.851442
v 2.048389 1.222850 1.880425
v 2.045241 1.220439 1.852003
v 2.045241 1.206641 1.852003
v 2.060226 1.206641 1.891468
v 2.076573 1.206641 1.885261
v 2.083743 1.206641 1.869313
v 2.077536 1.206641 1.852966
v 2.061588 1.206641 1.845796
v 2.038071 1.206641 1.867951
v 2.044278 1.206641 1.884298
v 2.044278 1.220439 1.884298
v 2.077536 1.220439 1.852966
v 2.076573 1.220439 1.885261
v 2.038071 1.220439 1.867951
v 2.083743 1.220439 1.869313
v 2.060226 1.220439 1.891468
v 2.061588 1.220439 1.845796
v 1.974031 1.288959 1.776415
vn 1.0000 -0.0000 -0.0000
vn -0.0052 1.0000 -0.0012
vn -0.0014 1.0000 -0.0043
vn -0.0001 1.0000 -0.0023
vn -1.0000 -0.0000 -0.0000
vn -0.0000 -0.0000 -1.0000
vn -0.0000 0.9999 0.0132
vn -0.0000 1.0000 0.0019
vn -0.0000 1.0000 -0.0000
vn -0.0034 1.0000 0.0002
vn -0.0000 -0.0000 1.0000
vn 0.0097 1.0000 0.0002
vn 0.0091 1.0000 -0.0000
vn -0.0091 1.0000 -0.0000
vn -0.0000 0.2529 0.9675
vn -0.9624 0.2718 -0.0000
vn 0.9624 0.2718 -0.0000
vn -0.0000 0.2529 -0.9675
vn -0.0000 1.0000 -0.0005
vn -0.0000 1.0000 -0.0025
vn -0.0000 1.0000 0.0088
vn -0.3453 0.9385 -0.0096
vn -0.2457 0.9417 0.2299
vn -0.2441 0.9420 0.2304
vn 0.0835 0.9927 0.0875
vn 0.8159 0.5603 -0.1426
vn 0.5580 0.7339 -0.3873
vn -0.0123 0.9429 0.3328
vn -0.0118 0.9429 0.3329
vn 0.2290 0.9426 0.2430
vn 0.2292 0.9425 0.2432
vn -0.2412 0.9361 -0.2560
vn 0.0095 0.9379 -0.3468
vn -0.2419 0.9357 -0.2568
vn 0.7403 0.0588 -0.6697
vn 0.2805 -0.4976 -0.8208
vn 0.4551 -0.6689 -0.5877
vn -0.7030 0.0711 0.7076
vn -0.4226 0.7356 0.5295
vn -0.7205 0.0604 0.6908
vn -0.7337 0.0528 0.6774
vn -0.2547 -0.4782 0.8405
vn -0.3931 -0.6563 0.6440
vn -0.1940 0.5626 0.8037
vn 0.7532 0.0647 -0.6546
vn -0.1291 -0.9808 -0.1463
vn -0.7474 0.0634 0.6614
vn -0.1308 -0.1775 0.9754
vn 0.6581 -0.2808 0.6986
vn 0.4643 -0.7378 0.4900
vn 0.8493 -0.4869 -0.2040
vn 0.9814 -0.1775 -0.0724
vn 0.6997 0.0559 -0.7123
vn 0.6842 0.0111 -0.7292
vn 0.1779 0.5421 -0.8213
vn 0.0300 0.1809 -0.9830
vn -0.4609 0.7412 -0.4881
vn -0.6627 0.2569 -0.7034
vn -0.9831 0.1809 -0.0286
vn -0.8280 0.5449 0.1322
vn -0.7687 0.0111 0.6395
vn -0.6573 -0.2851 -0.6977
vn -0.9996 -0.0063 -0.0280
vn -0.9809 -0.1808 0.0724
vn 0.6857 0.0005 0.7279
vn 0.9823 0.1854 0.0265
vn 0.6616 0.2629 0.7023
vn -0.0321 0.1854 0.9821
vn 0.3598 0.7155 -0.5988
vn 0.0317 -0.0063 -0.9995
vn 0.1308 -0.1808 -0.9748
vn 0.9996 0.0011 0.0295
vn 0.7676 0.0115 -0.6408
vn 0.7289 -0.0007 -0.6847
vn -0.6854 0.0115 0.7281
vn -0.0301 0.0011 0.9995
vn 0.2010 -0.9583 0.2033
vn 0.6553 -0.6609 -0.3658
vn -0.6143 0.7183 0.3267
vn -0.4375 -0.7688 -0.4665
vn -0.6238 -0.6670 0.4075
vn -0.1682 0.9692 -0.1799
vn 0.7116 0.0490 -0.7009
vn -0.8409 -0.4897 0.2306
vn 0.4421 0.7638 0.4703
vn -0.7269 -0.0007 0.6868
vn -0.0117 0.9197 0.3923
vn -0.2857 0.9197 0.2691
vn 0.0117 0.9197 -0.3923
vn 0.2857 0.9197 -0.2692
vn 0.2691 0.9197 0.2857
vn -0.3923 0.9197 -0.0117
vn -0.7272 -0.0009 0.6864
vn -0.0360 -0.0002 0.9994
vn -0.9997 -0.0080 -0.0221
vn 0.7286 -0.0009 -0.6850
vn 0.0375 -0.0080 -0.9993
vn 0.9997 -0.0002 0.0236
vn -0.6857 -0.0128 -0.7278
vn 0.6857 -0.0020 0.7279
vn 0.6857 -0.0008 0.7279
vn -0.0307 0.0004 0.9995
vn 0.6857 -0.0035 0.7279
vn 0.0277 -0.0220 -0.9994
vn -0.6853 -0.0331 -0.7275
vn -0.6853 -0.0349 -0.7274
vn -0.9992 -0.0220 -0.0320
vn -0.9995 -0.0200 -0.0231
vn 0.9996 0.0004 0.0289
vn 0.9997 0.0032 0.0258
vn 0.7242 -0.0009 -0.6896
vn 0.0365 -0.0200 -0.9991
vn 0.7299 -0.0014 -0.6835
vn -0.7316 -0.0009 0.6818
vn -0.7258 -0.0014 0.6879
vn -0.0338 0.0032 0.9994
vn 0.3329 0.9429 0.0075
vn 0.2441 0.9417 -0.2316
vn 0.2445 0.9420 -0.2299
vn 0.0110 0.9384 -0.3452
vn 0.3330 0.9429 0.0080
vn -0.3467 0.9379 -0.0112
vn -0.7279 -0.0000 0.6857
vn -0.0298 -0.0000 0.9996
vn 0.0298 -0.0000 -0.9996
vn 0.7279 -0.0000 -0.6857
vn 0.6857 -0.0000 0.7279
vn -0.9996 -0.0000 -0.0298
vn 0.9996 -0.0000 0.0298
vn -0.6857 -0.0000 -0.7279
vn -0.2692 0.9197 -0.2857
vn 0.3923 0.9197 0.0117
vn 0.0002 -1.0000 0.0014
vn 0.0007 -1.0000 0.0020
vn 0.0014 -1.0000 0.0014
vn 0.0013 -1.0000 0.0026
vn 0.0019 -1.0000 0.0021
vn 0.0026 -1.0000 0.0015
vn 0.0020 -1.0000 0.0009
vn 0.0014 -1.0000 0.0002
vn 0.0008 -1.0000 0.0008
vn -0.6857 -0.0095 -0.7278
vt 0.745124 0.806377
vt 0.864691 0.730733
vt 0.864691 0.806377
vt 0.465939 0.718799
vt 0.478946 0.639705
vt 0.478946 0.782275
vt 0.611961 0.836714
vt 0.731528 0.761069
vt 0.731528 0.836714
vt 0.250622 0.724172
vt 0.131055 0.782275
vt 0.131055 0.724172
vt 0.407011 0.718798
vt 0.403301 0.681938
vt 0.407011 0.684616
vt 0.403302 0.782274
vt 0.403302 0.724171
vt 0.994129 0.452593
vt 0.966538 0.499323
vt 0.966537 0.452593
vt 0.398247 0.759270
vt 0.255677 0.639703
vt 0.398247 0.639703
vt 0.465939 0.645078
vt 0.403302 0.639705
vt 0.407011 0.645078
vt 0.929821 0.385796
vt 0.958015 0.409207
vt 0.935252 0.419544
vt 0.950596 0.604219
vt 0.936977 0.547710
vt 0.961944 0.546394
vt 0.961586 0.476167
vt 0.927627 0.428991
vt 0.950246 0.418341
vt 0.951211 0.513941
vt 0.928314 0.521514
vt 0.990758 0.396973
vt 0.963166 0.443703
vt 0.963166 0.396973
vt 0.950849 0.508619
vt 0.936619 0.474848
vt 0.250622 0.639706
vt 0.131055 0.681939
vt 0.131055 0.639706
vt 0.876872 0.416688
vt 0.905069 0.393282
vt 0.900682 0.420523
vt 0.250621 0.681939
vt 0.465939 0.679260
vt 0.465939 0.684616
vt 0.935477 0.327140
vt 0.953632 0.381965
vt 0.407011 0.679260
vt 0.905161 0.467038
vt 0.852616 0.348276
vt 0.853196 0.346881
vt 0.853407 0.347210
vt 0.378566 0.773004
vt 0.382120 0.773828
vt 0.378649 0.774039
vt 0.854708 0.346940
vt 0.854773 0.346555
vt 0.855840 0.347609
vt 0.856148 0.347369
vt 0.852742 0.349584
vt 0.853575 0.350830
vt 0.852390 0.349761
vt 0.378847 0.775078
vt 0.381799 0.776321
vt 0.379133 0.776298
vt 0.381834 0.770811
vt 0.378582 0.771964
vt 0.378714 0.770912
vt 0.375913 0.770904
vt 0.373192 0.769482
vt 0.375770 0.769601
vt 0.382059 0.771922
vt 0.381968 0.774953
vt 0.379290 0.777801
vt 0.372940 0.770949
vt 0.369923 0.769121
vt 0.370199 0.767468
vt 0.373421 0.767890
vt 0.373459 0.776897
vt 0.370590 0.779104
vt 0.370207 0.777473
vt 0.373108 0.775436
vt 0.369936 0.775874
vt 0.372837 0.774231
vt 0.369809 0.774488
vt 0.372705 0.773201
vt 0.369760 0.773305
vt 0.369727 0.772123
vt 0.372758 0.772164
vt 0.369760 0.770732
vt 0.384704 0.767561
vt 0.396222 0.768239
vt 0.384866 0.769012
vt 0.396478 0.772402
vt 0.385144 0.773874
vt 0.385115 0.772776
vt 0.385072 0.771679
vt 0.376101 0.774167
vt 0.396495 0.776572
vt 0.385050 0.778004
vt 0.385116 0.776547
vt 0.396503 0.773835
vt 0.385155 0.775132
vt 0.396503 0.775226
vt 0.385000 0.770423
vt 0.396409 0.770970
vt 0.376101 0.778094
vt 0.376021 0.776570
vt 0.376019 0.772011
vt 0.381345 0.767972
vt 0.378909 0.769669
vt 0.378968 0.768153
vt 0.376068 0.773090
vt 0.376078 0.775272
vt 0.375761 0.768071
vt 0.381563 0.769462
vt 0.381675 0.777814
vt 0.382172 0.772872
vt 0.396318 0.769581
vt 0.748535 0.649199
vt 0.750156 0.649373
vt 0.748469 0.649808
vt 0.748443 0.645507
vt 0.746833 0.645763
vt 0.748348 0.644903
vt 0.747364 0.648609
vt 0.746914 0.649024
vt 0.749805 0.648872
vt 0.751139 0.647934
vt 0.366092 0.769983
vt 0.366483 0.768327
vt 0.365797 0.771699
vt 0.366326 0.776868
vt 0.365915 0.775177
vt 0.366826 0.778495
vt 0.365698 0.773443
vt 0.366895 0.766656
vt 0.997141 0.115174
vt 0.995508 0.113889
vt 0.997102 0.113843
vt 0.989134 0.115309
vt 0.990730 0.113995
vt 0.990730 0.115328
vt 0.992325 0.115309
vt 0.992326 0.113977
vt 0.984318 0.115174
vt 0.985951 0.113889
vt 0.985915 0.115220
vt 0.987526 0.115266
vt 0.989134 0.113977
vt 0.987542 0.113935
vt 0.993934 0.115266
vt 0.993917 0.113935
vt 0.995544 0.115220
vt 0.856036 0.349577
vt 0.855184 0.350828
vt 0.855046 0.350462
vt 0.853718 0.350463
vt 0.856172 0.348269
vt 0.856385 0.349754
vt 0.852237 0.348173
vt 0.920500 0.235145
vt 0.918758 0.236520
vt 0.918758 0.235145
vt 0.911789 0.235145
vt 0.913531 0.236520
vt 0.911789 0.236520
vt 0.917016 0.236520
vt 0.917016 0.235145
vt 0.922242 0.235145
vt 0.920500 0.236520
vt 0.915273 0.235145
vt 0.913531 0.235145
vt 0.915273 0.236520
vt 0.923984 0.236520
vt 0.922242 0.236520
vt 0.910047 0.236520
vt 0.910047 0.235145
vt 0.749728 0.645771
vt 0.750054 0.645254
vt 0.750387 0.646487
vt 0.750544 0.647789
vt 0.746260 0.647409
vt 0.746872 0.647393
vt 0.747303 0.646155
vt 0.687626 0.619477
vt 0.689218 0.619477
vt 0.688422 0.621401
vt 0.690344 0.620602
vt 0.690345 0.622198
vt 0.689216 0.623326
vt 0.687624 0.623324
vt 0.686499 0.622199
vt 0.686498 0.620605
vt 0.745124 0.730733
vt 0.611961 0.761069
vt 0.250622 0.782275
vt 0.994129 0.499323
vt 0.255677 0.759270
vt 0.927979 0.593566
vt 0.990758 0.443703
vt 0.927952 0.501043
vt 0.882307 0.382941
vt 0.958117 0.335451
vt 0.882520 0.475345
vt 0.373781 0.778481
vt 0.396127 0.766832
vt 0.396493 0.777981
vt 0.367347 0.780134
vt 0.984358 0.113843
vt 0.856549 0.348165
vt 0.923984 0.235145
vt 0.750930 0.646205
s 1
usemtl Material.053
f 2/1/1 3/2/1 1/3/1
f 7/4/2 17/5/3 10/6/4
f 17/7/5 4/8/5 19/9/5
f 12/10/6 1/11/6 8/12/6
f 9/13/7 20/14/7 24/15/8
f 10/6/4 2/16/9 12/17/10
f 26/18/9 15/19/9 14/20/9
f 10/21/11 19/22/11 3/23/11
f 6/24/12 11/25/13 17/5/3
f 5/26/7 20/14/7 11/25/7
f 7/4/2 12/17/10 9/13/14
f 24/27/15 16/28/15 9/29/15
f 9/30/16 13/31/16 7/32/16
f 6/33/17 15/34/17 5/35/17
f 22/36/18 13/31/18 25/37/18
f 13/38/9 27/39/9 25/40/9
f 21/41/18 14/42/18 6/33/18
f 11/43/6 18/44/6 4/45/6
f 23/46/15 15/47/15 28/48/15
f 20/49/6 8/12/6 18/44/6
f 24/15/8 21/50/19 22/51/20
f 22/52/1 27/53/1 24/27/1
f 24/15/8 20/14/7 23/54/21
f 21/50/19 17/5/3 22/51/20
f 26/55/5 23/46/5 28/48/5
f 21/50/19 6/24/12 17/5/3
f 68/56/22 81/57/23 67/58/24
f 102/59/25 61/60/26 100/61/27
f 66/62/28 81/57/23 83/63/29
f 69/64/30 83/63/29 84/65/31
f 73/66/32 87/67/33 88/68/34
f 98/69/35 57/70/36 96/71/37
f 50/72/38 104/73/39 89/74/40
f 90/75/41 33/76/42 91/77/43
f 65/78/44 102/59/25 104/73/39
f 100/61/27 59/79/45 98/69/35
f 57/70/36 94/80/46 96/71/37
f 30/81/47 32/82/48 33/76/42
f 33/76/42 34/83/49 35/84/50
f 37/85/51 34/86/49 36/87/52
f 39/88/53 36/87/52 38/89/54
f 41/90/55 38/89/54 40/91/56
f 43/92/57 40/91/56 42/93/58
f 43/92/57 44/94/59 45/95/60
f 45/95/60 31/96/61 30/81/47
f 54/97/62 106/98/63 52/99/64
f 48/100/65 60/101/66 62/102/67
f 64/103/68 48/100/65 62/102/67
f 99/104/69 39/88/53 41/90/55
f 107/105/70 54/106/62 56/107/71
f 47/108/72 58/109/73 60/101/66
f 46/110/74 56/107/71 58/109/73
f 51/111/75 49/112/76 64/103/68
f 93/113/77 37/85/51 95/114/78
f 103/115/79 30/81/47 90/75/41
f 55/116/80 92/117/81 94/118/46
f 101/119/82 41/90/55 43/92/57
f 97/120/83 37/85/51 39/88/53
f 91/77/43 35/84/50 93/121/77
f 101/119/82 45/95/60 103/115/79
f 52/99/64 50/72/38 53/122/84
f 54/97/62 53/122/84 55/116/80
f 57/70/36 54/106/62 55/123/80
f 59/79/45 56/107/71 57/70/36
f 61/60/26 58/109/73 59/79/45
f 63/124/85 60/101/66 61/60/26
f 64/103/68 63/124/85 65/78/44
f 51/111/75 65/78/44 50/72/38
f 52/99/64 108/125/86 51/111/75
f 49/126/87 118/127/88 123/128/87
f 107/129/89 119/130/90 124/131/89
f 48/132/91 123/128/87 120/133/91
f 108/134/88 121/135/92 118/127/88
f 32/82/48 67/136/93 66/137/94
f 31/96/61 68/138/95 67/136/93
f 36/87/52 71/139/96 38/89/54
f 38/89/54 72/140/97 40/91/56
f 34/86/49 70/141/98 36/87/52
f 44/94/59 73/142/99 68/138/95
f 40/91/56 73/142/99 42/93/58
f 34/83/49 66/137/94 69/143/100
f 84/144/101 29/145/102 75/146/103
f 87/147/104 79/148/105 88/149/106
f 82/150/107 79/148/105 80/151/108
f 84/152/101 76/153/109 85/154/110
f 86/155/111 78/156/112 87/147/104
f 85/154/110 77/157/113 86/155/111
f 81/158/114 80/151/108 74/159/115
f 83/160/116 74/159/115 29/145/102
f 70/161/117 86/162/118 71/163/119
f 72/164/120 86/162/118 87/67/33
f 69/165/30 85/166/121 70/161/117
f 73/66/32 82/167/122 68/56/22
f 89/74/40 91/77/43 92/117/81
f 92/117/81 93/121/77 94/118/46
f 96/71/37 93/113/77 95/114/78
f 98/69/35 95/114/78 97/120/83
f 100/61/27 97/120/83 99/104/69
f 102/59/25 99/104/69 101/119/82
f 102/59/25 103/115/79 104/73/39
f 104/73/39 90/75/41 89/74/40
f 53/122/84 89/74/40 92/117/81
f 118/168/123 111/169/124 123/170/124
f 124/171/125 114/172/126 115/173/125
f 123/170/124 112/174/127 120/175/127
f 121/176/128 117/177/123 118/168/123
f 122/178/129 114/172/126 119/179/126
f 120/175/127 113/180/129 122/178/129
f 121/176/128 110/181/130 116/182/128
f 124/171/125 110/183/130 109/184/130
f 105/185/131 124/131/89 109/186/131
f 105/187/131 121/135/92 106/188/92
f 48/132/91 122/189/132 47/190/132
f 46/191/90 122/189/132 119/130/90
f 29/192/133 74/193/134 125/194/135
f 74/193/134 80/195/136 125/194/135
f 80/195/136 79/196/137 125/194/135
f 79/196/137 78/197/138 125/194/135
f 78/197/138 77/198/139 125/194/135
f 77/198/139 76/199/140 125/194/135
f 76/199/140 75/200/141 125/194/135
f 75/200/141 29/192/133 125/194/135
f 2/1/1 10/201/1 3/2/1
f 7/4/2 22/51/20 17/5/3
f 17/7/5 11/202/5 4/8/5
f 12/10/6 2/203/6 1/11/6
f 9/13/7 12/17/7 20/14/7
f 26/18/9 28/204/9 15/19/9
f 10/21/11 17/205/11 19/22/11
f 6/24/12 5/26/13 11/25/13
f 5/26/7 23/54/21 20/14/7
f 7/4/2 10/6/4 12/17/10
f 24/27/15 27/53/15 16/28/15
f 9/30/16 16/206/16 13/31/16
f 6/33/17 14/42/17 15/34/17
f 22/36/18 7/32/18 13/31/18
f 13/38/9 16/207/9 27/39/9
f 21/41/18 26/208/18 14/42/18
f 11/43/6 20/49/6 18/44/6
f 23/46/15 5/209/15 15/47/15
f 20/49/6 12/10/6 8/12/6
f 24/15/8 23/54/21 21/50/19
f 22/52/1 25/210/1 27/53/1
f 26/55/5 21/211/5 23/46/5
f 68/56/22 82/167/122 81/57/23
f 102/59/25 63/124/85 61/60/26
f 66/62/28 67/58/24 81/57/23
f 69/64/30 66/62/28 83/63/29
f 73/66/32 72/164/120 87/67/33
f 98/69/35 59/79/45 57/70/36
f 50/72/38 65/78/44 104/73/39
f 90/75/41 30/81/47 33/76/42
f 65/78/44 63/124/85 102/59/25
f 100/61/27 61/60/26 59/79/45
f 57/70/36 55/123/80 94/80/46
f 30/81/47 31/96/61 32/82/48
f 33/76/42 32/82/48 34/83/49
f 37/85/51 35/212/50 34/86/49
f 39/88/53 37/85/51 36/87/52
f 41/90/55 39/88/53 38/89/54
f 43/92/57 41/90/55 40/91/56
f 43/92/57 42/93/58 44/94/59
f 45/95/60 44/94/59 31/96/61
f 54/97/62 105/213/142 106/98/63
f 48/100/65 47/108/72 60/101/66
f 64/103/68 49/112/76 48/100/65
f 99/104/69 97/120/83 39/88/53
f 107/105/70 105/214/142 54/106/62
f 47/108/72 46/110/74 58/109/73
f 46/110/74 107/105/70 56/107/71
f 51/111/75 108/125/86 49/112/76
f 93/113/77 35/212/50 37/85/51
f 103/115/79 45/95/60 30/81/47
f 55/116/80 53/122/84 92/117/81
f 101/119/82 99/104/69 41/90/55
f 97/120/83 95/114/78 37/85/51
f 91/77/43 33/76/42 35/84/50
f 101/119/82 43/92/57 45/95/60
f 52/99/64 51/111/75 50/72/38
f 54/97/62 52/99/64 53/122/84
f 57/70/36 56/107/71 54/106/62
f 59/79/45 58/109/73 56/107/71
f 61/60/26 60/101/66 58/109/73
f 63/124/85 62/102/67 60/101/66
f 64/103/68 62/102/67 63/124/85
f 51/111/75 64/103/68 65/78/44
f 52/99/64 106/98/63 108/125/86
f 49/126/87 108/134/88 118/127/88
f 107/129/89 46/191/90 119/130/90
f 48/132/91 49/126/87 123/128/87
f 108/134/88 106/188/92 121/135/92
f 32/82/48 31/96/61 67/136/93
f 31/96/61 44/94/59 68/138/95
f 36/87/52 70/141/98 71/139/96
f 38/89/54 71/139/96 72/140/97
f 34/86/49 69/215/100 70/141/98
f 44/94/59 42/93/58 73/142/99
f 40/91/56 72/140/97 73/142/99
f 34/83/49 32/82/48 66/137/94
f 84/144/101 83/160/116 29/145/102
f 87/147/104 78/156/112 79/148/105
f 82/150/107 88/149/106 79/148/105
f 84/152/101 75/216/103 76/153/109
f 86/155/111 77/157/113 78/156/112
f 85/154/110 76/153/109 77/157/113
f 81/158/114 82/150/107 80/151/108
f 83/160/116 81/158/114 74/159/115
f 70/161/117 85/166/121 86/162/118
f 72/164/120 71/163/119 86/162/118
f 69/165/30 84/217/31 85/166/121
f 73/66/32 88/68/34 82/167/122
f 89/74/40 90/75/41 91/77/43
f 92/117/81 91/77/43 93/121/77
f 96/71/37 94/80/46 93/113/77
f 98/69/35 96/71/37 95/114/78
f 100/61/27 98/69/35 97/120/83
f 102/59/25 100/61/27 99/104/69
f 102/59/25 101/119/82 103/115/79
f 104/73/39 103/115/79 90/75/41
f 53/122/84 50/72/38 89/74/40
f 118/168/123 117/177/123 111/169/124
f 124/171/125 119/179/126 114/172/126
f 123/170/124 111/169/124 112/174/127
f 121/176/128 116/182/128 117/177/123
f 122/178/129 113/180/129 114/172/126
f 120/175/127 112/174/127 113/180/129
f 121/176/128 109/218/130 110/181/130
f 124/171/125 115/173/125 110/183/130
f 105/185/131 107/129/89 124/131/89
f 105/187/131 109/219/131 121/135/92
f 48/132/91 120/133/91 122/189/132
f 46/191/90 47/190/132 122/189/132
