# Blender 4.5.3 LTS
# www.blender.org
mtllib Jalador.mtl
o Broom
v 0.998020 0.080000 -0.387898
v 0.998020 0.080000 -1.142078
v 1.105760 0.080000 -1.142078
v 1.105760 0.080000 -0.387898
v 1.101890 0.127828 -0.414988
v 1.001890 0.127828 -0.414988
v 1.001890 0.127828 -1.114988
v 1.101890 0.127828 -1.114988
v 0.997150 0.149494 -0.407876
v 0.997150 0.127828 -0.407876
v 1.001890 0.127828 -0.407876
v 1.101890 0.127828 -0.407876
v 1.106630 0.127828 -0.407876
v 1.106630 0.149494 -0.407876
v 1.106630 0.127828 -1.114988
v 1.106630 0.127828 -0.414988
v 1.106630 0.149494 -1.122098
v 1.106630 0.127828 -1.122098
v 1.101890 0.127828 -1.122098
v 1.001890 0.127828 -1.122098
v 0.997150 0.127828 -1.122098
v 0.997150 0.149494 -1.122098
v 0.997150 0.127828 -0.414988
v 0.997150 0.127828 -1.114988
v 1.013742 0.166086 -0.424468
v 1.090038 0.166086 -0.424468
v 1.090038 0.166086 -1.105506
v 1.013742 0.166086 -1.105506
v 1.770340 1.684418 -0.764988
v 1.773644 1.682314 -0.764988
v 1.773172 1.682534 -0.766928
v 1.771884 1.683134 -0.768350
v 1.770126 1.683954 -0.768870
v 1.768366 1.684774 -0.768350
v 1.767078 1.685376 -0.766928
v 1.766606 1.685594 -0.764988
v 1.767078 1.685376 -0.763046
v 1.768366 1.684774 -0.761626
v 1.770126 1.683954 -0.761104
v 1.771884 1.683134 -0.761626
v 1.773172 1.682534 -0.763046
v 1.776290 1.679426 -0.764988
v 1.775378 1.679852 -0.768738
v 1.772890 1.681012 -0.771482
v 1.769492 1.682596 -0.772488
v 1.766094 1.684180 -0.771482
v 1.763606 1.685342 -0.768738
v 1.762694 1.685766 -0.764988
v 1.763606 1.685342 -0.761238
v 1.766094 1.684180 -0.758492
v 1.769492 1.682596 -0.757488
v 1.772890 1.681012 -0.758492
v 1.775378 1.679852 -0.761238
v 1.778098 1.675954 -0.764988
v 1.776810 1.676554 -0.770290
v 1.773290 1.678194 -0.774172
v 1.768484 1.680436 -0.775594
v 1.763678 1.682676 -0.774172
v 1.760160 1.684318 -0.770290
v 1.758872 1.684918 -0.764988
v 1.760160 1.684318 -0.759684
v 1.763678 1.682676 -0.755802
v 1.768484 1.680436 -0.754380
v 1.773290 1.678194 -0.755802
v 1.776810 1.676554 -0.759684
v 1.778944 1.672130 -0.764988
v 1.777368 1.672866 -0.771482
v 1.773058 1.674876 -0.776238
v 1.767172 1.677620 -0.777978
v 1.761284 1.680366 -0.776238
v 1.756976 1.682374 -0.771482
v 1.755398 1.683110 -0.764988
v 1.756976 1.682374 -0.758492
v 1.761284 1.680366 -0.753738
v 1.767172 1.677620 -0.751996
v 1.773058 1.674876 -0.753738
v 1.777368 1.672866 -0.758492
v 1.778774 1.668218 -0.764988
v 1.777014 1.669038 -0.772232
v 1.772208 1.671280 -0.777534
v 1.765642 1.674342 -0.779476
v 1.759076 1.677404 -0.777534
v 1.754270 1.679644 -0.772232
v 1.752512 1.680464 -0.764988
v 1.754270 1.679644 -0.757742
v 1.759076 1.677404 -0.752440
v 1.765642 1.674342 -0.750498
v 1.772208 1.671280 -0.752440
v 1.777014 1.669038 -0.757742
v 1.777596 1.664484 -0.764988
v 1.775776 1.665332 -0.772488
v 1.770800 1.667654 -0.777978
v 1.764002 1.670822 -0.779988
v 1.757204 1.673992 -0.777978
v 1.752228 1.676312 -0.772488
v 1.750408 1.677162 -0.764988
v 1.752228 1.676312 -0.757488
v 1.757204 1.673992 -0.751996
v 1.764002 1.670822 -0.749988
v 1.770800 1.667654 -0.751996
v 1.775776 1.665332 -0.757488
v 1.071824 0.150950 -0.764988
v 1.070002 0.151798 -0.772488
v 1.065026 0.154120 -0.777978
v 1.058230 0.157288 -0.779988
v 1.051432 0.160458 -0.777978
v 1.046456 0.162778 -0.772488
v 1.044634 0.163628 -0.764988
v 1.046456 0.162778 -0.757488
v 1.051432 0.160458 -0.751996
v 1.058230 0.157288 -0.749988
v 1.065026 0.154120 -0.751996
v 1.070002 0.151798 -0.757488
v 1.069720 0.147648 -0.764988
v 1.067960 0.148468 -0.772232
v 1.063154 0.150708 -0.777534
v 1.056588 0.153770 -0.779476
v 1.050022 0.156832 -0.777534
v 1.045216 0.159074 -0.772232
v 1.043458 0.159894 -0.764988
v 1.045216 0.159074 -0.757742
v 1.050022 0.156832 -0.752440
v 1.056588 0.153770 -0.750498
v 1.063154 0.150708 -0.752440
v 1.067960 0.148468 -0.757742
v 1.066832 0.145002 -0.764988
v 1.065256 0.145738 -0.771482
v 1.060946 0.147746 -0.776238
v 1.055060 0.150492 -0.777978
v 1.049172 0.153236 -0.776238
v 1.044864 0.155246 -0.771482
v 1.043286 0.155982 -0.764988
v 1.044864 0.155246 -0.758492
v 1.049172 0.153236 -0.753738
v 1.055060 0.150492 -0.751996
v 1.060946 0.147746 -0.753738
v 1.065256 0.145738 -0.758492
v 1.063360 0.143194 -0.764988
v 1.062072 0.143794 -0.770290
v 1.058554 0.145434 -0.774172
v 1.053746 0.147676 -0.775594
v 1.048940 0.149918 -0.774172
v 1.045422 0.151558 -0.770290
v 1.044134 0.152158 -0.764988
v 1.045422 0.151558 -0.759684
v 1.048940 0.149918 -0.755802
v 1.053746 0.147676 -0.754380
v 1.058554 0.145434 -0.755802
v 1.062072 0.143794 -0.759684
v 1.059536 0.142346 -0.764988
v 1.058626 0.142770 -0.768738
v 1.056138 0.143930 -0.771482
v 1.052740 0.145516 -0.772488
v 1.049340 0.147100 -0.771482
v 1.046852 0.148260 -0.768738
v 1.045942 0.148686 -0.764988
v 1.046852 0.148260 -0.761238
v 1.049340 0.147100 -0.758492
v 1.052740 0.145516 -0.757488
v 1.056138 0.143930 -0.758492
v 1.058626 0.142770 -0.761238
v 1.055624 0.142516 -0.764988
v 1.055154 0.142736 -0.766928
v 1.053866 0.143338 -0.768350
v 1.052106 0.144158 -0.768870
v 1.050346 0.144978 -0.768350
v 1.049058 0.145578 -0.766928
v 1.048588 0.145798 -0.764988
v 1.049058 0.145578 -0.763046
v 1.050346 0.144978 -0.761626
v 1.052106 0.144158 -0.761104
v 1.053866 0.143338 -0.761626
v 1.055154 0.142736 -0.763046
v 1.051890 0.143694 -0.764988
vn -0.5737 -0.4063 0.7111
vn -0.5737 -0.4063 -0.7111
vn 0.5737 -0.4064 -0.7111
vn 0.5737 -0.4064 0.7111
vn -0.0000 -0.5035 0.8640
vn -0.4611 -0.8289 0.3168
vn -0.4611 -0.8289 -0.3168
vn -0.0001 -0.5036 -0.8640
vn -0.6507 0.3914 0.6507
vn -0.5774 -0.5774 0.5774
vn -0.0000 -0.7071 0.7071
vn 0.5774 -0.5774 0.5774
vn 0.6507 0.3914 0.6507
vn 0.7071 -0.7071 -0.0000
vn 0.6507 0.3914 -0.6507
vn 0.5774 -0.5774 -0.5774
vn -0.0000 -0.7071 -0.7071
vn -0.5774 -0.5774 -0.5774
vn -0.6507 0.3914 -0.6507
vn -0.7071 -0.7071 -0.0000
vn -0.3002 0.9054 0.3002
vn 0.3002 0.9054 0.3002
vn 0.3002 0.9054 -0.3002
vn -0.3002 0.9054 -0.3002
vn 0.4225 0.9064 -0.0000
vn 0.6586 0.7525 -0.0000
vn 0.6246 0.7684 -0.1395
vn 0.5322 0.8114 -0.2416
vn 0.4058 0.8704 -0.2789
vn 0.2795 0.9293 -0.2414
vn 0.1871 0.9724 -0.1393
vn 0.1530 0.9882 -0.0000
vn 0.1871 0.9724 0.1394
vn 0.2794 0.9293 0.2413
vn 0.4058 0.8704 0.2789
vn 0.5322 0.8114 0.2415
vn 0.6246 0.7683 0.1396
vn 0.8296 0.5584 -0.0000
vn 0.7669 0.5876 -0.2581
vn 0.5958 0.6675 -0.4466
vn 0.3620 0.7764 -0.5160
vn 0.1282 0.8853 -0.4470
vn -0.0428 0.9652 -0.2581
vn -0.1056 0.9944 -0.0000
vn -0.0428 0.9652 0.2580
vn 0.1283 0.8853 0.4469
vn 0.3620 0.7764 0.5159
vn 0.5958 0.6673 0.4469
vn 0.7669 0.5876 0.2580
vn 0.9447 0.3279 -0.0000
vn 0.8575 0.3686 -0.3588
vn 0.6195 0.4796 -0.6214
vn 0.2943 0.6313 -0.7175
vn -0.0308 0.7829 -0.6214
vn -0.2689 0.8938 -0.3588
vn -0.3561 0.9344 -0.0000
vn -0.2689 0.8938 0.3588
vn -0.0308 0.7828 0.6215
vn 0.2943 0.6313 0.7175
vn 0.6195 0.4796 0.6215
vn 0.8575 0.3686 0.3588
vn 0.9971 0.0766 -0.0000
vn 0.8913 0.1260 -0.4356
vn 0.6022 0.2608 -0.7545
vn 0.2075 0.4449 -0.8712
vn -0.1873 0.6291 -0.7544
vn -0.4763 0.7638 -0.4356
vn -0.5822 0.8131 -0.0000
vn -0.4763 0.7638 0.4356
vn -0.1874 0.6291 0.7544
vn 0.2075 0.4449 0.8712
vn 0.6023 0.2608 0.7545
vn 0.8913 0.1260 0.4356
vn 0.9839 -0.1789 -0.0000
vn 0.8664 -0.1241 -0.4837
vn 0.5455 0.0255 -0.8377
vn 0.1071 0.2299 -0.9673
vn -0.3312 0.4343 -0.8377
vn -0.6521 0.5839 -0.4836
vn -0.7695 0.6386 -0.0000
vn -0.6521 0.5839 0.4836
vn -0.3312 0.4343 0.8377
vn 0.1071 0.2299 0.9673
vn 0.5455 0.0255 0.8377
vn 0.8664 -0.1241 0.4837
vn 0.9318 -0.3630 -0.0000
vn 0.8106 -0.3065 -0.4989
vn 0.4796 -0.1520 -0.8642
vn 0.0274 0.0587 -0.9979
vn -0.4248 0.2696 -0.8642
vn -0.7559 0.4239 -0.4989
vn -0.8771 0.4804 -0.0000
vn -0.7560 0.4239 0.4988
vn -0.4248 0.2694 0.8642
vn 0.0274 0.0586 0.9979
vn 0.4796 -0.1521 0.8642
vn 0.8107 -0.3065 0.4988
vn 0.8770 -0.4804 -0.0000
vn 0.7558 -0.4239 -0.4990
vn 0.4248 -0.2696 -0.8642
vn -0.0273 -0.0588 -0.9979
vn -0.4795 0.1522 -0.8642
vn -0.8106 0.3066 -0.4990
vn -0.9318 0.3631 -0.0000
vn -0.8106 0.3066 0.4989
vn -0.4795 0.1523 0.8642
vn -0.0273 -0.0587 0.9979
vn 0.4248 -0.2695 0.8642
vn 0.7559 -0.4239 0.4989
vn 0.7695 -0.6387 -0.0000
vn 0.6520 -0.5839 -0.4837
vn 0.3312 -0.4343 -0.8377
vn -0.1072 -0.2298 -0.9673
vn -0.5456 -0.0254 -0.8377
vn -0.8664 0.1242 -0.4836
vn -0.9839 0.1790 -0.0000
vn -0.8664 0.1242 0.4836
vn -0.5455 -0.0254 0.8377
vn -0.1072 -0.2298 0.9673
vn 0.3312 -0.4343 0.8377
vn 0.6520 -0.5839 0.4837
vn 0.5822 -0.8131 -0.0000
vn 0.4765 -0.7637 -0.4356
vn 0.1874 -0.6290 -0.7545
vn -0.2074 -0.4449 -0.8713
vn -0.6023 -0.2608 -0.7545
vn -0.8913 -0.1261 -0.4356
vn -0.9971 -0.0767 -0.0000
vn -0.8913 -0.1261 0.4356
vn -0.6023 -0.2608 0.7544
vn -0.2074 -0.4449 0.8712
vn 0.1874 -0.6290 0.7545
vn 0.4764 -0.7637 0.4356
vn 0.3562 -0.9344 -0.0000
vn 0.2690 -0.8938 -0.3587
vn 0.0309 -0.7829 -0.6214
vn -0.2944 -0.6312 -0.7176
vn -0.6196 -0.4796 -0.6214
vn -0.8576 -0.3685 -0.3588
vn -0.9447 -0.3279 -0.0000
vn -0.8576 -0.3685 0.3588
vn -0.6196 -0.4795 0.6214
vn -0.2944 -0.6312 0.7176
vn 0.0309 -0.7829 0.6214
vn 0.2690 -0.8938 0.3588
vn 0.1057 -0.9944 -0.0000
vn 0.0429 -0.9652 -0.2580
vn -0.1283 -0.8854 -0.4468
vn -0.3620 -0.7764 -0.5160
vn -0.5958 -0.6673 -0.4469
vn -0.7670 -0.5875 -0.2580
vn -0.8297 -0.5582 -0.0000
vn -0.7670 -0.5875 0.2579
vn -0.5958 -0.6674 0.4469
vn -0.3620 -0.7764 0.5159
vn -0.1284 -0.8854 0.4468
vn 0.0429 -0.9652 0.2579
vn -0.1532 -0.9882 -0.0000
vn -0.1869 -0.9724 -0.1393
vn -0.2794 -0.9293 -0.2413
vn -0.4060 -0.8703 -0.2789
vn -0.5321 -0.8115 -0.2416
vn -0.6247 -0.7683 -0.1393
vn -0.6586 -0.7524 -0.0000
vn -0.6247 -0.7683 0.1393
vn -0.5320 -0.8115 0.2416
vn -0.4057 -0.8704 0.2790
vn -0.2796 -0.9292 0.2416
vn -0.1871 -0.9724 0.1396
vn -0.4226 -0.9063 -0.0000
vt 1.000000 0.000000
vt 1.000000 1.000000
vt 0.000000 1.000000
vt 0.000000 0.000000
vt 1.000000 0.797100
vt 0.000000 0.797100
vt -0.047400 0.912000
vt -0.047400 0.797100
vt 1.047400 0.797100
vt 1.047400 0.912000
vt 0.000000 0.912000
vt 1.000000 0.912000
vt 0.118500 0.013500
vt 0.881500 0.013500
vt 0.881500 0.986500
vt 0.118500 0.986500
vt 0.765200 1.010200
vt 0.765200 -0.010200
vt 0.234800 -0.010200
vt 0.234800 1.010200
vt 1.047400 -0.336700
vt -0.047400 -0.336700
vt -0.047400 1.336700
vt 1.047400 1.336700
vt 0.500000 0.500000
vt 0.629400 0.500000
vt 0.612100 0.564700
vt 0.564700 0.612100
vt 0.500000 0.629400
vt 0.435300 0.612100
vt 0.387900 0.564700
vt 0.370600 0.500000
vt 0.387900 0.435300
vt 0.435300 0.387900
vt 0.500000 0.370600
vt 0.564700 0.387900
vt 0.612100 0.435300
vt 0.750000 0.500000
vt 0.716500 0.625000
vt 0.625000 0.716500
vt 0.500000 0.750000
vt 0.375000 0.716500
vt 0.283500 0.625000
vt 0.250000 0.500000
vt 0.283500 0.375000
vt 0.375000 0.283500
vt 0.500000 0.250000
vt 0.625000 0.283500
vt 0.716500 0.375000
vt 0.853600 0.500000
vt 0.806200 0.676800
vt 0.676800 0.806200
vt 0.500000 0.853600
vt 0.323200 0.806200
vt 0.193800 0.676800
vt 0.146400 0.500000
vt 0.193800 0.323200
vt 0.323200 0.193800
vt 0.500000 0.146400
vt 0.676800 0.193800
vt 0.806200 0.323200
vt 0.933000 0.500000
vt 0.875000 0.716500
vt 0.716500 0.875000
vt 0.500000 0.933000
vt 0.283500 0.875000
vt 0.125000 0.716500
vt 0.067000 0.500000
vt 0.125000 0.283500
vt 0.283500 0.125000
vt 0.500000 0.067000
vt 0.716500 0.125000
vt 0.875000 0.283500
vt 0.983000 0.500000
vt 0.918300 0.741500
vt 0.741500 0.918300
vt 0.500000 0.983000
vt 0.258500 0.918300
vt 0.081700 0.741500
vt 0.017000 0.500000
vt 0.081700 0.258500
vt 0.258500 0.081700
vt 0.500000 0.017000
vt 0.741500 0.081700
vt 0.918300 0.258500
vt 1.000000 0.500000
vt 0.933000 0.750000
vt 0.750000 0.933000
vt 0.500000 1.000000
vt 0.250000 0.933000
vt 0.067000 0.750000
vt 0.000000 0.500000
vt 0.067000 0.250000
vt 0.250000 0.067000
vt 0.500000 0.000000
vt 0.750000 0.067000
vt 0.933000 0.250000
vt 0.083300 0.000000
vt 0.083300 1.000000
vt 0.166700 0.000000
vt 0.166700 1.000000
vt 0.250000 0.000000
vt 0.250000 1.000000
vt 0.333300 0.000000
vt 0.333300 1.000000
vt 0.416700 0.000000
vt 0.416700 1.000000
vt 0.583300 0.000000
vt 0.583300 1.000000
vt 0.666700 0.000000
vt 0.666700 1.000000
vt 0.750000 0.000000
vt 0.750000 1.000000
vt 0.833300 0.000000
vt 0.833300 1.000000
vt 0.916700 0.000000
vt 0.916700 1.000000
s 1
usemtl Material.056
f 1/1/1 2/2/2 3/3/3 4/4/4
f 1/4/1 4/1/4 5/5/5 6/6/6
f 3/4/3 2/1/2 7/5/7 8/6/8
f 2/4/2 1/1/1 6/5/6 7/6/7
f 9/7/9 10/8/10 11/6/11 12/5/11 13/9/12 14/10/13
f 5/6/5 4/4/4 3/1/3 8/5/8 15/5/14 16/6/14
f 17/7/15 18/8/16 19/6/17 20/5/17 21/9/18 22/10/19
f 7/6/7 6/5/6 23/5/20 24/6/20
f 22/11/19 21/6/18 24/6/20 23/5/20 10/5/10 9/12/9
f 23/5/20 6/5/6 11/5/11 10/5/10
f 6/6/6 5/5/5 12/5/11 11/6/11
f 5/6/5 16/6/14 13/6/12 12/6/11
f 14/11/13 13/6/12 16/6/14 15/5/14 18/5/16 17/12/15
f 15/5/14 8/5/8 19/5/17 18/5/16
f 8/6/8 7/5/7 20/5/17 19/6/17
f 7/6/7 24/6/20 21/6/18 20/6/17
f 25/13/21 26/14/22 27/15/23 28/16/24
f 17/17/15 27/15/23 26/14/22 14/18/13
f 9/19/9 25/13/21 28/16/24 22/20/19
f 14/21/13 26/14/22 25/13/21 9/22/9
f 22/23/19 28/16/24 27/15/23 17/24/15
f 29/25/25 30/26/26 31/27/27
f 29/25/25 31/27/27 32/28/28
f 29/25/25 32/28/28 33/29/29
f 29/25/25 33/29/29 34/30/30
f 29/25/25 34/30/30 35/31/31
f 29/25/25 35/31/31 36/32/32
f 29/25/25 36/32/32 37/33/33
f 29/25/25 37/33/33 38/34/34
f 29/25/25 38/34/34 39/35/35
f 29/25/25 39/35/35 40/36/36
f 29/25/25 40/36/36 41/37/37
f 29/25/25 41/37/37 30/26/26
f 30/26/26 42/38/38 43/39/39 31/27/27
f 31/27/27 43/39/39 44/40/40 32/28/28
f 32/28/28 44/40/40 45/41/41 33/29/29
f 33/29/29 45/41/41 46/42/42 34/30/30
f 34/30/30 46/42/42 47/43/43 35/31/31
f 35/31/31 47/43/43 48/44/44 36/32/32
f 36/32/32 48/44/44 49/45/45 37/33/33
f 37/33/33 49/45/45 50/46/46 38/34/34
f 38/34/34 50/46/46 51/47/47 39/35/35
f 39/35/35 51/47/47 52/48/48 40/36/36
f 40/36/36 52/48/48 53/49/49 41/37/37
f 41/37/37 53/49/49 42/38/38 30/26/26
f 42/38/38 54/50/50 55/51/51 43/39/39
f 43/39/39 55/51/51 56/52/52 44/40/40
f 44/40/40 56/52/52 57/53/53 45/41/41
f 45/41/41 57/53/53 58/54/54 46/42/42
f 46/42/42 58/54/54 59/55/55 47/43/43
f 47/43/43 59/55/55 60/56/56 48/44/44
f 48/44/44 60/56/56 61/57/57 49/45/45
f 49/45/45 61/57/57 62/58/58 50/46/46
f 50/46/46 62/58/58 63/59/59 51/47/47
f 51/47/47 63/59/59 64/60/60 52/48/48
f 52/48/48 64/60/60 65/61/61 53/49/49
f 53/49/49 65/61/61 54/50/50 42/38/38
f 54/50/50 66/62/62 67/63/63 55/51/51
f 55/51/51 67/63/63 68/64/64 56/52/52
f 56/52/52 68/64/64 69/65/65 57/53/53
f 57/53/53 69/65/65 70/66/66 58/54/54
f 58/54/54 70/66/66 71/67/67 59/55/55
f 59/55/55 71/67/67 72/68/68 60/56/56
f 60/56/56 72/68/68 73/69/69 61/57/57
f 61/57/57 73/69/69 74/70/70 62/58/58
f 62/58/58 74/70/70 75/71/71 63/59/59
f 63/59/59 75/71/71 76/72/72 64/60/60
f 64/60/60 76/72/72 77/73/73 65/61/61
f 65/61/61 77/73/73 66/62/62 54/50/50
f 66/62/62 78/74/74 79/75/75 67/63/63
f 67/63/63 79/75/75 80/76/76 68/64/64
f 68/64/64 80/76/76 81/77/77 69/65/65
f 69/65/65 81/77/77 82/78/78 70/66/66
f 70/66/66 82/78/78 83/79/79 71/67/67
f 71/67/67 83/79/79 84/80/80 72/68/68
f 72/68/68 84/80/80 85/81/81 73/69/69
f 73/69/69 85/81/81 86/82/82 74/70/70
f 74/70/70 86/82/82 87/83/83 75/71/71
f 75/71/71 87/83/83 88/84/84 76/72/72
f 76/72/72 88/84/84 89/85/85 77/73/73
f 77/73/73 89/85/85 78/74/74 66/62/62
f 78/74/74 90/86/86 91/87/87 79/75/75
f 79/75/75 91/87/87 92/88/88 80/76/76
f 80/76/76 92/88/88 93/89/89 81/77/77
f 81/77/77 93/89/89 94/90/90 82/78/78
f 82/78/78 94/90/90 95/91/91 83/79/79
f 83/79/79 95/91/91 96/92/92 84/80/80
f 84/80/80 96/92/92 97/93/93 85/81/81
f 85/81/81 97/93/93 98/94/94 86/82/82
f 86/82/82 98/94/94 99/95/95 87/83/83
f 87/83/83 99/95/95 100/96/96 88/84/84
f 88/84/84 100/96/96 101/97/97 89/85/85
f 89/85/85 101/97/97 90/86/86 78/74/74
f 90/3/86 102/4/98 103/98/99 91/99/87
f 91/99/87 103/98/99 104/100/100 92/101/88
f 92/101/88 104/100/100 105/102/101 93/103/89
f 93/103/89 105/102/101 106/104/102 94/105/90
f 94/105/90 106/104/102 107/106/103 95/107/91
f 95/107/91 107/106/103 108/95/104 96/89/92
f 96/89/92 108/95/104 109/108/105 97/109/93
f 97/109/93 109/108/105 110/110/106 98/111/94
f 98/111/94 110/110/106 111/112/107 99/113/95
f 99/113/95 111/112/107 112/114/108 100/115/96
f 100/115/96 112/114/108 113/116/109 101/117/97
f 101/117/97 113/116/109 102/1/98 90/2/86
f 102/86/98 114/74/110 115/75/111 103/87/99
f 103/87/99 115/75/111 116/76/112 104/88/100
f 104/88/100 116/76/112 117/77/113 105/89/101
f 105/89/101 117/77/113 118/78/114 106/90/102
f 106/90/102 118/78/114 119/79/115 107/91/103
f 107/91/103 119/79/115 120/80/116 108/92/104
f 108/92/104 120/80/116 121/81/117 109/93/105
f 109/93/105 121/81/117 122/82/118 110/94/106
f 110/94/106 122/82/118 123/83/119 111/95/107
f 111/95/107 123/83/119 124/84/120 112/96/108
f 112/96/108 124/84/120 125/85/121 113/97/109
f 113/97/109 125/85/121 114/74/110 102/86/98
f 114/74/110 126/62/122 127/63/123 115/75/111
f 115/75/111 127/63/123 128/64/124 116/76/112
f 116/76/112 128/64/124 129/65/125 117/77/113
f 117/77/113 129/65/125 130/66/126 118/78/114
f 118/78/114 130/66/126 131/67/127 119/79/115
f 119/79/115 131/67/127 132/68/128 120/80/116
f 120/80/116 132/68/128 133/69/129 121/81/117
f 121/81/117 133/69/129 134/70/130 122/82/118
f 122/82/118 134/70/130 135/71/131 123/83/119
f 123/83/119 135/71/131 136/72/132 124/84/120
f 124/84/120 136/72/132 137/73/133 125/85/121
f 125/85/121 137/73/133 126/62/122 114/74/110
f 126/62/122 138/50/134 139/51/135 127/63/123
f 127/63/123 139/51/135 140/52/136 128/64/124
f 128/64/124 140/52/136 141/53/137 129/65/125
f 129/65/125 141/53/137 142/54/138 130/66/126
f 130/66/126 142/54/138 143/55/139 131/67/127
f 131/67/127 143/55/139 144/56/140 132/68/128
f 132/68/128 144/56/140 145/57/141 133/69/129
f 133/69/129 145/57/141 146/58/142 134/70/130
f 134/70/130 146/58/142 147/59/143 135/71/131
f 135/71/131 147/59/143 148/60/144 136/72/132
f 136/72/132 148/60/144 149/61/145 137/73/133
f 137/73/133 149/61/145 138/50/134 126/62/122
f 138/50/134 150/38/146 151/39/147 139/51/135
f 139/51/135 151/39/147 152/40/148 140/52/136
f 140/52/136 152/40/148 153/41/149 141/53/137
f 141/53/137 153/41/149 154/42/150 142/54/138
f 142/54/138 154/42/150 155/43/151 143/55/139
f 143/55/139 155/43/151 156/44/152 144/56/140
f 144/56/140 156/44/152 157/45/153 145/57/141
f 145/57/141 157/45/153 158/46/154 146/58/142
f 146/58/142 158/46/154 159/47/155 147/59/143
f 147/59/143 159/47/155 160/48/156 148/60/144
f 148/60/144 160/48/156 161/49/157 149/61/145
f 149/61/145 161/49/157 150/38/146 138/50/134
f 150/38/146 162/26/158 163/27/159 151/39/147
f 151/39/147 163/27/159 164/28/160 152/40/148
f 152/40/148 164/28/160 165/29/161 153/41/149
f 153/41/149 165/29/161 166/30/162 154/42/150
f 154/42/150 166/30/162 167/31/163 155/43/151
f 155/43/151 167/31/163 168/32/164 156/44/152
f 156/44/152 168/32/164 169/33/165 157/45/153
f 157/45/153 169/33/165 170/34/166 158/46/154
f 158/46/154 170/34/166 171/35/167 159/47/155
f 159/47/155 171/35/167 172/36/168 160/48/156
f 160/48/156 172/36/168 173/37/169 161/49/157
f 161/49/157 173/37/169 162/26/158 150/38/146
f 162/26/158 174/25/170 163/27/159
f 163/27/159 174/25/170 164/28/160
f 164/28/160 174/25/170 165/29/161
f 165/29/161 174/25/170 166/30/162
f 166/30/162 174/25/170 167/31/163
f 167/31/163 174/25/170 168/32/164
f 168/32/164 174/25/170 169/33/165
f 169/33/165 174/25/170 170/34/166
f 170/34/166 174/25/170 171/35/167
f 171/35/167 174/25/170 172/36/168
f 172/36/168 174/25/170 173/37/169
f 173/37/169 174/25/170 162/26/158
