# Blender 4.5.3 LTS
# www.blender.org
mtllib LamparasCocina1.mtl
o Cilindro.003
v 1.530000 2.300000 2.860000
v 1.530000 2.260000 2.860000
v 1.567067 2.300000 2.863651
v 1.567067 2.260000 2.863651
v 1.602710 2.300000 2.874463
v 1.602710 2.260000 2.874463
v 1.635558 2.300000 2.892020
v 1.635558 2.260000 2.892020
v 1.664350 2.300000 2.915649
v 1.664350 2.260000 2.915649
v 1.687979 2.300000 2.944441
v 1.687979 2.260000 2.944441
v 1.705537 2.300000 2.977290
v 1.705537 2.260000 2.977290
v 1.716349 2.300000 3.012933
v 1.716349 2.260000 3.012933
v 1.720000 2.300000 3.050000
v 1.720000 2.260000 3.050000
v 1.716349 2.300000 3.087067
v 1.716349 2.260000 3.087067
v 1.705537 2.300000 3.122710
v 1.705537 2.260000 3.122710
v 1.687979 2.300000 3.155558
v 1.687979 2.260000 3.155558
v 1.664350 2.300000 3.184350
v 1.664350 2.260000 3.184350
v 1.635558 2.300000 3.207979
v 1.635558 2.260000 3.207979
v 1.602710 2.300000 3.225537
v 1.602710 2.260000 3.225537
v 1.567067 2.300000 3.236349
v 1.567067 2.260000 3.236349
v 1.530000 2.300000 3.240000
v 1.530000 2.260000 3.240000
v 1.492933 2.300000 3.236349
v 1.492933 2.260000 3.236349
v 1.457290 2.300000 3.225537
v 1.457290 2.260000 3.225537
v 1.424441 2.300000 3.207979
v 1.424441 2.260000 3.207979
v 1.395650 2.300000 3.184350
v 1.395650 2.260000 3.184350
v 1.372021 2.300000 3.155558
v 1.372021 2.260000 3.155558
v 1.354463 2.300000 3.122710
v 1.354463 2.260000 3.122710
v 1.343651 2.300000 3.087067
v 1.343651 2.260000 3.087067
v 1.340000 2.300000 3.050000
v 1.340000 2.260000 3.050000
v 1.343651 2.300000 3.012933
v 1.343651 2.260000 3.012933
v 1.354463 2.300000 2.977290
v 1.354463 2.260000 2.977290
v 1.372021 2.300000 2.944441
v 1.372021 2.260000 2.944441
v 1.395650 2.300000 2.915649
v 1.395650 2.260000 2.915649
v 1.424441 2.300000 2.892020
v 1.424441 2.260000 2.892020
v 1.457290 2.300000 2.874463
v 1.457290 2.260000 2.874463
v 1.492933 2.300000 2.863651
v 1.492933 2.260000 2.863651
v -0.490000 2.300000 -2.020000
v -0.490000 2.260000 -2.020000
v -0.452933 2.300000 -2.016350
v -0.452933 2.260000 -2.016350
v -0.417290 2.300000 -2.005538
v -0.417290 2.260000 -2.005538
v -0.384441 2.300000 -1.987980
v -0.384441 2.260000 -1.987980
v -0.355650 2.300000 -1.964351
v -0.355650 2.260000 -1.964351
v -0.332021 2.300000 -1.935559
v -0.332021 2.260000 -1.935559
v -0.314463 2.300000 -1.902710
v -0.314463 2.260000 -1.902710
v -0.303651 2.300000 -1.867068
v -0.303651 2.260000 -1.867068
v -0.300000 2.300000 -1.830000
v -0.300000 2.260000 -1.830000
v -0.303651 2.300000 -1.792933
v -0.303651 2.260000 -1.792933
v -0.314463 2.300000 -1.757291
v -0.314463 2.260000 -1.757291
v -0.332021 2.300000 -1.724442
v -0.332021 2.260000 -1.724442
v -0.355650 2.300000 -1.695650
v -0.355650 2.260000 -1.695650
v -0.384441 2.300000 -1.672021
v -0.384441 2.260000 -1.672021
v -0.417290 2.300000 -1.654463
v -0.417290 2.260000 -1.654463
v -0.452933 2.300000 -1.643651
v -0.452933 2.260000 -1.643651
v -0.490000 2.300000 -1.640000
v -0.490000 2.260000 -1.640000
v -0.527067 2.300000 -1.643651
v -0.527067 2.260000 -1.643651
v -0.562710 2.300000 -1.654463
v -0.562710 2.260000 -1.654463
v -0.595558 2.300000 -1.672021
v -0.595558 2.260000 -1.672021
v -0.624350 2.300000 -1.695650
v -0.624350 2.260000 -1.695650
v -0.647979 2.300000 -1.724442
v -0.647979 2.260000 -1.724442
v -0.665537 2.300000 -1.757291
v -0.665537 2.260000 -1.757291
v -0.676349 2.300000 -1.792933
v -0.676349 2.260000 -1.792933
v -0.680000 2.300000 -1.830000
v -0.680000 2.260000 -1.830000
v -0.676349 2.300000 -1.867068
v -0.676349 2.260000 -1.867068
v -0.665537 2.300000 -1.902710
v -0.665537 2.260000 -1.902710
v -0.647979 2.300000 -1.935559
v -0.647979 2.260000 -1.935559
v -0.624350 2.300000 -1.964351
v -0.624350 2.260000 -1.964351
v -0.595558 2.300000 -1.987980
v -0.595558 2.260000 -1.987980
v -0.562710 2.300000 -2.005538
v -0.562710 2.260000 -2.005538
v -0.527067 2.300000 -2.016350
v -0.527067 2.260000 -2.016350
v -1.630000 2.300000 2.859999
v -1.630000 2.260000 2.859999
v -1.592932 2.300000 2.863650
v -1.592932 2.260000 2.863650
v -1.557290 2.300000 2.874462
v -1.557290 2.260000 2.874462
v -1.524441 2.300000 2.892020
v -1.524441 2.260000 2.892020
v -1.495649 2.300000 2.915649
v -1.495649 2.260000 2.915649
v -1.472021 2.300000 2.944441
v -1.472021 2.260000 2.944441
v -1.454462 2.300000 2.977289
v -1.454462 2.260000 2.977289
v -1.443650 2.300000 3.012932
v -1.443650 2.260000 3.012932
v -1.440000 2.300000 3.049999
v -1.440000 2.260000 3.049999
v -1.443650 2.300000 3.087066
v -1.443650 2.260000 3.087066
v -1.454462 2.300000 3.122709
v -1.454462 2.260000 3.122709
v -1.472021 2.300000 3.155558
v -1.472021 2.260000 3.155558
v -1.495649 2.300000 3.184350
v -1.495649 2.260000 3.184350
v -1.524441 2.300000 3.207978
v -1.524441 2.260000 3.207978
v -1.557290 2.300000 3.225536
v -1.557290 2.260000 3.225536
v -1.592932 2.300000 3.236349
v -1.592932 2.260000 3.236349
v -1.630000 2.300000 3.239999
v -1.630000 2.260000 3.239999
v -1.667067 2.300000 3.236349
v -1.667067 2.260000 3.236349
v -1.702709 2.300000 3.225536
v -1.702709 2.260000 3.225536
v -1.735558 2.300000 3.207978
v -1.735558 2.260000 3.207978
v -1.764350 2.300000 3.184350
v -1.764350 2.260000 3.184350
v -1.787979 2.300000 3.155558
v -1.787979 2.260000 3.155558
v -1.805537 2.300000 3.122709
v -1.805537 2.260000 3.122709
v -1.816349 2.300000 3.087066
v -1.816349 2.260000 3.087066
v -1.820000 2.300000 3.049999
v -1.820000 2.260000 3.049999
v -1.816349 2.300000 3.012932
v -1.816349 2.260000 3.012932
v -1.805537 2.300000 2.977289
v -1.805537 2.260000 2.977289
v -1.787979 2.300000 2.944441
v -1.787979 2.260000 2.944441
v -1.764350 2.300000 2.915649
v -1.764350 2.260000 2.915649
v -1.735558 2.300000 2.892020
v -1.735558 2.260000 2.892020
v -1.702709 2.300000 2.874462
v -1.702709 2.260000 2.874462
v -1.667067 2.300000 2.863650
v -1.667067 2.260000 2.863650
vn -0.0000 0.9938 -0.1110
vn -0.0000 -0.9938 -0.1110
vn 0.0217 0.9938 -0.1089
vn 0.0217 -0.9938 -0.1089
vn 0.0425 0.9938 -0.1026
vn 0.0425 -0.9938 -0.1026
vn 0.0617 0.9938 -0.0923
vn 0.0617 -0.9938 -0.0923
vn 0.0785 0.9938 -0.0785
vn 0.0785 -0.9938 -0.0785
vn 0.0923 0.9938 -0.0617
vn 0.0923 -0.9938 -0.0617
vn 0.1026 0.9938 -0.0425
vn 0.1026 -0.9938 -0.0425
vn 0.1089 0.9938 -0.0217
vn 0.1089 -0.9938 -0.0217
vn 0.1110 0.9938 -0.0000
vn 0.1110 -0.9938 -0.0000
vn 0.1089 0.9938 0.0217
vn 0.1089 -0.9938 0.0217
vn 0.1026 0.9938 0.0425
vn 0.1026 -0.9938 0.0425
vn 0.0923 0.9938 0.0617
vn 0.0923 -0.9938 0.0617
vn 0.0785 0.9938 0.0785
vn 0.0785 -0.9938 0.0785
vn 0.0617 0.9938 0.0923
vn 0.0617 -0.9938 0.0923
vn 0.0425 0.9938 0.1026
vn 0.0425 -0.9938 0.1026
vn 0.0217 0.9938 0.1089
vn 0.0217 -0.9938 0.1089
vn -0.0000 0.9938 0.1110
vn -0.0000 -0.9938 0.1110
vn -0.0217 0.9938 0.1089
vn -0.0217 -0.9938 0.1089
vn -0.0425 0.9938 0.1026
vn -0.0425 -0.9938 0.1026
vn -0.0617 0.9938 0.0923
vn -0.0617 -0.9938 0.0923
vn -0.0785 0.9938 0.0785
vn -0.0785 -0.9938 0.0785
vn -0.0923 0.9938 0.0617
vn -0.0923 -0.9938 0.0617
vn -0.1026 0.9938 0.0425
vn -0.1026 -0.9938 0.0425
vn -0.1089 0.9938 0.0217
vn -0.1089 -0.9938 0.0217
vn -0.1110 0.9938 -0.0000
vn -0.1110 -0.9938 -0.0000
vn -0.1089 0.9938 -0.0217
vn -0.1089 -0.9938 -0.0217
vn -0.1026 0.9938 -0.0425
vn -0.1026 -0.9938 -0.0425
vn -0.0923 0.9938 -0.0617
vn -0.0923 -0.9938 -0.0617
vn -0.0785 0.9938 -0.0785
vn -0.0785 -0.9938 -0.0785
vn -0.0617 0.9938 -0.0923
vn -0.0617 -0.9938 -0.0923
vn -0.0425 0.9938 -0.1026
vn -0.0425 -0.9938 -0.1026
vn -0.0217 0.9938 -0.1089
vn -0.0217 -0.9938 -0.1089
vt 1.000000 0.500000
vt 1.000000 1.000000
vt 0.968750 1.000000
vt 0.968750 0.500000
vt 0.937500 1.000000
vt 0.937500 0.500000
vt 0.906250 1.000000
vt 0.906250 0.500000
vt 0.875000 1.000000
vt 0.875000 0.500000
vt 0.843750 1.000000
vt 0.843750 0.500000
vt 0.812500 1.000000
vt 0.812500 0.500000
vt 0.781250 1.000000
vt 0.781250 0.500000
vt 0.750000 1.000000
vt 0.750000 0.500000
vt 0.718750 1.000000
vt 0.718750 0.500000
vt 0.687500 1.000000
vt 0.687500 0.500000
vt 0.656250 1.000000
vt 0.656250 0.500000
vt 0.625000 1.000000
vt 0.625000 0.500000
vt 0.593750 1.000000
vt 0.593750 0.500000
vt 0.562500 1.000000
vt 0.562500 0.500000
vt 0.531250 1.000000
vt 0.531250 0.500000
vt 0.500000 1.000000
vt 0.500000 0.500000
vt 0.468750 1.000000
vt 0.468750 0.500000
vt 0.437500 1.000000
vt 0.437500 0.500000
vt 0.406250 1.000000
vt 0.406250 0.500000
vt 0.375000 1.000000
vt 0.375000 0.500000
vt 0.343750 1.000000
vt 0.343750 0.500000
vt 0.312500 1.000000
vt 0.312500 0.500000
vt 0.281250 1.000000
vt 0.281250 0.500000
vt 0.250000 1.000000
vt 0.250000 0.500000
vt 0.218750 1.000000
vt 0.218750 0.500000
vt 0.187500 1.000000
vt 0.187500 0.500000
vt 0.156250 1.000000
vt 0.156250 0.500000
vt 0.125000 1.000000
vt 0.125000 0.500000
vt 0.093750 1.000000
vt 0.093750 0.500000
vt 0.062500 1.000000
vt 0.062500 0.500000
vt 0.296822 0.485388
vt 0.250000 0.490000
vt 0.203178 0.485388
vt 0.158156 0.471731
vt 0.116663 0.449553
vt 0.080294 0.419706
vt 0.050447 0.383337
vt 0.028269 0.341844
vt 0.014612 0.296822
vt 0.010000 0.250000
vt 0.014612 0.203178
vt 0.028269 0.158156
vt 0.050447 0.116663
vt 0.080294 0.080294
vt 0.116663 0.050447
vt 0.158156 0.028269
vt 0.203178 0.014612
vt 0.250000 0.010000
vt 0.296822 0.014612
vt 0.341844 0.028269
vt 0.383337 0.050447
vt 0.419706 0.080294
vt 0.449553 0.116663
vt 0.471731 0.158156
vt 0.485388 0.203178
vt 0.490000 0.250000
vt 0.485388 0.296822
vt 0.471731 0.341844
vt 0.449553 0.383337
vt 0.419706 0.419706
vt 0.383337 0.449553
vt 0.341844 0.471731
vt 0.031250 1.000000
vt 0.031250 0.500000
vt 0.000000 1.000000
vt 0.000000 0.500000
vt 0.750000 0.490000
vt 0.796822 0.485388
vt 0.841844 0.471731
vt 0.883337 0.449553
vt 0.919706 0.419706
vt 0.949553 0.383337
vt 0.971731 0.341844
vt 0.985388 0.296822
vt 0.990000 0.250000
vt 0.985388 0.203178
vt 0.971731 0.158156
vt 0.949553 0.116663
vt 0.919706 0.080294
vt 0.883337 0.050447
vt 0.841844 0.028269
vt 0.796822 0.014612
vt 0.750000 0.010000
vt 0.703178 0.014612
vt 0.658156 0.028269
vt 0.616663 0.050447
vt 0.580294 0.080294
vt 0.550447 0.116663
vt 0.528269 0.158156
vt 0.514612 0.203178
vt 0.510000 0.250000
vt 0.514612 0.296822
vt 0.528269 0.341844
vt 0.550447 0.383337
vt 0.580294 0.419706
vt 0.616663 0.449553
vt 0.658156 0.471731
vt 0.703178 0.485388
s 1
f 1/1/1 3/4/3 4/3/4 2/2/2
f 3/4/3 5/6/5 6/5/6 4/3/4
f 5/6/5 7/8/7 8/7/8 6/5/6
f 7/8/7 9/10/9 10/9/10 8/7/8
f 9/10/9 11/12/11 12/11/12 10/9/10
f 11/12/11 13/14/13 14/13/14 12/11/12
f 13/14/13 15/16/15 16/15/16 14/13/14
f 15/16/15 17/18/17 18/17/18 16/15/16
f 17/18/17 19/20/19 20/19/20 18/17/18
f 19/20/19 21/22/21 22/21/22 20/19/20
f 21/22/21 23/24/23 24/23/24 22/21/22
f 23/24/23 25/26/25 26/25/26 24/23/24
f 25/26/25 27/28/27 28/27/28 26/25/26
f 27/28/27 29/30/29 30/29/30 28/27/28
f 29/30/29 31/32/31 32/31/32 30/29/30
f 31/32/31 33/34/33 34/33/34 32/31/32
f 33/34/33 35/36/35 36/35/36 34/33/34
f 35/36/35 37/38/37 38/37/38 36/35/36
f 37/38/37 39/40/39 40/39/40 38/37/38
f 39/40/39 41/42/41 42/41/42 40/39/40
f 41/42/41 43/44/43 44/43/44 42/41/42
f 43/44/43 45/46/45 46/45/46 44/43/44
f 45/46/45 47/48/47 48/47/48 46/45/46
f 47/48/47 49/50/49 50/49/50 48/47/48
f 49/50/49 51/52/51 52/51/52 50/49/50
f 51/52/51 53/54/53 54/53/54 52/51/52
f 53/54/53 55/56/55 56/55/56 54/53/54
f 55/56/55 57/58/57 58/57/58 56/55/56
f 57/58/57 59/60/59 60/59/60 58/57/58
f 59/60/59 61/62/61 62/61/62 60/59/60
f 4/63/4 6/94/6 8/93/8 10/92/10 12/91/12 14/90/14 16/89/16 18/88/18 20/87/20 22/86/22 24/85/24 26/84/26 28/83/28 30/82/30 32/81/32 34/80/34 36/79/36 38/78/38 40/77/40 42/76/42 44/75/44 46/74/46 48/73/48 50/72/50 52/71/52 54/70/54 56/69/56 58/68/58 60/67/60 62/66/62 64/65/64 2/64/2
f 61/62/61 63/96/63 64/95/64 62/61/62
f 63/96/63 1/98/1 2/97/2 64/95/64
f 1/99/1 63/130/63 61/129/61 59/128/59 57/127/57 55/126/55 53/125/53 51/124/51 49/123/49 47/122/47 45/121/45 43/120/43 41/119/41 39/118/39 37/117/37 35/116/35 33/115/33 31/114/31 29/113/29 27/112/27 25/111/25 23/110/23 21/109/21 19/108/19 17/107/17 15/106/15 13/105/13 11/104/11 9/103/9 7/102/7 5/101/5 3/100/3
f 65/1/1 67/4/3 68/3/4 66/2/2
f 67/4/3 69/6/5 70/5/6 68/3/4
f 69/6/5 71/8/7 72/7/8 70/5/6
f 71/8/7 73/10/9 74/9/10 72/7/8
f 73/10/9 75/12/11 76/11/12 74/9/10
f 75/12/11 77/14/13 78/13/14 76/11/12
f 77/14/13 79/16/15 80/15/16 78/13/14
f 79/16/15 81/18/17 82/17/18 80/15/16
f 81/18/17 83/20/19 84/19/20 82/17/18
f 83/20/19 85/22/21 86/21/22 84/19/20
f 85/22/21 87/24/23 88/23/24 86/21/22
f 87/24/23 89/26/25 90/25/26 88/23/24
f 89/26/25 91/28/27 92/27/28 90/25/26
f 91/28/27 93/30/29 94/29/30 92/27/28
f 93/30/29 95/32/31 96/31/32 94/29/30
f 95/32/31 97/34/33 98/33/34 96/31/32
f 97/34/33 99/36/35 100/35/36 98/33/34
f 99/36/35 101/38/37 102/37/38 100/35/36
f 101/38/37 103/40/39 104/39/40 102/37/38
f 103/40/39 105/42/41 106/41/42 104/39/40
f 105/42/41 107/44/43 108/43/44 106/41/42
f 107/44/43 109/46/45 110/45/46 108/43/44
f 109/46/45 111/48/47 112/47/48 110/45/46
f 111/48/47 113/50/49 114/49/50 112/47/48
f 113/50/49 115/52/51 116/51/52 114/49/50
f 115/52/51 117/54/53 118/53/54 116/51/52
f 117/54/53 119/56/55 120/55/56 118/53/54
f 119/56/55 121/58/57 122/57/58 120/55/56
f 121/58/57 123/60/59 124/59/60 122/57/58
f 123/60/59 125/62/61 126/61/62 124/59/60
f 68/63/4 70/94/6 72/93/8 74/92/10 76/91/12 78/90/14 80/89/16 82/88/18 84/87/20 86/86/22 88/85/24 90/84/26 92/83/28 94/82/30 96/81/32 98/80/34 100/79/36 102/78/38 104/77/40 106/76/42 108/75/44 110/74/46 112/73/48 114/72/50 116/71/52 118/70/54 120/69/56 122/68/58 124/67/60 126/66/62 128/65/64 66/64/2
f 125/62/61 127/96/63 128/95/64 126/61/62
f 127/96/63 65/98/1 66/97/2 128/95/64
f 65/99/1 127/130/63 125/129/61 123/128/59 121/127/57 119/126/55 117/125/53 115/124/51 113/123/49 111/122/47 109/121/45 107/120/43 105/119/41 103/118/39 101/117/37 99/116/35 97/115/33 95/114/31 93/113/29 91/112/27 89/111/25 87/110/23 85/109/21 83/108/19 81/107/17 79/106/15 77/105/13 75/104/11 73/103/9 71/102/7 69/101/5 67/100/3
f 129/1/1 131/4/3 132/3/4 130/2/2
f 131/4/3 133/6/5 134/5/6 132/3/4
f 133/6/5 135/8/7 136/7/8 134/5/6
f 135/8/7 137/10/9 138/9/10 136/7/8
f 137/10/9 139/12/11 140/11/12 138/9/10
f 139/12/11 141/14/13 142/13/14 140/11/12
f 141/14/13 143/16/15 144/15/16 142/13/14
f 143/16/15 145/18/17 146/17/18 144/15/16
f 145/18/17 147/20/19 148/19/20 146/17/18
f 147/20/19 149/22/21 150/21/22 148/19/20
f 149/22/21 151/24/23 152/23/24 150/21/22
f 151/24/23 153/26/25 154/25/26 152/23/24
f 153/26/25 155/28/27 156/27/28 154/25/26
f 155/28/27 157/30/29 158/29/30 156/27/28
f 157/30/29 159/32/31 160/31/32 158/29/30
f 159/32/31 161/34/33 162/33/34 160/31/32
f 161/34/33 163/36/35 164/35/36 162/33/34
f 163/36/35 165/38/37 166/37/38 164/35/36
f 165/38/37 167/40/39 168/39/40 166/37/38
f 167/40/39 169/42/41 170/41/42 168/39/40
f 169/42/41 171/44/43 172/43/44 170/41/42
f 171/44/43 173/46/45 174/45/46 172/43/44
f 173/46/45 175/48/47 176/47/48 174/45/46
f 175/48/47 177/50/49 178/49/50 176/47/48
f 177/50/49 179/52/51 180/51/52 178/49/50
f 179/52/51 181/54/53 182/53/54 180/51/52
f 181/54/53 183/56/55 184/55/56 182/53/54
f 183/56/55 185/58/57 186/57/58 184/55/56
f 185/58/57 187/60/59 188/59/60 186/57/58
f 187/60/59 189/62/61 190/61/62 188/59/60
f 132/63/4 134/94/6 136/93/8 138/92/10 140/91/12 142/90/14 144/89/16 146/88/18 148/87/20 150/86/22 152/85/24 154/84/26 156/83/28 158/82/30 160/81/32 162/80/34 164/79/36 166/78/38 168/77/40 170/76/42 172/75/44 174/74/46 176/73/48 178/72/50 180/71/52 182/70/54 184/69/56 186/68/58 188/67/60 190/66/62 192/65/64 130/64/2
f 189/62/61 191/96/63 192/95/64 190/61/62
f 191/96/63 129/98/1 130/97/2 192/95/64
f 129/99/1 191/130/63 189/129/61 187/128/59 185/127/57 183/126/55 181/125/53 179/124/51 177/123/49 175/122/47 173/121/45 171/120/43 169/119/41 167/118/39 165/117/37 163/116/35 161/115/33 159/114/31 157/113/29 155/112/27 153/111/25 151/110/23 149/109/21 147/108/19 145/107/17 143/106/15 141/105/13 139/104/11 137/103/9 135/102/7 133/101/5 131/100/3
