# Blender 4.5.3 LTS
# www.blender.org
mtllib Pared.mtl
o Cubo.003
v -200.001999 -200.001999 200.001999
v -198.000000 -198.000000 198.000000
v -200.001999 200.001999 200.001999
v -198.000000 198.000000 198.000000
v -200.001999 -200.001999 -200.001999
v -198.000000 -198.000000 -198.000000
v -200.001999 200.001999 -200.001999
v -198.000000 198.000000 -198.000000
v 200.001999 -200.001999 200.001999
v 198.000000 -198.000000 198.000000
v 200.001999 200.001999 200.001999
v 198.000000 198.000000 198.000000
v 200.001999 -200.001999 -200.001999
v 198.000000 -198.000000 -198.000000
v 200.001999 200.001999 -200.001999
v 198.000000 198.000000 -198.000000
vn 1.0000 -0.0000 -0.0000
vn -0.0000 -0.0000 1.0000
vn -1.0000 -0.0000 -0.0000
vn -0.0000 -0.0000 -1.0000
vn -0.0000 1.0000 -0.0000
vn -0.0000 -1.0000 -0.0000
vt 0.375000 0.250000
vt 0.625000 0.250000
vt 0.625000 0.000000
vt 0.375000 0.000000
vt 0.375000 0.500000
vt 0.625000 0.500000
vt 0.375000 0.750000
vt 0.625000 0.750000
vt 0.375000 1.000000
vt 0.625000 1.000000
vt 0.125000 0.750000
vt 0.125000 0.500000
vt 0.875000 0.750000
vt 0.875000 0.500000
s 0
usemtl Material.010
f 5/1/1 7/2/1 3/3/1 1/4/1
f 6/1/1 8/2/1 4/3/1 2/4/1
f 13/5/2 15/6/2 7/2/2 5/1/2
f 14/5/2 16/6/2 8/2/2 6/1/2
f 9/7/3 11/8/3 15/6/3 13/5/3
f 10/7/3 12/8/3 16/6/3 14/5/3
f 1/9/4 3/10/4 11/8/4 9/7/4
f 2/9/4 4/10/4 12/8/4 10/7/4
f 1/11/5 9/7/5 13/5/5 5/12/5
f 2/11/5 10/7/5 14/5/5 6/12/5
f 11/8/6 3/13/6 7/14/6 15/6/6
f 12/8/6 4/13/6 8/14/6 16/6/6
