# Blender 4.5.3 LTS
# www.blender.org
o PrimerPiso
v -3.760000 1.020000 3.530000
v -3.760000 2.980000 3.530000
v -3.760000 1.020000 -3.530000
v -3.760000 2.980000 -3.530000
v -3.440000 1.020000 3.530000
v -3.440000 2.980000 3.530000
v -3.440000 1.020000 -3.530000
v -3.440000 2.980000 -3.530000
v -3.740000 2.989800 3.530000
v -3.740000 1.127800 3.530000
v -3.740000 2.989800 -3.490000
v -3.740000 1.127800 -3.490000
v -3.530000 1.108200 0.080000
v -3.530000 1.167000 0.080000
v -3.530000 1.108200 -3.520000
v -3.530000 1.167000 -3.520000
v -2.470000 1.108200 0.080000
v -2.470000 1.167000 0.080000
v -2.470000 1.108200 -3.520000
v -2.470000 1.167000 -3.520000
v -3.530000 1.970600 -1.090000
v -3.530000 2.029400 -1.090000
v -3.530000 1.970600 -3.490000
v -3.530000 2.029400 -3.490000
v -2.470000 1.970600 -1.090000
v -2.470000 2.029400 -1.090000
v -2.470000 1.970600 -3.490000
v -2.470000 2.029400 -3.490000
v -3.738000 0.069399 3.530000
v -3.738000 2.950601 3.530000
v -3.462000 0.069399 3.530000
v -3.462000 2.950601 3.530000
v -3.738000 0.069399 -3.530000
v -3.738000 2.950601 -3.530000
v -3.462000 0.069399 -3.530000
v -3.462000 2.950601 -3.530000
v -3.717004 0.029901 3.717005
v -3.717004 2.958314 3.717004
v 3.360473 2.958313 -3.717006
v 3.360472 2.958314 3.717004
v -3.717004 0.029900 -3.717005
v 3.077321 0.029901 3.717004
v -3.433854 2.958314 3.717004
v -3.717004 2.958313 -3.717005
v 3.077321 2.958313 0.118065
v -3.433854 2.958313 0.118065
v 3.077321 2.958314 3.717004
v 3.360472 0.029901 3.717004
v 3.360473 2.958313 -2.859803
v 3.360473 0.029900 -3.717005
v -3.433854 0.029901 3.717005
v -3.433854 0.029900 0.118066
v 3.077321 0.029900 0.118066
v 3.360473 1.274721 -0.065932
v 3.360473 1.274721 -2.859802
v 3.213074 1.274721 -0.065932
v 3.213074 1.274721 -2.859802
v 3.360473 2.958313 -0.065932
v 3.213074 2.958313 -2.859803
v 3.213074 2.958313 -0.065932
v 3.245840 0.997461 3.597982
v 3.245840 1.131829 3.597982
v 3.245840 0.997459 -3.597982
v 3.245840 1.131827 -3.597982
v 3.382950 0.997461 3.597982
v 3.382950 1.131829 3.597982
v 3.382950 0.997459 -3.597982
v 3.382950 1.131827 -3.597982
v 3.045256 -0.193088 3.891446
v 3.045256 3.095857 3.891445
v 3.045256 -0.193088 3.538212
v 3.045256 3.095857 3.538212
v 3.398489 -0.193088 3.891446
v 3.398489 3.095857 3.891445
v 3.398489 -0.193088 3.538212
v 3.398489 3.095857 3.538212
v -3.401788 -0.193088 3.891446
v -3.401788 3.095857 3.891446
v -3.401788 -0.193088 3.538212
v -3.401788 3.095857 3.538212
v -3.755022 -0.193088 3.891446
v -3.755022 3.095857 3.891446
v -3.755022 -0.193088 3.538212
v -3.755022 3.095857 3.538212
v -3.602371 0.997461 3.597982
v -3.602371 1.131829 3.597982
v -3.602371 0.997460 -3.597982
v -3.602371 1.131827 -3.597982
v -3.739482 0.997461 3.597982
v -3.739482 1.131829 3.597982
v -3.739482 0.997460 -3.597982
v -3.739482 1.131827 -3.597982
v 3.154251 1.266199 0.098824
v 3.154251 1.400567 0.098824
v 3.154251 1.266199 -2.956899
v 3.154251 1.400567 -2.956899
v 3.541763 1.266199 0.098824
v 3.541763 1.400567 0.098824
v 3.541763 1.266199 -2.956899
v 3.541763 1.400567 -2.956899
v 3.182327 1.291248 0.042572
v 3.182327 3.103062 0.042571
v 3.182327 1.291248 -0.105869
v 3.182327 3.103062 -0.105869
v 3.388740 1.291248 0.042572
v 3.388740 3.103062 0.042571
v 3.388740 1.291248 -0.105869
v 3.388740 3.103062 -0.105869
v 3.182325 1.291248 -2.805303
v 3.182325 3.103062 -2.805303
v 3.182325 1.291248 -2.924750
v 3.182325 3.103062 -2.924750
v 3.388740 1.291248 -2.805303
v 3.388740 3.103062 -2.805303
v 3.388740 1.291248 -2.924750
v 3.388740 3.103062 -2.924750
v 3.150298 0.987771 -3.503634
v 3.150298 3.310899 -3.503634
v 3.150298 0.987771 -3.743582
v 3.150298 3.310899 -3.743582
v 3.390244 0.987771 -3.503634
v 3.390244 3.310899 -3.503634
v 3.390244 0.987771 -3.743582
v 3.390244 3.310899 -3.743582
v -3.506829 0.987771 -3.503634
v -3.506829 3.310899 -3.503635
v -3.506829 0.987771 -3.743581
v -3.506829 3.310899 -3.743582
v -3.746776 0.987771 -3.503634
v -3.746776 3.310899 -3.503635
v -3.746776 0.987771 -3.743581
v -3.746776 3.310899 -3.743582
v 3.241450 0.997459 -3.601600
v 3.241450 1.131827 -3.601600
v -3.597982 0.997459 -3.601599
v -3.597982 1.131827 -3.601599
v 3.241450 0.997459 -3.738711
v 3.241450 1.131827 -3.738711
v -3.597982 0.997459 -3.738710
v -3.597982 1.131827 -3.738710
v -2.649372 0.997459 -3.601599
v 2.292840 0.997459 -3.601600
v 2.292840 1.131827 -3.601600
v -2.649372 1.131827 -3.601599
v 2.292840 0.997459 -3.738711
v -2.649372 0.997459 -3.738710
v -2.649372 1.131827 -3.738710
v 2.292840 1.131827 -3.738711
v 2.326499 -0.000809 -3.664486
v 2.326499 3.310899 -3.664486
v 2.326499 -0.000809 -3.801111
v 2.326499 3.310899 -3.801111
v 2.591608 -0.000809 -3.664486
v 2.591608 3.310899 -3.664486
v 2.591608 -0.000809 -3.801111
v 2.591608 3.310899 -3.801111
v -2.698239 -0.000809 -3.664485
v -2.698239 3.310899 -3.664486
v -2.698239 -0.000809 -3.801111
v -2.698239 3.310899 -3.801111
v -2.963348 -0.000809 -3.664485
v -2.963348 3.310899 -3.664486
v -2.963348 -0.000809 -3.801111
v -2.963348 3.310899 -3.801111
v 2.205072 2.485958 -3.647701
v -2.572773 2.485959 -3.647701
v 2.360103 3.008858 -3.791469
v -2.727804 3.008858 -3.791469
v 2.335917 2.485958 -3.769040
v 2.360103 2.523607 -3.791469
v -2.727804 2.523608 -3.791469
v -2.703619 2.485959 -3.769040
v 1.810690 2.958313 0.118065
v 1.810690 0.029900 0.118066
v -3.433854 2.166514 3.717004
v -3.433854 2.166514 0.118066
v 3.077321 2.166514 0.118066
v 3.077321 2.166514 3.717004
v 1.810690 2.166514 0.118066
v 1.810690 0.029900 -0.969242
v 1.810690 2.532480 -0.969242
v 3.077321 0.029900 -2.207734
v 1.295152 0.029900 -2.207735
v 1.295152 0.029900 -0.969242
v 1.295152 2.532480 -0.969242
v 1.810690 2.166514 -0.116055
v 3.077321 2.166514 -0.116055
v 1.810690 0.029900 -0.116055
v 3.077321 0.029900 -0.116055
v 3.077321 2.532480 -2.207735
v 1.295152 2.532480 -2.207735
v 1.810690 2.532481 -0.116055
v 3.077321 2.532481 -0.116055
v 3.081999 0.069399 3.530000
v 3.081999 2.950601 3.530000
v 3.358000 0.069399 3.530000
v 3.358000 2.950601 3.530000
v 3.081999 0.069399 -3.530000
v 3.081999 2.950601 -3.530000
v 3.358000 0.069399 -3.530000
v 3.358000 2.950601 -3.530000
v -3.740000 0.040000 3.530000
v -3.740000 1.020000 3.530000
v -3.740000 0.040000 -3.530000
v -3.740000 1.020000 -3.530000
v -3.580000 0.040000 3.530000
v -3.580000 1.020000 3.530000
v -3.580000 0.040000 -3.530000
v -3.580000 1.020000 -3.530000
v 3.201711 0.040000 3.542287
v 3.201711 1.020000 3.542287
v 3.201711 0.040000 -3.517714
v 3.201711 1.020000 -3.517714
v 3.361711 0.040000 3.542287
v 3.361711 1.020000 3.542287
v 3.361711 0.040000 -3.517714
v 3.361711 1.020000 -3.517714
vn -1.0000 -0.0000 -0.0000
vn -0.0000 -0.0000 -1.0000
vn 1.0000 -0.0000 -0.0000
vn -0.0000 -0.0000 1.0000
vn -0.0000 -1.0000 -0.0000
vn -0.0000 1.0000 -0.0000
vn -0.0000 -0.5118 -0.8591
vt 0.375000 0.000000
vt 0.625000 0.000000
vt 0.625000 0.250000
vt 0.375000 0.250000
vt 0.625000 0.500000
vt 0.375000 0.500000
vt 0.625000 0.750000
vt 0.375000 0.750000
vt 0.625000 1.000000
vt 0.375000 1.000000
vt 0.125000 0.500000
vt 0.125000 0.750000
vt 0.875000 0.500000
vt 0.875000 0.750000
vt 0.000000 0.000000
vt 1.000000 0.000000
vt 1.000000 1.000000
vt 0.000000 1.000000
s 0
f 1/1/1 2/2/1 4/3/1 3/4/1
f 3/4/2 4/3/2 8/5/2 7/6/2
f 7/6/3 8/5/3 6/7/3 5/8/3
f 5/8/4 6/7/4 2/9/4 1/10/4
f 3/11/5 7/6/5 5/8/5 1/12/5
f 8/5/6 4/13/6 2/14/6 6/7/6
f 9/15/3 10/16/3 12/17/3 11/18/3
f 13/1/1 14/2/1 16/3/1 15/4/1
f 15/4/2 16/3/2 20/5/2 19/6/2
f 19/6/3 20/5/3 18/7/3 17/8/3
f 17/8/4 18/7/4 14/9/4 13/10/4
f 15/11/5 19/6/5 17/8/5 13/12/5
f 20/5/6 16/13/6 14/14/6 18/7/6
f 21/1/1 22/2/1 24/3/1 23/4/1
f 23/4/2 24/3/2 28/5/2 27/6/2
f 27/6/3 28/5/3 26/7/3 25/8/3
f 25/8/4 26/7/4 22/9/4 21/10/4
f 23/11/5 27/6/5 25/8/5 21/12/5
f 28/5/6 24/13/6 22/14/6 26/7/6
f 29/1/2 30/2/2 32/3/2 31/4/2
f 31/4/1 32/3/1 36/5/1 35/6/1
f 35/6/4 36/5/4 34/7/4 33/8/4
f 33/8/3 34/7/3 30/9/3 29/10/3
f 31/11/6 35/6/6 33/8/6 29/12/6
f 36/5/5 32/13/5 30/14/5 34/7/5
s 1
f 47/15/1 177/15/1 178/15/1
f 41/15/1 38/15/1 44/15/1
f 173/15/4 176/15/4 179/15/4
f 54/15/3 40/15/3 48/15/3
f 49/15/4 57/15/4 55/15/4
f 39/15/3 55/15/3 50/15/3
f 50/15/3 54/15/3 48/15/3
f 50/15/2 44/15/2 39/15/2
f 51/15/3 176/15/3 175/15/3
f 59/15/3 56/15/3 57/15/3
f 54/15/2 60/15/2 58/15/2
f 55/15/6 56/15/6 54/15/6
f 68/15/3 65/15/3 67/15/3
f 67/15/5 61/15/5 63/15/5
f 64/15/6 66/15/6 68/15/6
f 70/15/1 71/15/1 69/15/1
f 72/15/2 75/15/2 71/15/2
f 76/15/3 73/15/3 75/15/3
f 74/15/4 69/15/4 73/15/4
f 79/15/3 78/15/3 77/15/3
f 83/15/2 80/15/2 79/15/2
f 81/15/1 84/15/1 83/15/1
f 77/15/4 82/15/4 81/15/4
f 89/15/1 92/15/1 91/15/1
f 85/15/5 91/15/5 87/15/5
f 90/15/6 88/15/6 92/15/6
f 100/15/3 97/15/3 99/15/3
f 99/15/5 93/15/5 95/15/5
f 96/15/6 98/15/6 100/15/6
f 95/15/2 100/15/2 99/15/2
f 94/15/4 97/15/4 98/15/4
f 108/15/3 105/15/3 107/15/3
f 103/15/2 108/15/2 107/15/2
f 102/15/4 105/15/4 106/15/4
f 116/15/3 113/15/3 115/15/3
f 111/15/2 116/15/2 115/15/2
f 110/15/4 113/15/4 114/15/4
f 118/15/1 119/15/1 117/15/1
f 120/15/2 123/15/2 119/15/2
f 124/15/3 121/15/3 123/15/3
f 122/15/4 117/15/4 121/15/4
f 123/15/5 117/15/5 119/15/5
f 127/15/3 126/15/3 125/15/3
f 131/15/2 128/15/2 127/15/2
f 129/15/1 132/15/1 131/15/1
f 125/15/4 130/15/4 129/15/4
f 125/15/5 131/15/5 127/15/5
f 148/15/2 137/15/2 145/15/2
f 145/15/5 133/15/5 142/15/5
f 143/15/6 138/15/6 148/15/6
f 136/15/6 147/15/6 140/15/6
f 139/15/5 141/15/5 135/15/5
f 140/15/2 146/15/2 139/15/2
f 150/15/1 151/15/1 149/15/1
f 152/15/2 155/15/2 151/15/2
f 156/15/3 153/15/3 155/15/3
f 159/15/3 158/15/3 157/15/3
f 163/15/2 160/15/2 159/15/2
f 161/15/1 164/15/1 163/15/1
f 171/15/2 167/15/2 170/15/2
f 170/15/7 172/15/7 171/15/7
f 166/15/5 169/15/5 165/15/5
f 45/15/4 179/15/4 177/15/4
f 175/15/3 46/15/3 43/15/3
f 179/15/4 52/15/4 174/15/4
f 178/15/1 53/15/1 42/15/1
f 190/15/1 187/15/1 193/15/1
f 187/15/1 182/15/1 189/15/1
f 186/15/3 180/15/3 181/15/3
f 190/15/4 183/15/4 182/15/4
f 186/15/2 193/15/2 187/15/2
f 180/15/2 185/15/2 181/15/2
f 174/15/3 186/15/3 179/15/3
f 179/15/5 187/15/5 177/15/5
f 177/15/1 189/15/1 53/15/1
f 193/15/5 181/15/5 190/15/5
f 181/15/5 191/15/5 190/15/5
f 186/15/3 181/15/3 192/15/3
f 47/15/1 45/15/1 177/15/1
f 41/15/1 37/15/1 38/15/1
f 173/15/4 46/15/4 176/15/4
f 54/15/3 58/15/3 40/15/3
f 49/15/4 59/15/4 57/15/4
f 39/15/3 49/15/3 55/15/3
f 50/15/3 55/15/3 54/15/3
f 50/15/2 41/15/2 44/15/2
f 51/15/3 52/15/3 176/15/3
f 59/15/3 60/15/3 56/15/3
f 54/15/2 56/15/2 60/15/2
f 55/15/6 57/15/6 56/15/6
f 68/15/3 66/15/3 65/15/3
f 67/15/5 65/15/5 61/15/5
f 64/15/6 62/15/6 66/15/6
f 70/15/1 72/15/1 71/15/1
f 72/15/2 76/15/2 75/15/2
f 76/15/3 74/15/3 73/15/3
f 74/15/4 70/15/4 69/15/4
f 79/15/3 80/15/3 78/15/3
f 83/15/2 84/15/2 80/15/2
f 81/15/1 82/15/1 84/15/1
f 77/15/4 78/15/4 82/15/4
f 89/15/1 90/15/1 92/15/1
f 85/15/5 89/15/5 91/15/5
f 90/15/6 86/15/6 88/15/6
f 100/15/3 98/15/3 97/15/3
f 99/15/5 97/15/5 93/15/5
f 96/15/6 94/15/6 98/15/6
f 95/15/2 96/15/2 100/15/2
f 94/15/4 93/15/4 97/15/4
f 108/15/3 106/15/3 105/15/3
f 103/15/2 104/15/2 108/15/2
f 102/15/4 101/15/4 105/15/4
f 116/15/3 114/15/3 113/15/3
f 111/15/2 112/15/2 116/15/2
f 110/15/4 109/15/4 113/15/4
f 118/15/1 120/15/1 119/15/1
f 120/15/2 124/15/2 123/15/2
f 124/15/3 122/15/3 121/15/3
f 122/15/4 118/15/4 117/15/4
f 123/15/5 121/15/5 117/15/5
f 127/15/3 128/15/3 126/15/3
f 131/15/2 132/15/2 128/15/2
f 129/15/1 130/15/1 132/15/1
f 125/15/4 126/15/4 130/15/4
f 125/15/5 129/15/5 131/15/5
f 148/15/2 138/15/2 137/15/2
f 145/15/5 137/15/5 133/15/5
f 143/15/6 134/15/6 138/15/6
f 136/15/6 144/15/6 147/15/6
f 139/15/5 146/15/5 141/15/5
f 140/15/2 147/15/2 146/15/2
f 150/15/1 152/15/1 151/15/1
f 152/15/2 156/15/2 155/15/2
f 156/15/3 154/15/3 153/15/3
f 159/15/3 160/15/3 158/15/3
f 163/15/2 164/15/2 160/15/2
f 161/15/1 162/15/1 164/15/1
f 171/15/2 168/15/2 167/15/2
f 170/15/7 169/15/7 172/15/7
f 166/15/5 172/15/5 169/15/5
f 45/15/4 173/15/4 179/15/4
f 175/15/3 176/15/3 46/15/3
f 179/15/4 176/15/4 52/15/4
f 178/15/1 177/15/1 53/15/1
f 187/15/1 190/15/1 182/15/1
f 186/15/3 188/15/3 180/15/3
f 190/15/4 191/15/4 183/15/4
f 186/15/2 192/15/2 193/15/2
f 180/15/2 184/15/2 185/15/2
f 174/15/3 188/15/3 186/15/3
f 179/15/5 186/15/5 187/15/5
f 177/15/1 187/15/1 189/15/1
f 193/15/5 192/15/5 181/15/5
f 181/15/5 185/15/5 191/15/5
s 0
f 194/1/2 195/2/2 197/3/2 196/4/2
f 196/4/1 197/3/1 201/5/1 200/6/1
f 200/6/4 201/5/4 199/7/4 198/8/4
f 198/8/3 199/7/3 195/9/3 194/10/3
f 196/11/6 200/6/6 198/8/6 194/12/6
f 201/5/5 197/13/5 195/14/5 199/7/5
f 202/1/1 203/2/1 205/3/1 204/4/1
f 204/4/2 205/3/2 209/5/2 208/6/2
f 208/6/3 209/5/3 207/7/3 206/8/3
f 206/8/4 207/7/4 203/9/4 202/10/4
f 204/11/5 208/6/5 206/8/5 202/12/5
f 209/5/6 205/13/6 203/14/6 207/7/6
f 210/1/1 211/2/1 213/3/1 212/4/1
f 212/4/2 213/3/2 217/5/2 216/6/2
f 216/6/3 217/5/3 215/7/3 214/8/3
f 214/8/4 215/7/4 211/9/4 210/10/4
f 212/11/5 216/6/5 214/8/5 210/12/5
f 217/5/6 213/13/6 211/14/6 215/7/6
