# Blender 4.5.3 LTS
# www.blender.org
mtllib Refrigerador1.mtl
o Refrigerador2
v 2.487414 0.079491 -2.350932
v 2.422121 0.079491 -2.426044
v 2.439211 0.079491 -2.374965
v 2.422121 1.845420 -2.426044
v 2.487414 1.859418 -2.350932
v 2.439211 1.855318 -2.374965
v 2.424507 1.879620 -2.460161
v 2.493732 1.949994 -2.441288
v 2.444378 1.929382 -2.448849
v 2.422820 1.869603 -2.436037
v 2.489265 1.923465 -2.377397
v 2.440725 1.907689 -2.396605
v 2.422121 1.271047 -2.426044
v 2.422121 1.296044 -2.426044
v 2.431314 1.283546 -2.427213
v 2.439211 1.296044 -2.374965
v 2.439211 1.271047 -2.374965
v 2.446205 1.283546 -2.381045
v 2.487414 1.296044 -2.350932
v 2.487414 1.271047 -2.350932
v 2.489852 1.283546 -2.359873
v 2.511965 0.079491 -2.349216
v 2.523025 0.086044 -2.355011
v 2.511965 1.859418 -2.349216
v 2.523202 1.857610 -2.357541
v 2.518283 1.949994 -2.439571
v 2.529012 1.940906 -2.440633
v 2.513815 1.923465 -2.375680
v 2.524875 1.916912 -2.381475
v 2.511965 1.296044 -2.349216
v 2.523214 1.296044 -2.357718
v 2.512611 1.283546 -2.358459
v 2.523214 1.283546 -2.357718
v 2.511965 1.271047 -2.349216
v 2.523214 1.271047 -2.357718
v 2.573285 0.079491 -3.578936
v 2.498173 0.079491 -3.513642
v 2.522206 0.079491 -3.561845
v 2.498173 1.845420 -3.513642
v 2.573285 1.859418 -3.578936
v 2.522206 1.855318 -3.561845
v 2.495787 1.879620 -3.479525
v 2.566967 1.949994 -3.488580
v 2.517040 1.929382 -3.487961
v 2.497474 1.869603 -3.503650
v 2.571434 1.923465 -3.552471
v 2.520693 1.907689 -3.540205
v 2.498173 1.271047 -3.513642
v 2.498173 1.296044 -3.513642
v 2.507113 1.283546 -3.511205
v 2.522206 1.296044 -3.561845
v 2.522206 1.271047 -3.561845
v 2.528286 1.283546 -3.554852
v 2.573285 1.296044 -3.578936
v 2.573285 1.271047 -3.578936
v 2.574454 1.283546 -3.569743
v 2.597835 0.079491 -3.577219
v 2.607981 0.086044 -3.569941
v 2.597835 1.859418 -3.577219
v 2.607804 1.857610 -3.567411
v 2.591517 1.949994 -3.486863
v 2.601994 1.940906 -3.484318
v 2.595984 1.923465 -3.550754
v 2.606130 1.916912 -3.543476
v 2.597835 1.296044 -3.577219
v 2.607792 1.296044 -3.567233
v 2.597189 1.283546 -3.567975
v 2.607792 1.283546 -3.567233
v 2.597835 1.271047 -3.577219
v 2.607792 1.271047 -3.567233
v 2.450715 1.656425 -2.533029
v 2.450715 1.475884 -2.533029
v 2.447881 1.656425 -2.492517
v 2.447881 1.475884 -2.492517
v 2.402170 1.475884 -2.495713
v 2.402170 1.656425 -2.495713
v 2.405003 1.475884 -2.536226
v 2.405003 1.656425 -2.536226
v 2.450164 1.448411 -2.525160
v 2.450715 1.456762 -2.533029
v 2.450715 1.675548 -2.533029
v 2.450164 1.683899 -2.525160
v 2.388618 1.683899 -2.504568
v 2.380749 1.676011 -2.505118
v 2.386893 1.675529 -2.496781
v 2.447881 1.456762 -2.492517
v 2.448432 1.448411 -2.500386
v 2.448432 1.683899 -2.500386
v 2.447881 1.675548 -2.492517
v 2.390351 1.683899 -2.529342
v 2.389725 1.675529 -2.537294
v 2.382482 1.676011 -2.529893
v 2.390351 1.448411 -2.529342
v 2.382482 1.456299 -2.529893
v 2.389725 1.456781 -2.537294
v 2.388618 1.448411 -2.504568
v 2.386893 1.456781 -2.496781
v 2.380749 1.456299 -2.505118
v 2.450715 1.149724 -2.533029
v 2.450715 0.969183 -2.533029
v 2.447881 1.149724 -2.492517
v 2.447881 0.969183 -2.492517
v 2.402170 0.969183 -2.495713
v 2.402170 1.149724 -2.495713
v 2.405003 0.969183 -2.536226
v 2.405003 1.149724 -2.536226
v 2.450164 0.941709 -2.525160
v 2.450715 0.950061 -2.533029
v 2.450715 1.168846 -2.533029
v 2.450164 1.177198 -2.525160
v 2.388618 1.177198 -2.504568
v 2.380749 1.169309 -2.505118
v 2.386893 1.168828 -2.496781
v 2.447881 0.950061 -2.492517
v 2.448432 0.941709 -2.500386
v 2.448432 1.177198 -2.500386
v 2.447881 1.168846 -2.492517
v 2.390351 1.177198 -2.529342
v 2.389725 1.168828 -2.537294
v 2.382482 1.169309 -2.529893
v 2.390351 0.941709 -2.529342
v 2.382482 0.949598 -2.529893
v 2.389725 0.950079 -2.537294
v 2.388618 0.941709 -2.504568
v 2.386893 0.950079 -2.496781
v 2.380749 0.949598 -2.505118
v 2.516874 0.079491 -2.419418
v 2.527477 0.086044 -2.418676
v 2.492323 0.079491 -2.421134
v 2.568376 0.079491 -3.508733
v 2.603529 0.086044 -3.506275
v 2.592926 0.079491 -3.507016
vn 0.2712 0.1825 0.9451
vn -0.2492 -0.3014 0.9204
vn 0.2585 -0.2832 0.9236
vn -0.7216 0.2929 0.6273
vn -0.9920 -0.0000 0.1262
vn -0.7547 -0.0000 0.6561
vn -0.9831 0.1590 0.0906
vn -0.6971 0.7110 0.0930
vn -0.9772 0.2105 -0.0264
vn -0.7168 0.5169 0.4680
vn -0.2067 0.9622 0.1774
vn -0.7368 0.1414 0.6612
vn -0.2605 0.1914 0.9463
vn -0.2473 0.6929 0.6773
vn -0.2492 0.3014 0.9204
vn -0.2630 -0.0000 0.9648
vn -0.9461 0.3014 0.1187
vn -0.7762 0.5956 -0.2067
vn -0.9204 0.3014 -0.2492
vn 0.6656 0.7399 -0.0975
vn 0.3229 0.9239 0.2055
vn 0.6455 0.7399 0.1892
vn -0.6773 0.7110 -0.1891
vn -0.1800 0.9622 -0.2044
vn -0.9648 -0.0000 -0.2630
vn -0.2054 -0.5970 0.7755
vn 0.1694 -0.5804 0.7965
vn -0.7216 -0.2929 0.6273
vn -0.9890 0.0419 0.1418
vn -0.9461 -0.3014 0.1187
vn -0.9204 -0.3014 -0.2492
vn -0.9596 0.0419 -0.2781
vn -0.9714 0.2105 -0.1099
vn -0.6039 -0.5998 0.5249
vn -0.6039 0.5998 0.5249
vn -0.2054 0.5970 0.7755
vn 0.2582 0.2836 0.9235
vn 0.1694 0.5804 0.7965
vn 0.2781 0.6686 0.6897
vn 0.1543 -0.0000 0.9880
vn -0.0698 -0.0000 0.9976
vn 0.5904 -0.2031 0.7811
vn 0.3484 0.9238 -0.1586
vn 0.6040 0.1437 0.7839
vn 0.6213 0.5313 0.5760
vn 0.4650 -0.0000 0.8853
vn 0.5903 0.2040 0.7810
vn -0.1187 -0.3014 -0.9461
vn 0.4001 0.1825 -0.8981
vn 0.3845 -0.2832 -0.8786
vn -0.6273 0.2929 -0.7216
vn -0.6561 -0.0000 -0.7547
vn -0.9609 0.1590 -0.2266
vn -0.6447 0.5169 -0.5632
vn -0.6376 0.1414 -0.7573
vn -0.1263 0.1914 -0.9734
vn -0.1187 0.3014 -0.9461
vn -0.1262 -0.0000 -0.9920
vn -0.0954 -0.5970 -0.7965
vn -0.6273 -0.2929 -0.7216
vn -0.5249 -0.5998 -0.6039
vn -0.5249 0.5998 -0.6039
vn -0.0954 0.5970 -0.7965
vn 0.3842 0.2836 -0.8786
vn 0.2786 0.5804 -0.7652
vn 0.3714 0.6686 -0.6442
vn -0.1506 0.6929 -0.7051
vn 0.2903 -0.0000 -0.9569
vn 0.6932 0.2041 -0.6912
vn 0.6934 -0.2031 -0.6913
vn 0.2786 -0.5804 -0.7652
vn 0.7072 0.1437 -0.6922
vn 0.6954 0.5313 -0.4839
vn 0.5836 -0.0000 -0.8120
vn -0.0000 -1.0000 -0.0000
vn 0.2223 -0.9749 0.0155
vn 0.2721 -0.9621 0.0190
vn 0.5235 -0.8512 0.0366
vn -0.7975 -0.5956 0.0967
vn -0.7762 -0.5956 -0.2067
vn -0.9030 0.3489 0.2508
vn -0.8593 -0.3489 -0.3740
vn -0.9030 -0.3489 0.2508
vn -0.4371 -0.3322 0.8358
vn -0.0648 0.3695 0.9270
vn -0.0276 -0.9183 0.3949
vn -0.3093 -0.8769 -0.3680
vn 0.0276 -0.9183 -0.3948
vn -0.3166 -0.3322 -0.8885
vn 0.0698 -0.0000 -0.9976
vn 0.0648 0.3695 -0.9270
vn 0.0276 0.9183 -0.3949
vn -0.3575 0.8769 0.3213
vn -0.0276 0.9183 0.3949
vn -0.0648 -0.3695 0.9270
vn -0.4372 0.3322 0.8358
vn -0.3093 0.8769 -0.3680
vn -0.3166 0.3322 -0.8885
vn -0.8593 0.3489 -0.3740
vn -0.3575 -0.8769 0.3213
vn 0.0648 -0.3695 -0.9270
vn 0.9976 -0.0000 0.0698
vn -0.0000 1.0000 -0.0000
vn -0.4372 -0.3322 0.8358
vn -0.7975 0.5956 0.0967
vn 0.5903 0.2041 0.7810
vn 0.6934 -0.2030 -0.6914
vn 0.5837 -0.0000 -0.8120
vt 0.730510 0.633526
vt 0.785493 0.630410
vt 0.785516 0.632846
vt 0.788952 0.624758
vt 0.905116 0.623339
vt 0.904902 0.629004
vt 0.729090 0.619265
vt 0.723015 0.617416
vt 0.728139 0.616756
vt 0.724147 0.623056
vt 0.717875 0.617769
vt 0.730919 0.625737
vt 0.725029 0.624566
vt 0.730572 0.631044
vt 0.723334 0.630605
vt 0.788791 0.630416
vt 0.904673 0.634462
vt 0.788790 0.619132
vt 0.786358 0.518724
vt 0.788021 0.518738
vt 0.713189 0.520861
vt 0.715495 0.617804
vt 0.713938 0.617844
vt 0.722387 0.521165
vt 0.717222 0.520868
vt 0.905116 0.514065
vt 0.787139 0.630419
vt 0.787125 0.633037
vt 0.785384 0.624740
vt 0.731616 0.620286
vt 0.785556 0.619126
vt 0.784788 0.518761
vt 0.731082 0.518168
vt 0.727634 0.521778
vt 0.787170 0.624754
vt 0.788784 0.632812
vt 0.715743 0.625094
vt 0.723230 0.633375
vt 0.904571 0.637017
vt 0.788522 0.634435
vt 0.787067 0.634286
vt 0.785712 0.634243
vt 0.714800 0.520873
vt 0.730500 0.634986
vt 0.714209 0.624769
vt 0.723600 0.634901
vt 0.903348 0.639116
vt 0.784589 0.507477
vt 0.729815 0.504982
vt 0.784589 0.505040
vt 0.788101 0.513099
vt 0.904872 0.508356
vt 0.728561 0.519227
vt 0.723494 0.515418
vt 0.730316 0.512737
vt 0.724450 0.513975
vt 0.729905 0.507453
vt 0.787889 0.507442
vt 0.904615 0.502858
vt 0.786236 0.507453
vt 0.784532 0.513156
vt 0.786313 0.513123
vt 0.787863 0.505042
vt 0.786199 0.504833
vt 0.714934 0.513424
vt 0.722696 0.507972
vt 0.722563 0.505213
vt 0.904501 0.500283
vt 0.787587 0.503415
vt 0.784770 0.503642
vt 0.729789 0.503528
vt 0.713370 0.513776
vt 0.722914 0.503688
vt 0.903259 0.498174
vt 0.975383 0.111426
vt 0.977860 0.118911
vt 0.975258 0.118811
vt 0.977811 0.111375
vt 0.979190 0.118246
vt 0.787217 0.619154
vt 0.435130 0.829909
vt 0.432707 0.808467
vt 0.435131 0.808467
vt 0.437636 0.827998
vt 0.436141 0.808514
vt 0.437636 0.810378
vt 0.436252 0.836850
vt 0.438117 0.832377
vt 0.438118 0.836849
vt 0.435131 0.801527
vt 0.432707 0.807378
vt 0.432707 0.801527
vt 0.431696 0.808514
vt 0.430201 0.827998
vt 0.430201 0.810378
vt 0.429720 0.832377
vt 0.431586 0.836850
vt 0.429719 0.836849
vt 0.432707 0.836850
vt 0.435130 0.830998
vt 0.435130 0.836850
vt 0.436252 0.801527
vt 0.438117 0.805999
vt 0.436253 0.807493
vt 0.436047 0.830339
vt 0.432707 0.830998
vt 0.431791 0.830339
vt 0.432707 0.829909
vt 0.431791 0.808037
vt 0.435131 0.807378
vt 0.436047 0.808037
vt 0.431586 0.801527
vt 0.431584 0.830883
vt 0.431696 0.829862
vt 0.436141 0.829862
vt 0.429720 0.805999
vt 0.431584 0.807493
vt 0.433132 0.714459
vt 0.437604 0.710495
vt 0.437604 0.714459
vt 0.455224 0.710495
vt 0.455224 0.714459
vt 0.459696 0.714459
vt 0.448585 0.829907
vt 0.446162 0.808465
vt 0.448585 0.808465
vt 0.451091 0.827995
vt 0.449596 0.808511
vt 0.451091 0.810376
vt 0.449707 0.836847
vt 0.451572 0.832375
vt 0.451573 0.836847
vt 0.448585 0.801524
vt 0.446162 0.807376
vt 0.446162 0.801524
vt 0.445151 0.808511
vt 0.443656 0.827995
vt 0.443656 0.810376
vt 0.443175 0.832375
vt 0.445041 0.836847
vt 0.443174 0.836847
vt 0.446162 0.836847
vt 0.448585 0.830996
vt 0.448585 0.836847
vt 0.449707 0.801524
vt 0.451572 0.805996
vt 0.449708 0.807491
vt 0.449501 0.830337
vt 0.446162 0.830996
vt 0.445246 0.830337
vt 0.446162 0.829907
vt 0.445246 0.808035
vt 0.448585 0.807376
vt 0.449501 0.808035
vt 0.445041 0.801524
vt 0.445039 0.830880
vt 0.445151 0.829860
vt 0.449596 0.829860
vt 0.443175 0.805996
vt 0.445039 0.807491
vt 0.967968 0.805487
vt 0.972440 0.801523
vt 0.972440 0.805487
vt 0.990059 0.801523
vt 0.990059 0.805487
vt 0.994532 0.805487
vt 0.968442 0.010056
vt 0.968437 0.111356
vt 0.979308 0.111378
vt 0.977814 0.010076
vt 0.979308 0.010081
vt 0.970250 0.116422
vt 0.979216 0.003218
vt 0.975386 0.010022
vt 0.970277 0.005004
vt 0.975289 0.002638
vt 0.977889 0.002548
vt 0.718444 0.624869
vt 0.717694 0.513625
vt 0.786126 0.503582
vt 0.436253 0.830883
vt 0.438118 0.801527
vt 0.429719 0.801527
vt 0.433132 0.710495
vt 0.459696 0.710495
vt 0.449708 0.830880
vt 0.451573 0.801524
vt 0.443174 0.801524
vt 0.967968 0.801523
vt 0.994532 0.801523
s 1
usemtl Material.058
f 24/1/1 19/2/2 30/3/3
f 17/4/4 2/5/5 3/6/6
f 10/7/7 9/8/8 7/9/9
f 12/10/10 8/11/11 9/8/8
f 10/7/7 6/12/12 12/13/10
f 12/13/10 5/14/13 11/15/14
f 20/16/15 3/6/6 1/17/16
f 13/18/17 50/19/18 48/20/19
f 62/21/20 26/22/21 27/23/22
f 44/24/23 8/11/11 43/25/24
f 13/18/17 37/26/25 2/5/5
f 30/3/3 21/27/26 32/28/27
f 19/2/2 6/12/12 16/29/28
f 16/29/28 4/30/29 14/31/30
f 49/32/31 4/30/29 39/33/32
f 42/34/33 4/30/29 7/9/9
f 19/2/2 18/35/34 21/27/26
f 18/35/35 20/16/15 21/27/36
f 14/31/30 18/35/34 16/29/28
f 18/35/35 13/18/17 17/4/4
f 21/27/36 34/36/37 32/28/38
f 8/11/11 28/37/39 26/22/21
f 11/15/14 24/1/1 28/38/39
f 34/36/37 1/17/16 22/39/40
f 32/28/41 35/40/41 33/41/41
f 32/28/27 31/42/42 30/3/3
f 43/25/24 26/22/21 61/43/43
f 30/3/3 25/44/44 24/1/1
f 26/22/21 29/45/45 27/23/22
f 24/1/1 29/46/45 28/38/39
f 34/36/37 23/47/46 35/40/47
f 54/48/48 59/49/49 65/50/50
f 37/26/25 52/51/51 38/52/52
f 44/24/23 45/53/53 42/34/33
f 43/25/24 47/54/54 44/24/23
f 45/53/53 41/55/55 39/33/32
f 47/56/54 40/57/56 41/55/55
f 38/52/52 55/58/57 36/59/58
f 65/50/50 56/60/59 54/48/48
f 54/48/48 41/55/55 40/57/56
f 51/61/60 39/33/32 41/55/55
f 54/48/48 53/62/61 51/61/60
f 55/58/57 53/62/62 56/60/63
f 53/62/61 49/32/31 51/61/60
f 53/62/62 48/20/19 50/19/18
f 69/63/64 56/60/63 67/64/65
f 63/65/66 43/25/24 61/43/43
f 59/49/49 46/66/67 63/67/66
f 36/59/58 69/63/64 57/68/68
f 67/64/65 70/69/69 69/63/64
f 66/70/70 67/64/71 65/50/50
f 60/71/72 65/50/50 59/49/49
f 61/43/43 64/72/73 63/65/66
f 64/73/73 59/49/49 63/67/66
f 69/63/64 58/74/74 57/68/68
f 42/34/33 9/8/8 44/24/23
f 129/75/75 22/76/76 1/77/75
f 127/78/77 23/79/78 22/76/76
f 15/80/79 49/32/31 50/19/80
f 39/33/32 42/34/33 45/53/53
f 7/9/9 4/30/29 10/7/7
f 84/81/81 94/82/82 98/83/83
f 76/84/41 97/85/84 75/86/41
f 89/87/85 76/88/41 73/89/41
f 87/90/86 93/91/87 79/92/88
f 95/93/89 78/94/90 77/95/90
f 78/96/90 81/97/91 71/98/90
f 82/99/92 83/100/93 88/101/94
f 86/102/95 75/103/41 97/104/84
f 83/100/93 84/81/81 85/105/96
f 90/106/97 91/107/98 92/108/99
f 93/91/87 94/82/82 95/109/89
f 96/110/100 97/111/84 98/83/83
f 96/110/100 86/102/95 97/104/84
f 93/91/87 80/112/101 79/92/88
f 94/82/82 96/110/100 98/83/83
f 90/106/97 81/97/91 91/113/98
f 90/106/97 84/81/81 83/100/93
f 94/82/82 91/114/98 95/93/89
f 98/83/83 85/115/96 84/81/81
f 83/100/93 89/87/85 88/101/94
f 77/116/90 80/112/101 95/117/89
f 71/118/75 76/119/75 78/120/75
f 78/120/102 75/121/102 77/122/102
f 75/121/103 72/123/103 77/122/103
f 112/124/81 122/125/82 126/126/83
f 104/127/41 125/128/104 103/129/41
f 117/130/85 104/131/41 101/132/41
f 115/133/86 121/134/87 107/135/88
f 123/136/89 106/137/90 105/138/90
f 106/139/90 109/140/91 99/141/90
f 110/142/92 111/143/93 116/144/94
f 114/145/95 103/146/41 125/147/104
f 111/143/93 112/124/81 113/148/96
f 118/149/97 119/150/98 120/151/99
f 121/134/87 122/125/82 123/152/89
f 124/153/100 125/154/104 126/126/83
f 124/153/100 114/145/95 125/147/104
f 121/134/87 108/155/101 107/135/88
f 122/125/82 124/153/100 126/126/83
f 118/149/97 109/140/91 119/156/98
f 118/149/97 112/124/81 111/143/93
f 122/125/82 119/157/98 123/136/89
f 126/126/83 113/158/96 112/124/81
f 111/143/93 117/130/85 116/144/94
f 105/159/90 108/155/101 123/160/89
f 99/161/75 104/162/75 106/163/75
f 106/163/102 103/164/102 105/165/102
f 103/164/103 100/166/103 105/165/103
f 37/167/75 129/75/75 2/168/75
f 128/169/78 132/170/77 131/171/78
f 129/75/75 3/172/75 2/168/75
f 129/75/75 132/170/77 127/78/77
f 132/170/77 58/173/78 131/171/78
f 130/174/75 38/175/75 36/176/75
f 130/174/75 57/177/76 132/170/77
f 24/1/1 5/14/13 19/2/2
f 17/4/4 13/18/17 2/5/5
f 10/7/7 12/10/10 9/8/8
f 12/10/10 11/178/14 8/11/11
f 10/7/7 4/30/29 6/12/12
f 12/13/10 6/12/12 5/14/13
f 20/16/15 17/4/4 3/6/6
f 13/18/17 15/80/105 50/19/18
f 62/21/20 61/43/43 26/22/21
f 44/24/23 9/8/8 8/11/11
f 13/18/17 48/20/19 37/26/25
f 30/3/3 19/2/2 21/27/26
f 19/2/2 5/14/13 6/12/12
f 16/29/28 6/12/12 4/30/29
f 49/32/31 14/31/30 4/30/29
f 42/34/33 39/33/32 4/30/29
f 19/2/2 16/29/28 18/35/34
f 18/35/35 17/4/4 20/16/15
f 14/31/30 15/80/79 18/35/34
f 18/35/35 15/80/105 13/18/17
f 21/27/36 20/16/15 34/36/37
f 8/11/11 11/178/14 28/37/39
f 11/15/14 5/14/13 24/1/1
f 34/36/37 20/16/15 1/17/16
f 32/28/38 34/36/37 35/40/106
f 32/28/41 33/41/41 31/42/41
f 43/25/24 8/11/11 26/22/21
f 30/3/3 31/42/42 25/44/44
f 26/22/21 28/37/39 29/45/45
f 24/1/1 25/44/44 29/46/45
f 34/36/37 22/39/40 23/47/46
f 54/48/48 40/57/56 59/49/49
f 37/26/25 48/20/19 52/51/51
f 44/24/23 47/54/54 45/53/53
f 43/25/24 46/179/67 47/54/54
f 45/53/53 47/56/54 41/55/55
f 47/56/54 46/66/67 40/57/56
f 38/52/52 52/51/51 55/58/57
f 65/50/50 67/64/71 56/60/59
f 54/48/48 51/61/60 41/55/55
f 51/61/60 49/32/31 39/33/32
f 54/48/48 56/60/59 53/62/61
f 55/58/57 52/51/51 53/62/62
f 53/62/61 50/19/80 49/32/31
f 53/62/62 52/51/51 48/20/19
f 69/63/64 55/58/57 56/60/63
f 63/65/66 46/179/67 43/25/24
f 59/49/49 40/57/56 46/66/67
f 36/59/58 55/58/57 69/63/64
f 67/64/90 68/180/90 70/69/90
f 66/70/90 68/180/90 67/64/90
f 60/71/72 66/70/107 65/50/50
f 61/43/43 62/21/20 64/72/73
f 64/73/73 60/71/72 59/49/49
f 69/63/64 70/69/69 58/74/108
f 42/34/33 7/9/9 9/8/8
f 129/75/75 127/78/77 22/76/76
f 127/78/77 128/169/78 23/79/78
f 15/80/79 14/31/30 49/32/31
f 84/81/81 92/108/99 94/82/82
f 76/84/41 85/115/96 97/85/84
f 89/87/85 85/181/96 76/88/41
f 87/90/86 96/110/100 93/91/87
f 95/93/89 91/114/98 78/94/90
f 78/96/90 91/113/98 81/97/91
f 82/99/92 90/106/97 83/100/93
f 86/102/95 74/182/41 75/103/41
f 96/110/100 87/90/86 86/102/95
f 93/91/87 95/117/89 80/112/101
f 94/82/82 93/91/87 96/110/100
f 90/106/97 82/99/92 81/97/91
f 90/106/97 92/108/99 84/81/81
f 94/82/82 92/108/99 91/114/98
f 98/83/83 97/85/84 85/115/96
f 83/100/93 85/181/96 89/87/85
f 77/116/90 72/183/90 80/112/101
f 71/118/75 73/184/75 76/119/75
f 78/120/102 76/119/102 75/121/102
f 75/121/103 74/185/103 72/123/103
f 112/124/81 120/151/99 122/125/82
f 104/127/41 113/158/96 125/128/104
f 117/130/85 113/186/96 104/131/41
f 115/133/86 124/153/100 121/134/87
f 123/136/89 119/157/98 106/137/90
f 106/139/90 119/156/98 109/140/91
f 110/142/92 118/149/97 111/143/93
f 114/145/95 102/187/41 103/146/41
f 124/153/100 115/133/86 114/145/95
f 121/134/87 123/160/89 108/155/101
f 122/125/82 121/134/87 124/153/100
f 118/149/97 110/142/92 109/140/91
f 118/149/97 120/151/99 112/124/81
f 122/125/82 120/151/99 119/157/98
f 126/126/83 125/128/104 113/158/96
f 111/143/93 113/186/96 117/130/85
f 105/159/90 100/188/90 108/155/101
f 99/161/75 101/189/75 104/162/75
f 106/163/102 104/162/102 103/164/102
f 103/164/103 102/190/103 100/166/103
f 37/167/75 130/174/75 129/75/75
f 128/169/78 127/78/77 132/170/77
f 129/75/75 1/77/75 3/172/75
f 129/75/75 130/174/75 132/170/77
f 132/170/77 57/177/76 58/173/78
f 130/174/75 37/167/75 38/175/75
f 130/174/75 36/176/75 57/177/76
