# Blender 4.5.3 LTS
# www.blender.org
mtllib TapeteAlmacen.mtl
o Tapete.001
v 3.178190 -0.022887 0.086403
v 3.178190 0.045917 0.086403
v 3.178190 0.045917 -3.780332
v -3.429967 -0.022887 0.086403
v -3.429967 0.045917 0.086403
v -3.429967 0.045917 -3.780332
vn -0.0000 -0.0000 1.0000
vn -0.0000 1.0000 -0.0000
vt 0.669205 0.002528
vt 0.002601 0.014164
vt 0.002544 0.002529
vt 0.669262 0.633361
vt 0.002601 0.633362
vt 0.669262 0.014164
s 1
usemtl Material.040
f 1/1/1 5/2/1 4/3/1
f 5/2/2 3/4/2 6/5/2
f 1/1/1 2/6/1 5/2/1
f 5/2/2 2/6/2 3/4/2
