# Blender 4.5.3 LTS
# www.blender.org
mtllib TejadoMini.mtl
o Mini_Tejado
v 3.042751 3.366260 -0.148205
v 3.111905 3.410346 -0.148205
v 3.042751 3.366260 -0.730820
v 3.111905 3.410345 -0.730820
v 3.435954 2.749466 -0.148205
v 3.505109 2.793551 -0.148205
v 3.435954 2.749465 -0.730820
v 3.505109 2.793551 -0.730820
v 3.042751 3.366260 -0.750272
v 3.111905 3.410345 -0.750272
v 3.042751 3.366260 -1.162765
v 3.111905 3.410345 -1.162765
v 3.628579 2.447308 -0.750272
v 3.697733 2.491393 -0.750272
v 3.628579 2.447307 -1.162764
v 3.697733 2.491393 -1.162764
v 3.042751 3.366260 -1.177422
v 3.111905 3.410345 -1.177422
v 3.042751 3.366260 -1.793105
v 3.111905 3.410345 -1.793105
v 3.628579 2.447307 -1.177422
v 3.697733 2.491393 -1.177422
v 3.628579 2.447307 -1.793105
v 3.697733 2.491393 -1.793105
v 3.042751 3.366260 -1.811811
v 3.111905 3.410345 -1.811811
v 3.042751 3.366260 -2.218020
v 3.111905 3.410345 -2.218020
v 3.599483 2.492948 -1.811811
v 3.668638 2.537033 -1.811811
v 3.599483 2.492948 -2.218020
v 3.668638 2.537033 -2.218020
v 3.042751 3.366260 -2.238768
v 3.111905 3.410345 -2.238768
v 3.042751 3.366259 -2.774600
v 3.111905 3.410345 -2.774600
v 3.588658 2.509928 -2.238768
v 3.657812 2.554014 -2.238768
v 3.588658 2.509928 -2.774600
v 3.657812 2.554014 -2.774600
vn -0.0000 -0.0000 -1.0000
vn 0.5376 -0.8432 -0.0000
vn -0.0000 -0.0000 1.0000
vn -0.8432 -0.5376 -0.0000
vn 0.8432 0.5376 -0.0000
vt 0.441181 0.964441
vt 0.483697 0.969208
vt 0.441181 0.969208
vt 0.483697 0.964441
vt 0.488464 0.930577
vt 0.488464 0.964441
vt 0.483697 0.925810
vt 0.441181 0.930577
vt 0.441181 0.925810
vt 0.268012 0.844222
vt 0.234147 0.801706
vt 0.268012 0.801706
vt 0.483697 0.930577
vt 0.070593 0.841222
vt 0.007249 0.836455
vt 0.070593 0.836455
vt 0.007249 0.841222
vt 0.002482 0.865198
vt 0.002482 0.841222
vt 0.007249 0.865198
vt 0.070593 0.869965
vt 0.007249 0.869965
vt 0.747384 0.949792
vt 0.810729 0.925816
vt 0.810729 0.949792
vt 0.125128 0.730825
vt 0.129895 0.667481
vt 0.129895 0.730825
vt 0.125128 0.667481
vt 0.089342 0.662714
vt 0.125128 0.662714
vt 0.089342 0.667481
vt 0.084575 0.730825
vt 0.084575 0.667481
vt 0.948510 0.747107
vt 0.984297 0.810451
vt 0.948510 0.810451
vt 0.206963 0.915881
vt 0.211730 0.976079
vt 0.206963 0.976079
vt 0.235341 0.980846
vt 0.211730 0.980846
vt 0.240107 0.976079
vt 0.235341 0.915881
vt 0.240107 0.915881
vt 0.875884 0.925816
vt 0.815686 0.949426
vt 0.815686 0.925816
vt 0.211730 0.915881
vt 0.235341 0.976079
vt 0.524363 0.781855
vt 0.529130 0.840883
vt 0.524363 0.840883
vt 0.560275 0.845649
vt 0.529130 0.845650
vt 0.560275 0.840883
vt 0.565042 0.781855
vt 0.565042 0.840883
vt 0.700496 0.771921
vt 0.731641 0.830948
vt 0.700496 0.830948
vt 0.529130 0.781855
vt 0.234147 0.844222
vt 0.070593 0.865198
vt 0.747384 0.925816
vt 0.089342 0.730825
vt 0.984297 0.747107
vt 0.875884 0.949426
vt 0.560275 0.781855
vt 0.731641 0.771921
s 1
usemtl Material.057
f 4/1/1 7/2/1 3/3/1
f 8/4/2 5/5/2 7/6/2
f 5/7/3 2/8/3 1/9/3
f 7/10/4 1/11/4 3/12/4
f 4/1/5 6/13/5 8/4/5
f 12/14/1 15/15/1 11/16/1
f 16/17/2 13/18/2 15/19/2
f 14/20/3 9/21/3 13/22/3
f 15/23/4 9/24/4 11/25/4
f 12/14/5 14/20/5 16/17/5
f 20/26/1 23/27/1 19/28/1
f 24/29/2 21/30/2 23/31/2
f 22/32/3 17/33/3 21/34/3
f 23/35/4 17/36/4 19/37/4
f 20/26/5 22/32/5 24/29/5
f 27/38/1 32/39/1 31/40/1
f 32/39/2 29/41/2 31/42/2
f 29/43/3 26/44/3 25/45/3
f 31/46/4 25/47/4 27/48/4
f 28/49/5 30/50/5 32/39/5
f 35/51/1 40/52/1 39/53/1
f 40/52/2 37/54/2 39/55/2
f 38/56/3 33/57/3 37/58/3
f 39/59/4 33/60/4 35/61/4
f 36/62/5 38/56/5 40/52/5
f 4/1/1 8/4/1 7/2/1
f 8/4/2 6/13/2 5/5/2
f 5/7/3 6/13/3 2/8/3
f 7/10/4 5/63/4 1/11/4
f 4/1/5 2/8/5 6/13/5
f 12/14/1 16/17/1 15/15/1
f 16/17/2 14/20/2 13/18/2
f 14/20/3 10/64/3 9/21/3
f 15/23/4 13/65/4 9/24/4
f 12/14/5 10/64/5 14/20/5
f 20/26/1 24/29/1 23/27/1
f 24/29/2 22/32/2 21/30/2
f 22/32/3 18/66/3 17/33/3
f 23/35/4 21/67/4 17/36/4
f 20/26/5 18/66/5 22/32/5
f 27/38/1 28/49/1 32/39/1
f 32/39/2 30/50/2 29/41/2
f 29/43/3 30/50/3 26/44/3
f 31/46/4 29/68/4 25/47/4
f 28/49/5 26/44/5 30/50/5
f 35/51/1 36/62/1 40/52/1
f 40/52/2 38/56/2 37/54/2
f 38/56/3 34/69/3 33/57/3
f 39/59/4 37/70/4 33/60/4
f 36/62/5 34/69/5 38/56/5
