# Blender 4.5.3 LTS
# www.blender.org
mtllib TejadoMiniPiso2.mtl
o Tejadomini1
v 2.133107 6.153610 1.178993
v 2.177146 6.181791 1.178993
v 2.133107 6.153610 0.982253
v 2.177146 6.181791 0.982253
v 2.303804 5.891732 1.177204
v 2.347843 5.919912 1.177204
v 2.303804 5.891732 0.980464
v 2.347843 5.919912 0.980464
v 2.133107 6.153610 0.975501
v 2.177146 6.181791 0.975501
v 2.133107 6.153610 0.778760
v 2.177146 6.181791 0.778760
v 2.303804 5.891732 0.973712
v 2.347843 5.919912 0.973712
v 2.303804 5.891732 0.776971
v 2.347843 5.919912 0.776971
v 2.133107 6.153610 0.772008
v 2.177146 6.181791 0.772008
v 2.133107 6.153610 0.575268
v 2.177146 6.181791 0.575268
v 2.303804 5.891732 0.770219
v 2.347843 5.919912 0.770219
v 2.303804 5.891732 0.573479
v 2.347843 5.919912 0.573479
v 2.133107 6.153610 0.568516
v 2.177146 6.181791 0.568516
v 2.133107 6.153610 0.371776
v 2.177146 6.181791 0.371776
v 2.303804 5.891732 0.566727
v 2.347843 5.919912 0.566727
v 2.303804 5.891732 0.369987
v 2.347843 5.919912 0.369987
v 2.133107 6.153610 0.365024
v 2.177146 6.181791 0.365024
v 2.133107 6.153610 0.168284
v 2.177146 6.181791 0.168284
v 2.303804 5.891732 0.363234
v 2.347843 5.919912 0.363234
v 2.303804 5.891731 0.166494
v 2.347843 5.919912 0.166494
v 2.133107 6.153610 0.161531
v 2.177146 6.181791 0.161531
v 2.133107 6.153610 -0.035209
v 2.177146 6.181791 -0.035209
v 2.303804 5.891731 0.159742
v 2.347843 5.919912 0.159742
v 2.303804 5.891731 -0.036998
v 2.347843 5.919912 -0.036998
v 2.133107 6.153610 -0.041961
v 2.177146 6.181791 -0.041961
v 2.133107 6.153610 -0.238701
v 2.177146 6.181791 -0.238701
v 2.303804 5.891731 -0.043750
v 2.347843 5.919912 -0.043750
v 2.303804 5.891731 -0.240490
v 2.347843 5.919912 -0.240490
v 2.133107 6.153610 -0.245454
v 2.177146 6.181791 -0.245454
v 2.133107 6.153610 -0.442194
v 2.177146 6.181791 -0.442194
v 2.303804 5.891731 -0.247243
v 2.347843 5.919912 -0.247243
v 2.303804 5.891731 -0.443983
v 2.347843 5.919912 -0.443983
vn -0.0031 0.0048 -1.0000
vn 0.5390 -0.8423 -0.0000
vn 0.0031 -0.0048 1.0000
vn -0.8377 -0.5461 -0.0000
vn 0.8377 0.5461 -0.0000
vt 0.873331 0.382923
vt 0.875652 0.369064
vt 0.875652 0.382943
vt 0.872025 0.011337
vt 0.874346 0.002603
vt 0.874346 0.011337
vt 0.873330 0.369062
vt 0.875651 0.382922
vt 0.873330 0.382941
vt 0.888225 0.011258
vt 0.888225 0.002523
vt 0.858146 0.011258
vt 0.872025 0.002603
vt 0.873326 0.382918
vt 0.875647 0.369058
vt 0.875647 0.382937
vt 0.872020 0.011336
vt 0.874341 0.002601
vt 0.874341 0.011336
vt 0.873331 0.369062
vt 0.875652 0.382922
vt 0.873331 0.382941
vt 0.888220 0.011257
vt 0.888220 0.002522
vt 0.858141 0.011257
vt 0.872020 0.002601
vt 0.873331 0.382920
vt 0.875652 0.369060
vt 0.875652 0.382939
vt 0.872019 0.011335
vt 0.874340 0.002600
vt 0.874340 0.011335
vt 0.873333 0.369062
vt 0.875654 0.382922
vt 0.873333 0.382941
vt 0.888219 0.011255
vt 0.888219 0.002520
vt 0.858140 0.011255
vt 0.872019 0.002600
vt 0.873327 0.382922
vt 0.875648 0.369062
vt 0.875648 0.382941
vt 0.872021 0.011336
vt 0.874343 0.002601
vt 0.874343 0.011336
vt 0.873329 0.369058
vt 0.875650 0.382918
vt 0.873329 0.382938
vt 0.888222 0.011256
vt 0.888222 0.002521
vt 0.858142 0.011256
vt 0.872021 0.002601
vt 0.873332 0.382917
vt 0.875653 0.369058
vt 0.875653 0.382937
vt 0.872026 0.011336
vt 0.874347 0.002601
vt 0.874347 0.011336
vt 0.873332 0.369062
vt 0.875653 0.382922
vt 0.873332 0.382941
vt 0.888226 0.011256
vt 0.888226 0.002521
vt 0.858147 0.011256
vt 0.872026 0.002601
vt 0.873328 0.382920
vt 0.875649 0.369060
vt 0.875649 0.382939
vt 0.872020 0.011339
vt 0.874342 0.002604
vt 0.874342 0.011339
vt 0.873329 0.369064
vt 0.875650 0.382924
vt 0.873329 0.382943
vt 0.888220 0.011259
vt 0.888220 0.002524
vt 0.858141 0.011259
vt 0.872020 0.002604
vt 0.873329 0.382924
vt 0.875650 0.369064
vt 0.875650 0.382943
vt 0.872023 0.011335
vt 0.874344 0.002600
vt 0.874344 0.011335
vt 0.873329 0.369063
vt 0.875650 0.382922
vt 0.873329 0.382942
vt 0.888223 0.011255
vt 0.888223 0.002520
vt 0.858144 0.011255
vt 0.872023 0.002600
vt 0.873329 0.382920
vt 0.875651 0.369060
vt 0.875651 0.382939
vt 0.872024 0.011335
vt 0.874345 0.002600
vt 0.874345 0.011335
vt 0.873328 0.369062
vt 0.875649 0.382922
vt 0.873328 0.382941
vt 0.888224 0.011255
vt 0.888224 0.002520
vt 0.858145 0.011255
vt 0.872024 0.002600
vt 0.873331 0.369044
vt 0.875651 0.369043
vt 0.858146 0.002523
vt 0.873326 0.369039
vt 0.875652 0.369043
vt 0.858141 0.002522
vt 0.873331 0.369041
vt 0.875654 0.369043
vt 0.858140 0.002520
vt 0.873327 0.369043
vt 0.875650 0.369039
vt 0.858142 0.002521
vt 0.873332 0.369038
vt 0.875653 0.369043
vt 0.858147 0.002521
vt 0.873328 0.369041
vt 0.875650 0.369045
vt 0.858141 0.002524
vt 0.873329 0.369045
vt 0.875650 0.369043
vt 0.858144 0.002520
vt 0.873329 0.369041
vt 0.875649 0.369043
vt 0.858145 0.002520
s 1
usemtl Material.057
f 4/1/1 7/2/1 3/3/1
f 8/4/2 5/5/2 7/6/2
f 5/7/3 2/8/3 1/9/3
f 3/10/4 5/5/4 1/11/4
f 4/12/5 6/13/5 8/4/5
f 12/14/1 15/15/1 11/16/1
f 16/17/2 13/18/2 15/19/2
f 13/20/3 10/21/3 9/22/3
f 11/23/4 13/18/4 9/24/4
f 12/25/5 14/26/5 16/17/5
f 20/27/1 23/28/1 19/29/1
f 24/30/2 21/31/2 23/32/2
f 21/33/3 18/34/3 17/35/3
f 19/36/4 21/31/4 17/37/4
f 20/38/5 22/39/5 24/30/5
f 28/40/1 31/41/1 27/42/1
f 32/43/2 29/44/2 31/45/2
f 29/46/3 26/47/3 25/48/3
f 27/49/4 29/44/4 25/50/4
f 28/51/5 30/52/5 32/43/5
f 36/53/1 39/54/1 35/55/1
f 40/56/2 37/57/2 39/58/2
f 37/59/3 34/60/3 33/61/3
f 35/62/4 37/57/4 33/63/4
f 36/64/5 38/65/5 40/56/5
f 44/66/1 47/67/1 43/68/1
f 48/69/2 45/70/2 47/71/2
f 45/72/3 42/73/3 41/74/3
f 43/75/4 45/70/4 41/76/4
f 44/77/5 46/78/5 48/69/5
f 52/79/1 55/80/1 51/81/1
f 56/82/2 53/83/2 55/84/2
f 53/85/3 50/86/3 49/87/3
f 51/88/4 53/83/4 49/89/4
f 52/90/5 54/91/5 56/82/5
f 60/92/1 63/93/1 59/94/1
f 64/95/2 61/96/2 63/97/2
f 61/98/3 58/99/3 57/100/3
f 59/101/4 61/96/4 57/102/4
f 60/103/5 62/104/5 64/95/5
f 4/1/1 8/105/1 7/2/1
f 8/4/2 6/13/2 5/5/2
f 5/7/3 6/106/3 2/8/3
f 3/10/4 7/6/4 5/5/4
f 4/12/5 2/107/5 6/13/5
f 12/14/1 16/108/1 15/15/1
f 16/17/2 14/26/2 13/18/2
f 13/20/3 14/109/3 10/21/3
f 11/23/4 15/19/4 13/18/4
f 12/25/5 10/110/5 14/26/5
f 20/27/1 24/111/1 23/28/1
f 24/30/2 22/39/2 21/31/2
f 21/33/3 22/112/3 18/34/3
f 19/36/4 23/32/4 21/31/4
f 20/38/5 18/113/5 22/39/5
f 28/40/1 32/114/1 31/41/1
f 32/43/2 30/52/2 29/44/2
f 29/46/3 30/115/3 26/47/3
f 27/49/4 31/45/4 29/44/4
f 28/51/5 26/116/5 30/52/5
f 36/53/1 40/117/1 39/54/1
f 40/56/2 38/65/2 37/57/2
f 37/59/3 38/118/3 34/60/3
f 35/62/4 39/58/4 37/57/4
f 36/64/5 34/119/5 38/65/5
f 44/66/1 48/120/1 47/67/1
f 48/69/2 46/78/2 45/70/2
f 45/72/3 46/121/3 42/73/3
f 43/75/4 47/71/4 45/70/4
f 44/77/5 42/122/5 46/78/5
f 52/79/1 56/123/1 55/80/1
f 56/82/2 54/91/2 53/83/2
f 53/85/3 54/124/3 50/86/3
f 51/88/4 55/84/4 53/83/4
f 52/90/5 50/125/5 54/91/5
f 60/92/1 64/126/1 63/93/1
f 64/95/2 62/104/2 61/96/2
f 61/98/3 62/127/3 58/99/3
f 59/101/4 63/97/4 61/96/4
f 60/103/5 58/128/5 62/104/5
